{
	"asset": {
		"version": "2.0",
		"generator": "three.js KHR_gaussian_splatting example"
	},
	"scene": 0,
	"scenes": [
		{
			"nodes": [
				0
			]
		}
	],
	"nodes": [
		{
			"mesh": 0,
			"name": "glTF Gaussian Splat"
		}
	],
	"meshes": [
		{
			"name": "glTF Gaussian Splat",
			"primitives": [
				{
					"mode": 0,
					"attributes": {
						"POSITION": 0,
						"KHR_gaussian_splatting:SCALE": 1,
						"KHR_gaussian_splatting:ROTATION": 2,
						"KHR_gaussian_splatting:OPACITY": 3,
						"KHR_gaussian_splatting:SH_DEGREE_0_COEF_0": 4
					},
					"extensions": {
						"KHR_gaussian_splatting": {
							"kernel": "ellipse",
							"colorSpace": "srgb_rec709_display"
						}
					}
				}
			]
		}
	],
	"accessors": [
		{
			"bufferView": 0,
			"componentType": 5126,
			"count": 25,
			"type": "VEC3",
			"min": [
				-1.0044256202348036,
				-1.0076141112923507,
				-0.1373438554063569
			],
			"max": [
				0.8616376924415227,
				0.9377124671218132,
				0.08
			]
		},
		{
			"bufferView": 1,
			"componentType": 5126,
			"count": 25,
			"type": "VEC3"
		},
		{
			"bufferView": 2,
			"componentType": 5120,
			"count": 25,
			"type": "VEC4",
			"normalized": true
		},
		{
			"bufferView": 3,
			"componentType": 5121,
			"count": 25,
			"type": "SCALAR",
			"normalized": true
		},
		{
			"bufferView": 4,
			"componentType": 5126,
			"count": 25,
			"type": "VEC3"
		}
	],
	"bufferViews": [
		{
			"buffer": 0,
			"byteOffset": 0,
			"byteLength": 300
		},
		{
			"buffer": 0,
			"byteOffset": 300,
			"byteLength": 300
		},
		{
			"buffer": 0,
			"byteOffset": 600,
			"byteLength": 100
		},
		{
			"buffer": 0,
			"byteOffset": 700,
			"byteLength": 25
		},
		{
			"buffer": 0,
			"byteOffset": 728,
			"byteLength": 300
		}
	],
	"buffers": [
		{
			"byteLength": 1028,
			"uri": "data:application/octet-stream;base64,"
		}
	],
	"extensionsUsed": [
		"KHR_gaussian_splatting"
	]
}
