# 3ds Max Wavefront OBJ Exporter v0.97b - (c)2007 guruware
# File Created: 16.06.2018 03:52:50

#
# object normal_map
#

v  0.0000 37.2989 -0.0000
v  33.3612 16.6806 -0.0000
v  10.3092 16.6806 -31.7283
v  -26.9897 16.6806 -19.6092
v  -26.9897 16.6806 19.6092
v  10.3092 16.6806 31.7283
v  26.9897 -16.6806 -19.6092
v  -10.3092 -16.6806 -31.7283
v  -33.3612 -16.6806 0.0000
v  -10.3092 -16.6806 31.7283
v  26.9897 -16.6806 19.6092
v  0.0000 -37.2989 -0.0000
v  19.6092 31.7283 -0.0000
v  6.0596 31.7283 -18.6495
v  -15.8642 31.7283 -11.5260
v  -15.8642 31.7283 11.5260
v  6.0596 31.7283 18.6495
v  25.6688 19.6092 -18.6495
v  -9.8046 19.6092 -30.1754
v  -31.7283 19.6092 0.0000
v  -9.8046 19.6092 30.1755
v  25.6688 19.6092 18.6495
v  35.4734 0.0000 -11.5260
v  -0.0000 0.0000 -37.2989
v  -35.4734 0.0000 -11.5260
v  -21.9237 0.0000 30.1754
v  21.9238 0.0000 30.1754
v  35.4734 0.0000 11.5260
v  21.9237 0.0000 -30.1755
v  -21.9237 0.0000 -30.1754
v  -35.4734 0.0000 11.5260
v  0.0000 0.0000 37.2989
v  9.8046 -19.6092 -30.1754
v  -25.6688 -19.6092 -18.6495
v  -25.6688 -19.6092 18.6495
v  9.8046 -19.6092 30.1754
v  31.7283 -19.6092 -0.0000
v  15.8642 -31.7283 -11.5260
v  -6.0596 -31.7283 -18.6495
v  -19.6092 -31.7283 0.0000
v  -6.0596 -31.7283 18.6495
v  15.8642 -31.7283 11.5260
# 42 vertices

vn -0.0000 1.0000 0.0000
vn 0.5257 0.8507 -0.0000
vn 0.1625 0.8507 -0.5000
vn 0.5257 0.8507 -0.0000
vn 0.8944 0.4472 0.0000
vn 0.6882 0.5257 -0.5000
vn 0.5257 0.8507 -0.0000
vn 0.6882 0.5257 -0.5000
vn 0.1625 0.8507 -0.5000
vn 0.1625 0.8507 -0.5000
vn 0.6882 0.5257 -0.5000
vn 0.2764 0.4472 -0.8507
vn -0.0000 1.0000 0.0000
vn 0.1625 0.8507 -0.5000
vn -0.4253 0.8507 -0.3090
vn 0.1625 0.8507 -0.5000
vn 0.2764 0.4472 -0.8507
vn -0.2629 0.5257 -0.8090
vn 0.1625 0.8507 -0.5000
vn -0.2629 0.5257 -0.8090
vn -0.4253 0.8507 -0.3090
vn -0.4253 0.8507 -0.3090
vn -0.2629 0.5257 -0.8090
vn -0.7236 0.4472 -0.5257
vn -0.0000 1.0000 0.0000
vn -0.4253 0.8507 -0.3090
vn -0.4253 0.8507 0.3090
vn -0.4253 0.8507 -0.3090
vn -0.7236 0.4472 -0.5257
vn -0.8507 0.5257 0.0000
vn -0.4253 0.8507 -0.3090
vn -0.8507 0.5257 0.0000
vn -0.4253 0.8507 0.3090
vn -0.4253 0.8507 0.3090
vn -0.8507 0.5257 0.0000
vn -0.7236 0.4472 0.5257
vn -0.0000 1.0000 0.0000
vn -0.4253 0.8507 0.3090
vn 0.1625 0.8507 0.5000
vn -0.4253 0.8507 0.3090
vn -0.7236 0.4472 0.5257
vn -0.2629 0.5257 0.8090
vn -0.4253 0.8507 0.3090
vn -0.2629 0.5257 0.8090
vn 0.1625 0.8507 0.5000
vn 0.1625 0.8507 0.5000
vn -0.2629 0.5257 0.8090
vn 0.2764 0.4472 0.8507
vn -0.0000 1.0000 0.0000
vn 0.1625 0.8507 0.5000
vn 0.5257 0.8507 -0.0000
vn 0.1625 0.8507 0.5000
vn 0.2764 0.4472 0.8507
vn 0.6882 0.5257 0.5000
vn 0.1625 0.8507 0.5000
vn 0.6882 0.5257 0.5000
vn 0.5257 0.8507 -0.0000
vn 0.5257 0.8507 -0.0000
vn 0.6882 0.5257 0.5000
vn 0.8944 0.4472 0.0000
vn 0.8944 0.4472 0.0000
vn 0.9511 -0.0000 0.3090
vn 0.9511 -0.0000 -0.3090
vn 0.9511 -0.0000 0.3090
vn 0.7236 -0.4472 0.5257
vn 0.8507 -0.5257 -0.0000
vn 0.9511 -0.0000 0.3090
vn 0.8507 -0.5257 -0.0000
vn 0.9511 -0.0000 -0.3090
vn 0.9511 -0.0000 -0.3090
vn 0.8507 -0.5257 -0.0000
vn 0.7236 -0.4472 -0.5257
vn 0.2764 0.4472 -0.8507
vn 0.5878 -0.0000 -0.8090
vn -0.0000 -0.0000 -1.0000
vn 0.5878 -0.0000 -0.8090
vn 0.7236 -0.4472 -0.5257
vn 0.2629 -0.5257 -0.8090
vn 0.5878 -0.0000 -0.8090
vn 0.2629 -0.5257 -0.8090
vn -0.0000 -0.0000 -1.0000
vn -0.0000 -0.0000 -1.0000
vn 0.2629 -0.5257 -0.8090
vn -0.2764 -0.4472 -0.8507
vn -0.7236 0.4472 -0.5257
vn -0.5878 -0.0000 -0.8090
vn -0.9511 0.0000 -0.3090
vn -0.5878 -0.0000 -0.8090
vn -0.2764 -0.4472 -0.8507
vn -0.6882 -0.5257 -0.5000
vn -0.5878 -0.0000 -0.8090
vn -0.6882 -0.5257 -0.5000
vn -0.9511 0.0000 -0.3090
vn -0.9511 0.0000 -0.3090
vn -0.6882 -0.5257 -0.5000
vn -0.8944 -0.4472 0.0000
vn -0.7236 0.4472 0.5257
vn -0.9511 0.0000 0.3090
vn -0.5878 0.0000 0.8090
vn -0.9511 0.0000 0.3090
vn -0.8944 -0.4472 0.0000
vn -0.6882 -0.5257 0.5000
vn -0.9511 0.0000 0.3090
vn -0.6882 -0.5257 0.5000
vn -0.5878 0.0000 0.8090
vn -0.5878 0.0000 0.8090
vn -0.6882 -0.5257 0.5000
vn -0.2764 -0.4472 0.8507
vn 0.2764 0.4472 0.8507
vn 0.0000 -0.0000 1.0000
vn 0.5878 -0.0000 0.8090
vn 0.0000 -0.0000 1.0000
vn -0.2764 -0.4472 0.8507
vn 0.2629 -0.5257 0.8090
vn 0.0000 -0.0000 1.0000
vn 0.2629 -0.5257 0.8090
vn 0.5878 -0.0000 0.8090
vn 0.5878 -0.0000 0.8090
vn 0.2629 -0.5257 0.8090
vn 0.7236 -0.4472 0.5257
vn 0.7236 -0.4472 -0.5257
vn 0.5878 -0.0000 -0.8090
vn 0.9511 -0.0000 -0.3090
vn 0.5878 -0.0000 -0.8090
vn 0.2764 0.4472 -0.8507
vn 0.6882 0.5257 -0.5000
vn 0.5878 -0.0000 -0.8090
vn 0.6882 0.5257 -0.5000
vn 0.9511 -0.0000 -0.3090
vn 0.9511 -0.0000 -0.3090
vn 0.6882 0.5257 -0.5000
vn 0.8944 0.4472 0.0000
vn -0.2764 -0.4472 -0.8507
vn -0.5878 -0.0000 -0.8090
vn -0.0000 -0.0000 -1.0000
vn -0.5878 -0.0000 -0.8090
vn -0.7236 0.4472 -0.5257
vn -0.2629 0.5257 -0.8090
vn -0.5878 -0.0000 -0.8090
vn -0.2629 0.5257 -0.8090
vn -0.0000 -0.0000 -1.0000
vn -0.0000 -0.0000 -1.0000
vn -0.2629 0.5257 -0.8090
vn 0.2764 0.4472 -0.8507
vn -0.8944 -0.4472 0.0000
vn -0.9511 0.0000 0.3090
vn -0.9511 0.0000 -0.3090
vn -0.9511 0.0000 0.3090
vn -0.7236 0.4472 0.5257
vn -0.8507 0.5257 0.0000
vn -0.9511 0.0000 0.3090
vn -0.8507 0.5257 0.0000
vn -0.9511 0.0000 -0.3090
vn -0.9511 0.0000 -0.3090
vn -0.8507 0.5257 0.0000
vn -0.7236 0.4472 -0.5257
vn -0.2764 -0.4472 0.8507
vn 0.0000 -0.0000 1.0000
vn -0.5878 0.0000 0.8090
vn 0.0000 -0.0000 1.0000
vn 0.2764 0.4472 0.8507
vn -0.2629 0.5257 0.8090
vn 0.0000 -0.0000 1.0000
vn -0.2629 0.5257 0.8090
vn -0.5878 0.0000 0.8090
vn -0.5878 0.0000 0.8090
vn -0.2629 0.5257 0.8090
vn -0.7236 0.4472 0.5257
vn 0.7236 -0.4472 0.5257
vn 0.9511 -0.0000 0.3090
vn 0.5878 -0.0000 0.8090
vn 0.9511 -0.0000 0.3090
vn 0.8944 0.4472 0.0000
vn 0.6882 0.5257 0.5000
vn 0.9511 -0.0000 0.3090
vn 0.6882 0.5257 0.5000
vn 0.5878 -0.0000 0.8090
vn 0.5878 -0.0000 0.8090
vn 0.6882 0.5257 0.5000
vn 0.2764 0.4472 0.8507
vn -0.0000 -1.0000 -0.0000
vn -0.1625 -0.8507 -0.5000
vn 0.4253 -0.8507 -0.3090
vn -0.1625 -0.8507 -0.5000
vn -0.2764 -0.4472 -0.8507
vn 0.2629 -0.5257 -0.8090
vn -0.1625 -0.8507 -0.5000
vn 0.2629 -0.5257 -0.8090
vn 0.4253 -0.8507 -0.3090
vn 0.4253 -0.8507 -0.3090
vn 0.2629 -0.5257 -0.8090
vn 0.7236 -0.4472 -0.5257
vn -0.0000 -1.0000 -0.0000
vn -0.5257 -0.8507 0.0000
vn -0.1625 -0.8507 -0.5000
vn -0.5257 -0.8507 0.0000
vn -0.8944 -0.4472 0.0000
vn -0.6882 -0.5257 -0.5000
vn -0.5257 -0.8507 0.0000
vn -0.6882 -0.5257 -0.5000
vn -0.1625 -0.8507 -0.5000
vn -0.1625 -0.8507 -0.5000
vn -0.6882 -0.5257 -0.5000
vn -0.2764 -0.4472 -0.8507
vn -0.0000 -1.0000 -0.0000
vn -0.1625 -0.8507 0.5000
vn -0.5257 -0.8507 0.0000
vn -0.1625 -0.8507 0.5000
vn -0.2764 -0.4472 0.8507
vn -0.6882 -0.5257 0.5000
vn -0.1625 -0.8507 0.5000
vn -0.6882 -0.5257 0.5000
vn -0.5257 -0.8507 0.0000
vn -0.5257 -0.8507 0.0000
vn -0.6882 -0.5257 0.5000
vn -0.8944 -0.4472 0.0000
vn -0.0000 -1.0000 -0.0000
vn 0.4253 -0.8507 0.3090
vn -0.1625 -0.8507 0.5000
vn 0.4253 -0.8507 0.3090
vn 0.7236 -0.4472 0.5257
vn 0.2629 -0.5257 0.8090
vn 0.4253 -0.8507 0.3090
vn 0.2629 -0.5257 0.8090
vn -0.1625 -0.8507 0.5000
vn -0.1625 -0.8507 0.5000
vn 0.2629 -0.5257 0.8090
vn -0.2764 -0.4472 0.8507
vn -0.0000 -1.0000 -0.0000
vn 0.4253 -0.8507 -0.3090
vn 0.4253 -0.8507 0.3090
vn 0.4253 -0.8507 -0.3090
vn 0.7236 -0.4472 -0.5257
vn 0.8507 -0.5257 -0.0000
vn 0.4253 -0.8507 -0.3090
vn 0.8507 -0.5257 -0.0000
vn 0.4253 -0.8507 0.3090
vn 0.4253 -0.8507 0.3090
vn 0.8507 -0.5257 -0.0000
vn 0.7236 -0.4472 0.5257
# 240 vertex normals

vt 0.4987 0.7536 0.0000
vt 0.7278 0.6848 0.0000
vt 0.7057 0.8371 0.0000
vt 0.8885 0.6365 0.0000
vt 0.9348 0.7682 0.0000
vt 0.8509 0.8956 0.0000
vt 0.0254 0.3417 0.0000
vt 0.0417 0.2644 0.0000
vt 0.1677 0.3836 0.0000
vt 0.2318 0.4578 0.0000
vt 0.3928 0.4619 0.0000
vt 0.5403 0.4932 0.0000
vt 0.3975 0.8740 0.0000
vt 0.6045 0.9575 0.0000
vt 0.3265 0.9584 0.0000
vt 0.2291 0.7445 0.0000
vt 0.1279 0.8650 0.0000
vt 0.0401 0.7382 0.0000
vt 0.4333 0.6276 0.0000
vt 0.1637 0.6186 0.0000
vt 0.3874 0.5392 0.0000
vt 0.6624 0.5588 0.0000
vt 0.6669 0.4409 0.0000
vt 0.8330 0.4345 0.0000
vt 0.8908 0.3619 0.0000
vt 0.9982 0.3040 0.0000
vt 0.9342 0.2297 0.0000
vt 0.9728 0.1515 0.0000
vt 0.8476 0.1026 0.0000
vt 0.7664 0.0354 0.0000
vt 0.6003 0.0419 0.0000
vt 0.4580 0.0000 0.0000
vt 0.3228 0.0423 0.0000
vt 0.1652 0.0588 0.0000
vt 0.1266 0.1370 0.0000
vt 0.0000 0.1893 0.0000
vt 0.4991 0.2466 0.0000
vt 0.7294 0.3144 0.0000
vt 0.4366 0.3732 0.0000
vt 0.7039 0.1620 0.0000
vt 0.3955 0.1265 0.0000
vt 0.2302 0.2571 0.0000
vt 0.8290 0.5644 0.0000
vt 0.9974 0.6938 0.0000
vt 0.9752 0.8461 0.0000
vt 0.7711 0.9631 0.0000
vt 0.4629 1.0000 0.0000
vt 0.1683 0.9428 0.0000
vt 0.0000 0.8134 0.0000
vt 0.0221 0.6611 0.0000
vt 0.2263 0.5441 0.0000
vt 0.5345 0.5072 0.0000
# 52 texture coords

g normal_map
f 1/1/1 13/2/2 14/3/3 
f 13/2/4 2/4/5 18/5/6 
f 13/2/7 18/5/8 14/3/9 
f 14/3/10 18/5/11 3/6/12 
f 1/1/13 14/3/14 15/13/15 
f 14/3/16 3/6/17 19/14/18 
f 14/3/19 19/14/20 15/13/21 
f 15/13/22 19/14/23 4/15/24 
f 1/1/25 15/13/26 16/16/27 
f 15/13/28 4/15/29 20/17/30 
f 15/13/31 20/17/32 16/16/33 
f 16/16/34 20/17/35 5/18/36 
f 1/1/37 16/16/38 17/19/39 
f 16/16/40 5/18/41 21/20/42 
f 16/16/43 21/20/44 17/19/45 
f 17/19/46 21/20/47 6/21/48 
f 1/1/49 17/19/50 13/2/51 
f 17/19/52 6/21/53 22/22/54 
f 17/19/55 22/22/56 13/2/57 
f 13/2/58 22/22/59 2/4/60 
f 2/4/61 28/43/62 23/44/63 
f 28/7/64 11/8/65 37/9/66 
f 28/7/67 37/9/68 23/10/69 
f 23/10/70 37/9/71 7/11/72 
f 3/6/73 29/45/74 24/46/75 
f 29/12/76 7/11/77 33/23/78 
f 29/12/79 33/23/80 24/24/81 
f 24/24/82 33/23/83 8/25/84 
f 4/15/85 30/47/86 25/48/87 
f 30/26/88 8/25/89 34/27/90 
f 30/26/91 34/27/92 25/28/93 
f 25/28/94 34/27/95 9/29/96 
f 5/18/97 31/49/98 26/50/99 
f 31/30/100 9/29/101 35/31/102 
f 31/30/103 35/31/104 26/32/105 
f 26/32/106 35/31/107 10/33/108 
f 6/21/109 32/51/110 27/52/111 
f 32/34/112 10/33/113 36/35/114 
f 32/34/115 36/35/116 27/36/117 
f 27/36/118 36/35/119 11/8/120 
f 7/11/121 29/12/122 23/10/123 
f 29/45/124 3/6/125 18/5/126 
f 29/45/127 18/5/128 23/44/129 
f 23/44/130 18/5/131 2/4/132 
f 8/25/133 30/26/134 24/24/135 
f 30/47/136 4/15/137 19/14/138 
f 30/47/139 19/14/140 24/46/141 
f 24/46/142 19/14/143 3/6/144 
f 9/29/145 31/30/146 25/28/147 
f 31/49/148 5/18/149 20/17/150 
f 31/49/151 20/17/152 25/48/153 
f 25/48/154 20/17/155 4/15/156 
f 10/33/157 32/34/158 26/32/159 
f 32/51/160 6/21/161 21/20/162 
f 32/51/163 21/20/164 26/50/165 
f 26/50/166 21/20/167 5/18/168 
f 11/8/169 28/7/170 27/36/171 
f 28/43/172 2/4/173 22/22/174 
f 28/43/175 22/22/176 27/52/177 
f 27/52/178 22/22/179 6/21/180 
f 12/37/181 39/38/182 38/39/183 
f 39/38/184 8/25/185 33/23/186 
f 39/38/187 33/23/188 38/39/189 
f 38/39/190 33/23/191 7/11/192 
f 12/37/193 40/40/194 39/38/195 
f 40/40/196 9/29/197 34/27/198 
f 40/40/199 34/27/200 39/38/201 
f 39/38/202 34/27/203 8/25/204 
f 12/37/205 41/41/206 40/40/207 
f 41/41/208 10/33/209 35/31/210 
f 41/41/211 35/31/212 40/40/213 
f 40/40/214 35/31/215 9/29/216 
f 12/37/217 42/42/218 41/41/219 
f 42/42/220 11/8/221 36/35/222 
f 42/42/223 36/35/224 41/41/225 
f 41/41/226 36/35/227 10/33/228 
f 12/37/229 38/39/230 42/42/231 
f 38/39/232 7/11/233 37/9/234 
f 38/39/235 37/9/236 42/42/237 
f 42/42/238 37/9/239 11/8/240 
# 80 faces

