<?xml version="1.0" encoding="UTF-8" standalone="no"?>
<!DOCTYPE svg PUBLIC "-//W3C//DTD SVG 1.1//EN" "http://www.w3.org/Graphics/SVG/1.1/DTD/svg11.dtd">
<svg width="100%" height="100%" viewBox="0 0 500 500" version="1.1" xmlns="http://www.w3.org/2000/svg" xmlns:xlink="http://www.w3.org/1999/xlink" xml:space="preserve" xmlns:serif="http://www.serif.com/" style="fill-rule:evenodd;clip-rule:evenodd;stroke-linejoin:round;stroke-miterlimit:1.41421;">
    <g transform="matrix(1,0,0,1,-100,-100)">
        <rect x="100" y="100" width="100" height="100" style="fill:rgb(235,235,235);"/>
    </g>
    <g transform="matrix(1,0,0,1,-100,0)">
        <rect x="100" y="100" width="100" height="100" style="fill:rgb(245,245,245);"/>
    </g>
    <g transform="matrix(1,0,0,1,-100,100)">
        <rect x="100" y="100" width="100" height="100" style="fill:rgb(219,219,219);"/>
    </g>
    <g transform="matrix(1,0,0,1,-100,200)">
        <rect x="100" y="100" width="100" height="100" style="fill:rgb(229,229,229);"/>
    </g>
    <g transform="matrix(1,0,0,1,-100,300)">
        <rect x="100" y="100" width="100" height="100" style="fill:rgb(204,204,204);"/>
    </g>
    <g transform="matrix(1,0,0,1,0,-100)">
        <rect x="100" y="100" width="100" height="100" style="fill:rgb(223,223,223);"/>
    </g>
    <rect x="100" y="100" width="100" height="100" style="fill:rgb(205,205,205);"/>
    <g transform="matrix(1,0,0,1,0,100)">
        <rect x="100" y="100" width="100" height="100" style="fill:rgb(193,193,193);"/>
    </g>
    <g transform="matrix(1,0,0,1,0,200)">
        <rect x="100" y="100" width="100" height="100" style="fill:rgb(182,182,182);"/>
    </g>
    <g transform="matrix(1,0,0,1,0,300)">
        <rect x="100" y="100" width="100" height="100" style="fill:rgb(189,189,189);"/>
    </g>
    <g transform="matrix(1,0,0,1,100,-100)">
        <rect x="100" y="100" width="100" height="100" style="fill:rgb(219,219,219);"/>
    </g>
    <g transform="matrix(1,0,0,1,100,0)">
        <rect x="100" y="100" width="100" height="100" style="fill:rgb(187,187,187);"/>
    </g>
    <g transform="matrix(1,0,0,1,100,100)">
        <rect x="100" y="100" width="100" height="100" style="fill:rgb(164,164,164);"/>
    </g>
    <g transform="matrix(1,0,0,1,100,200)">
        <rect x="100" y="100" width="100" height="100" style="fill:rgb(138,138,138);"/>
    </g>
    <g transform="matrix(1,0,0,1,100,300)">
        <rect x="100" y="100" width="100" height="100" style="fill:rgb(173,173,173);"/>
    </g>
    <g transform="matrix(1,0,0,1,200,-100)">
        <rect x="100" y="100" width="100" height="100" style="fill:rgb(203,203,203);"/>
    </g>
    <g transform="matrix(1,0,0,1,200,0)">
        <rect x="100" y="100" width="100" height="100" style="fill:rgb(194,194,194);"/>
    </g>
    <g transform="matrix(1,0,0,1,200,100)">
        <rect x="100" y="100" width="100" height="100" style="fill:rgb(171,171,171);"/>
    </g>
    <g transform="matrix(1,0,0,1,200,200)">
        <rect x="100" y="100" width="100" height="100" style="fill:rgb(156,156,156);"/>
    </g>
    <g transform="matrix(1,0,0,1,200,300)">
        <rect x="100" y="100" width="100" height="100" style="fill:rgb(194,194,194);"/>
    </g>
    <g transform="matrix(1,0,0,1,300,-100)">
        <rect x="100" y="100" width="100" height="100" style="fill:rgb(209,209,209);"/>
    </g>
    <g transform="matrix(1,0,0,1,300,0)">
        <rect x="100" y="100" width="100" height="100" style="fill:rgb(217,217,217);"/>
    </g>
    <g transform="matrix(1,0,0,1,300,100)">
        <rect x="100" y="100" width="100" height="100" style="fill:rgb(196,196,196);"/>
    </g>
    <g transform="matrix(1,0,0,1,300,200)">
        <rect x="100" y="100" width="100" height="100" style="fill:rgb(172,172,172);"/>
    </g>
    <g transform="matrix(1,0,0,1,300,300)">
        <rect x="100" y="100" width="100" height="100" style="fill:rgb(186,186,186);"/>
    </g>
    <g transform="matrix(1,0,0,1,-50,-90)">
        <circle cx="100" cy="140" r="10"/>
    </g>
    <g transform="matrix(1,0,0,1,-50,10)">
        <circle cx="100" cy="140" r="10"/>
    </g>
    <g transform="matrix(1,0,0,1,-50,110)">
        <circle cx="100" cy="140" r="10"/>
    </g>
    <g transform="matrix(1,0,0,1,-50,210)">
        <circle cx="100" cy="140" r="10"/>
    </g>
    <g transform="matrix(1,0,0,1,-50,310)">
        <circle cx="100" cy="140" r="10"/>
    </g>
    <g transform="matrix(1,0,0,1,50,-90)">
        <circle cx="100" cy="140" r="10"/>
    </g>
    <g transform="matrix(1,0,0,1,50,10)">
        <circle cx="100" cy="140" r="10"/>
    </g>
    <g transform="matrix(1,0,0,1,50,110)">
        <circle cx="100" cy="140" r="10"/>
    </g>
    <g transform="matrix(1,0,0,1,50,210)">
        <circle cx="100" cy="140" r="10"/>
    </g>
    <g transform="matrix(1,0,0,1,50,310)">
        <circle cx="100" cy="140" r="10"/>
    </g>
    <g transform="matrix(1,0,0,1,150,-90)">
        <circle cx="100" cy="140" r="10"/>
    </g>
    <g transform="matrix(1,0,0,1,150,10)">
        <circle cx="100" cy="140" r="10"/>
    </g>
    <g transform="matrix(1,0,0,1,150,110)">
        <circle cx="100" cy="140" r="10"/>
    </g>
    <g transform="matrix(1,0,0,1,150,210)">
        <circle cx="100" cy="140" r="10"/>
    </g>
    <g transform="matrix(1,0,0,1,150,310)">
        <circle cx="100" cy="140" r="10"/>
    </g>
    <g transform="matrix(1,0,0,1,250,-90)">
        <circle cx="100" cy="140" r="10"/>
    </g>
    <g transform="matrix(1,0,0,1,250,10)">
        <circle cx="100" cy="140" r="10"/>
    </g>
    <g transform="matrix(1,0,0,1,250,110)">
        <circle cx="100" cy="140" r="10"/>
    </g>
    <g transform="matrix(1,0,0,1,250,210)">
        <circle cx="100" cy="140" r="10"/>
    </g>
    <g transform="matrix(1,0,0,1,250,310)">
        <circle cx="100" cy="140" r="10"/>
    </g>
    <g transform="matrix(1,0,0,1,350,-90)">
        <circle cx="100" cy="140" r="10"/>
    </g>
    <g transform="matrix(1,0,0,1,350,10)">
        <circle cx="100" cy="140" r="10"/>
    </g>
    <g transform="matrix(1,0,0,1,350,110)">
        <circle cx="100" cy="140" r="10"/>
    </g>
    <g transform="matrix(1,0,0,1,350,210)">
        <circle cx="100" cy="140" r="10"/>
    </g>
    <g transform="matrix(1,0,0,1,350,310)">
        <circle cx="100" cy="140" r="10"/>
    </g>
</svg>
