<?xml version="1.0" encoding="UTF-8" standalone="no"?>
<!DOCTYPE svg PUBLIC "-//W3C//DTD SVG 1.1//EN" "http://www.w3.org/Graphics/SVG/1.1/DTD/svg11.dtd">
<svg width="100%" height="100%" viewBox="0 0 460 380" version="1.1" xmlns="http://www.w3.org/2000/svg" xmlns:xlink="http://www.w3.org/1999/xlink" xml:space="preserve" xmlns:serif="http://www.serif.com/" style="fill-rule:evenodd;clip-rule:evenodd;stroke-linecap:round;stroke-linejoin:round;stroke-miterlimit:1.5;">
    <g transform="matrix(1,0,0,1,-20,0)">
        <g transform="matrix(1,0,0,1,-20,-20)">
            <rect x="60" y="60" width="40" height="40" style="fill:rgb(0,212,255);stroke:black;stroke-width:0.2px;"/>
        </g>
        <g transform="matrix(1,0,0,1,-0.853483,1.27345)">
            <text x="49.05px" y="60.575px" style="font-family:'ArialMT', 'Arial', sans-serif;font-size:12px;">x,y<tspan x="63.493px 66.827px " y="60.575px 60.575px ">,z</tspan></text>
        </g>
    </g>
    <g transform="matrix(1,0,0,1,20,0)">
        <g transform="matrix(1,0,0,1,-20,-20)">
            <rect x="60" y="60" width="40" height="40" style="fill:rgb(0,212,255);stroke:black;stroke-width:0.2px;"/>
        </g>
        <g transform="matrix(1,0,0,1,-0.853483,1.27345)">
            <text x="49.05px" y="60.575px" style="font-family:'ArialMT', 'Arial', sans-serif;font-size:12px;">x,y<tspan x="63.493px 66.827px " y="60.575px 60.575px ">,z</tspan></text>
        </g>
    </g>
    <g transform="matrix(1,0,0,1,60,0)">
        <g transform="matrix(1,0,0,1,-20,-20)">
            <rect x="60" y="60" width="40" height="40" style="fill:rgb(0,212,255);stroke:black;stroke-width:0.2px;"/>
        </g>
        <g transform="matrix(1,0,0,1,-0.853483,1.27345)">
            <text x="49.05px" y="60.575px" style="font-family:'ArialMT', 'Arial', sans-serif;font-size:12px;">x,y<tspan x="63.493px 66.827px " y="60.575px 60.575px ">,z</tspan></text>
        </g>
    </g>
    <g transform="matrix(1,0,0,1,100,0)">
        <g transform="matrix(1,0,0,1,-20,-20)">
            <rect x="60" y="60" width="40" height="40" style="fill:rgb(0,212,255);stroke:black;stroke-width:0.2px;"/>
        </g>
        <g transform="matrix(1,0,0,1,-0.853483,1.27345)">
            <text x="49.05px" y="60.575px" style="font-family:'ArialMT', 'Arial', sans-serif;font-size:12px;">x,y<tspan x="63.493px 66.827px " y="60.575px 60.575px ">,z</tspan></text>
        </g>
    </g>
    <g transform="matrix(1,0,0,1,140,0)">
        <g transform="matrix(1,0,0,1,-20,-20)">
            <rect x="60" y="60" width="40" height="40" style="fill:rgb(0,212,255);stroke:black;stroke-width:0.2px;"/>
        </g>
        <g transform="matrix(1,0,0,1,-0.853483,1.27345)">
            <text x="49.05px" y="60.575px" style="font-family:'ArialMT', 'Arial', sans-serif;font-size:12px;">x,y<tspan x="63.493px 66.827px " y="60.575px 60.575px ">,z</tspan></text>
        </g>
    </g>
    <g transform="matrix(1,0,0,1,180,0)">
        <g transform="matrix(1,0,0,1,-20,-20)">
            <rect x="60" y="60" width="40" height="40" style="fill:rgb(0,212,255);stroke:black;stroke-width:0.2px;"/>
        </g>
        <g transform="matrix(1,0,0,1,-0.853483,1.27345)">
            <text x="49.05px" y="60.575px" style="font-family:'ArialMT', 'Arial', sans-serif;font-size:12px;">x,y<tspan x="63.493px 66.827px " y="60.575px 60.575px ">,z</tspan></text>
        </g>
    </g>
    <g transform="matrix(1,0,0,1,220,0)">
        <g transform="matrix(1,0,0,1,-20,-20)">
            <rect x="60" y="60" width="40" height="40" style="fill:rgb(0,212,255);stroke:black;stroke-width:0.2px;"/>
        </g>
        <g transform="matrix(1,0,0,1,-0.853483,1.27345)">
            <text x="49.05px" y="60.575px" style="font-family:'ArialMT', 'Arial', sans-serif;font-size:12px;">x,y<tspan x="63.493px 66.827px " y="60.575px 60.575px ">,z</tspan></text>
        </g>
    </g>
    <g transform="matrix(1,0,0,1,260,0)">
        <g transform="matrix(1,0,0,1,-20,-20)">
            <rect x="60" y="60" width="40" height="40" style="fill:rgb(0,212,255);stroke:black;stroke-width:0.2px;"/>
        </g>
        <g transform="matrix(1,0,0,1,-0.853483,1.27345)">
            <text x="49.05px" y="60.575px" style="font-family:'ArialMT', 'Arial', sans-serif;font-size:12px;">x,y<tspan x="63.493px 66.827px " y="60.575px 60.575px ">,z</tspan></text>
        </g>
    </g>
    <g transform="matrix(1,0,0,1,300,0)">
        <g transform="matrix(1,0,0,1,-20,-20)">
            <rect x="60" y="60" width="40" height="40" style="fill:rgb(0,212,255);stroke:black;stroke-width:0.2px;"/>
        </g>
        <g transform="matrix(1,0,0,1,-0.853483,1.27345)">
            <text x="49.05px" y="60.575px" style="font-family:'ArialMT', 'Arial', sans-serif;font-size:12px;">x,y<tspan x="63.493px 66.827px " y="60.575px 60.575px ">,z</tspan></text>
        </g>
    </g>
    <g transform="matrix(1,0,0,1,340,0)">
        <g transform="matrix(1,0,0,1,-20,-20)">
            <rect x="60" y="60" width="40" height="40" style="fill:rgb(0,212,255);stroke:black;stroke-width:0.2px;"/>
        </g>
        <g transform="matrix(1,0,0,1,-0.853483,1.27345)">
            <text x="49.05px" y="60.575px" style="font-family:'ArialMT', 'Arial', sans-serif;font-size:12px;">x,y<tspan x="63.493px 66.827px " y="60.575px 60.575px ">,z</tspan></text>
        </g>
    </g>
    <g>
        <g transform="matrix(1.28571,0,0,1,-11.4286,0)">
            <rect x="40" y="120" width="140" height="60" style="fill:rgb(0,162,255);stroke:black;stroke-width:0.17px;"/>
        </g>
        <g transform="matrix(1,0,0,1,15.4797,-10.6675)">
            <text x="33.425px" y="151.325px" style="font-family:'ArialMT', 'Arial', sans-serif;font-size:12px;">indices: 0, 1, 2</text>
            <text x="33.425px" y="163.717px" style="font-family:'ArialMT', 'Arial', sans-serif;font-size:12px;">vertexNormals: xyz, xyz, xyz</text>
            <text x="33.425px" y="176.11px" style="font-family:'ArialMT', 'Arial', sans-serif;font-size:12px;">vertexColors: rgb, rgb, rgb</text>
        </g>
    </g>
    <g transform="matrix(1,0,0,1,-5.68434e-14,60)">
        <g transform="matrix(1.28571,0,0,1,-11.4286,0)">
            <rect x="40" y="120" width="140" height="60" style="fill:rgb(0,162,255);stroke:black;stroke-width:0.17px;"/>
        </g>
        <g transform="matrix(1,0,0,1,15.4797,-10.6675)">
            <text x="33.425px" y="151.325px" style="font-family:'ArialMT', 'Arial', sans-serif;font-size:12px;">indices: 0, 3, 1</text>
            <text x="33.425px" y="163.717px" style="font-family:'ArialMT', 'Arial', sans-serif;font-size:12px;">vertexNormals: xyz, xyz, xyz</text>
            <text x="33.425px" y="176.11px" style="font-family:'ArialMT', 'Arial', sans-serif;font-size:12px;">vertexColors: rgb, rgb, rgb</text>
        </g>
    </g>
    <g transform="matrix(1,0,0,1,-5.68434e-14,120)">
        <g transform="matrix(1.28571,0,0,1,-11.4286,0)">
            <rect x="40" y="120" width="140" height="60" style="fill:rgb(0,162,255);stroke:black;stroke-width:0.17px;"/>
        </g>
        <g transform="matrix(1,0,0,1,15.4797,-10.6675)">
            <text x="33.425px" y="151.325px" style="font-family:'ArialMT', 'Arial', sans-serif;font-size:12px;">indices: 4, 5, 6</text>
            <text x="33.425px" y="163.717px" style="font-family:'ArialMT', 'Arial', sans-serif;font-size:12px;">vertexNormals: xyz, xyz, xyz</text>
            <text x="33.425px" y="176.11px" style="font-family:'ArialMT', 'Arial', sans-serif;font-size:12px;">vertexColors: rgb, rgb, rgb</text>
        </g>
    </g>
    <g transform="matrix(1,0,0,1,-5.68434e-14,180)">
        <g transform="matrix(1.28571,0,0,1,-11.4286,0)">
            <rect x="40" y="120" width="140" height="60" style="fill:rgb(0,162,255);stroke:black;stroke-width:0.17px;"/>
        </g>
        <g transform="matrix(1,0,0,1,15.4797,-10.6675)">
            <text x="33.425px" y="151.325px" style="font-family:'ArialMT', 'Arial', sans-serif;font-size:12px;">indices: 4, 7, 5</text>
            <text x="33.425px" y="163.717px" style="font-family:'ArialMT', 'Arial', sans-serif;font-size:12px;">vertexNormals: xyz, xyz, xyz</text>
            <text x="33.425px" y="176.11px" style="font-family:'ArialMT', 'Arial', sans-serif;font-size:12px;">vertexColors: rgb, rgb, rgb</text>
        </g>
    </g>
    <rect x="40" y="100" width="180" height="20" style="fill:rgb(0,145,228);stroke:black;stroke-width:0.2px;"/>
    <g transform="matrix(1,0,0,1,-16.5283,0.403108)">
        <text x="130.963px" y="113.833px" style="font-family:'Arial-BoldMT', 'Arial', sans-serif;font-weight:700;font-size:12px;">faces</text>
    </g>
    <g transform="matrix(1,0,0,1.53846,-20,-21.5385)">
        <rect x="40" y="27" width="400" height="13" style="fill:rgb(0,180,216);stroke:black;stroke-width:0.15px;"/>
    </g>
    <g transform="matrix(1,0,0,1,-19.6069,-0.342976)">
        <text x="186.164px" y="33.448px" style="font-family:'Arial-BoldMT', 'Arial', sans-serif;font-weight:700;font-size:12px;">vertices(positions)</text>
    </g>
    <g transform="matrix(1,0,0,1,-20,0)">
        <rect x="280" y="120" width="140" height="240" style="fill:rgb(3,146,106);stroke:black;stroke-width:0.2px;"/>
    </g>
    <g transform="matrix(1,0,0,1,10,0)">
        <rect x="250" y="120" width="140" height="60" style="fill:none;"/>
        <g transform="matrix(1,0,0,1.1,-30,-12.5)">
            <rect x="285" y="125" width="130" height="50" style="fill:rgb(10,197,145);stroke:black;stroke-width:0.19px;"/>
        </g>
        <g transform="matrix(1,0,0,1,0,10)">
            <g transform="matrix(1,0,0,1,20,0)">
                <rect x="240" y="120" width="40" height="40" style="fill:rgb(0,216,156);stroke:black;stroke-width:0.2px;"/>
            </g>
            <g transform="matrix(1,0,0,1,21.749,3.84696)">
                <text x="249.934px" y="138.415px" style="font-family:'ArialMT', 'Arial', sans-serif;font-size:12px;">u,v</text>
            </g>
        </g>
        <g transform="matrix(1,0,0,1,40,10)">
            <g transform="matrix(1,0,0,1,20,0)">
                <rect x="240" y="120" width="40" height="40" style="fill:rgb(0,216,156);stroke:black;stroke-width:0.2px;"/>
            </g>
            <g transform="matrix(1,0,0,1,21.749,3.84696)">
                <text x="249.934px" y="138.415px" style="font-family:'ArialMT', 'Arial', sans-serif;font-size:12px;">u,v</text>
            </g>
        </g>
        <g transform="matrix(1,0,0,1,80,10)">
            <g transform="matrix(1,0,0,1,20,0)">
                <rect x="240" y="120" width="40" height="40" style="fill:rgb(0,216,156);stroke:black;stroke-width:0.2px;"/>
            </g>
            <g transform="matrix(1,0,0,1,21.749,3.84696)">
                <text x="249.934px" y="138.415px" style="font-family:'ArialMT', 'Arial', sans-serif;font-size:12px;">u,v</text>
            </g>
        </g>
    </g>
    <g transform="matrix(1,0,0,1,10,60)">
        <rect x="250" y="120" width="140" height="60" style="fill:none;"/>
        <g transform="matrix(1,0,0,1.2,-30,-30)">
            <rect x="285" y="125" width="130" height="50" style="fill:rgb(10,197,145);stroke:black;stroke-width:0.18px;"/>
        </g>
        <g transform="matrix(1,0,0,1,0,10)">
            <g transform="matrix(1,0,0,1,20,0)">
                <rect x="240" y="120" width="40" height="40" style="fill:rgb(0,216,156);stroke:black;stroke-width:0.2px;"/>
            </g>
            <g transform="matrix(1,0,0,1,21.749,3.84696)">
                <text x="249.934px" y="138.415px" style="font-family:'ArialMT', 'Arial', sans-serif;font-size:12px;">u,v</text>
            </g>
        </g>
        <g transform="matrix(1,0,0,1,40,10)">
            <g transform="matrix(1,0,0,1,20,0)">
                <rect x="240" y="120" width="40" height="40" style="fill:rgb(0,216,156);stroke:black;stroke-width:0.2px;"/>
            </g>
            <g transform="matrix(1,0,0,1,21.749,3.84696)">
                <text x="249.934px" y="138.415px" style="font-family:'ArialMT', 'Arial', sans-serif;font-size:12px;">u,v</text>
            </g>
        </g>
        <g transform="matrix(1,0,0,1,80,10)">
            <g transform="matrix(1,0,0,1,20,0)">
                <rect x="240" y="120" width="40" height="40" style="fill:rgb(0,216,156);stroke:black;stroke-width:0.2px;"/>
            </g>
            <g transform="matrix(1,0,0,1,21.749,3.84696)">
                <text x="249.934px" y="138.415px" style="font-family:'ArialMT', 'Arial', sans-serif;font-size:12px;">u,v</text>
            </g>
        </g>
    </g>
    <g transform="matrix(1,0,0,1,10,120)">
        <rect x="250" y="120" width="140" height="60" style="fill:none;"/>
        <g transform="matrix(1,0,0,1.2,-30,-30)">
            <rect x="285" y="125" width="130" height="50" style="fill:rgb(10,197,145);stroke:black;stroke-width:0.18px;"/>
        </g>
        <g transform="matrix(1,0,0,1,0,10)">
            <g transform="matrix(1,0,0,1,20,0)">
                <rect x="240" y="120" width="40" height="40" style="fill:rgb(0,216,156);stroke:black;stroke-width:0.2px;"/>
            </g>
            <g transform="matrix(1,0,0,1,21.749,3.84696)">
                <text x="249.934px" y="138.415px" style="font-family:'ArialMT', 'Arial', sans-serif;font-size:12px;">u,v</text>
            </g>
        </g>
        <g transform="matrix(1,0,0,1,40,10)">
            <g transform="matrix(1,0,0,1,20,0)">
                <rect x="240" y="120" width="40" height="40" style="fill:rgb(0,216,156);stroke:black;stroke-width:0.2px;"/>
            </g>
            <g transform="matrix(1,0,0,1,21.749,3.84696)">
                <text x="249.934px" y="138.415px" style="font-family:'ArialMT', 'Arial', sans-serif;font-size:12px;">u,v</text>
            </g>
        </g>
        <g transform="matrix(1,0,0,1,80,10)">
            <g transform="matrix(1,0,0,1,20,0)">
                <rect x="240" y="120" width="40" height="40" style="fill:rgb(0,216,156);stroke:black;stroke-width:0.2px;"/>
            </g>
            <g transform="matrix(1,0,0,1,21.749,3.84696)">
                <text x="249.934px" y="138.415px" style="font-family:'ArialMT', 'Arial', sans-serif;font-size:12px;">u,v</text>
            </g>
        </g>
    </g>
    <g transform="matrix(1,0,0,1,10,180)">
        <rect x="250" y="120" width="140" height="60" style="fill:none;"/>
        <g transform="matrix(1,0,0,1.1,-30,-17.5)">
            <rect x="285" y="125" width="130" height="50" style="fill:rgb(10,197,145);stroke:black;stroke-width:0.19px;"/>
        </g>
        <g transform="matrix(1,0,0,1,0,10)">
            <g transform="matrix(1,0,0,1,20,0)">
                <rect x="240" y="120" width="40" height="40" style="fill:rgb(0,216,156);stroke:black;stroke-width:0.2px;"/>
            </g>
            <g transform="matrix(1,0,0,1,21.749,3.84696)">
                <text x="249.934px" y="138.415px" style="font-family:'ArialMT', 'Arial', sans-serif;font-size:12px;">u,v</text>
            </g>
        </g>
        <g transform="matrix(1,0,0,1,40,10)">
            <g transform="matrix(1,0,0,1,20,0)">
                <rect x="240" y="120" width="40" height="40" style="fill:rgb(0,216,156);stroke:black;stroke-width:0.2px;"/>
            </g>
            <g transform="matrix(1,0,0,1,21.749,3.84696)">
                <text x="249.934px" y="138.415px" style="font-family:'ArialMT', 'Arial', sans-serif;font-size:12px;">u,v</text>
            </g>
        </g>
        <g transform="matrix(1,0,0,1,80,10)">
            <g transform="matrix(1,0,0,1,20,0)">
                <rect x="240" y="120" width="40" height="40" style="fill:rgb(0,216,156);stroke:black;stroke-width:0.2px;"/>
            </g>
            <g transform="matrix(1,0,0,1,21.749,3.84696)">
                <text x="249.934px" y="138.415px" style="font-family:'ArialMT', 'Arial', sans-serif;font-size:12px;">u,v</text>
            </g>
        </g>
    </g>
    <g transform="matrix(1,0,0,1,10,0)">
        <rect x="250" y="100" width="140" height="20" style="fill:rgb(8,166,122);stroke:black;stroke-width:0.2px;"/>
    </g>
    <g transform="matrix(1,0,0,1,11.2642,3.15754)">
        <text x="277.216px" y="111.137px" style="font-family:'Arial-BoldMT', 'Arial', sans-serif;font-weight:700;font-size:12px;">faceV<tspan x="308.576px 315.249px " y="111.137px 111.137px ">er</tspan>texUVs</text>
    </g>
</svg>
