{
  "accessors": [
    {
      "bufferView": 0,
      "componentType": 5126,
      "count": 3575,
      "type": "VEC2",
      "max": [
        0.9999003,
        -0.0221377648
      ],
      "min": [
        0.0006585993,
        -0.996773958
      ]
    },
    {
      "bufferView": 1,
      "componentType": 5126,
      "count": 3575,
      "type": "VEC3",
      "max": [
        1.0,
        1.0,
        0.9999782
      ],
      "min": [
        -1.0,
        -1.0,
        -0.9980823
      ]
    },
    {
      "bufferView": 2,
      "componentType": 5126,
      "count": 3575,
      "type": "VEC4",
      "max": [
        1.0,
        0.9999976,
        1.0,
        1.0
      ],
      "min": [
        -0.9991289,
        -0.999907851,
        -1.0,
        1.0
      ]
    },
    {
      "bufferView": 3,
      "componentType": 5126,
      "count": 3575,
      "type": "VEC3",
      "max": [
        0.009921154,
        0.00977163,
        0.0100762453
      ],
      "min": [
        -0.009921154,
        -0.00977163,
        -0.0100762453
      ]
    },
    {
      "bufferView": 4,
      "componentType": 5123,
      "count": 18108,
      "type": "SCALAR",
      "max": [
        3574
      ],
      "min": [
        0
      ]
    }
  ],
  "asset": {
    "generator": "glTF Tools for Unity",
    "version": "2.0"
  },
  "bufferViews": [
    {
      "buffer": 0,
      "byteLength": 28600
    },
    {
      "buffer": 0,
      "byteOffset": 28600,
      "byteLength": 42900
    },
    {
      "buffer": 0,
      "byteOffset": 71500,
      "byteLength": 57200
    },
    {
      "buffer": 0,
      "byteOffset": 128700,
      "byteLength": 42900
    },
    {
      "buffer": 0,
      "byteOffset": 171600,
      "byteLength": 36216
    }
  ],
  "buffers": [
    {
      "uri": "BoomBox.bin",
      "byteLength": 207816
    }
  ],
  "images": [
    {
      "uri": "BoomBox_baseColor.png"
    },
    {
      "uri": "BoomBox_occlusionRoughnessMetallic.png"
    },
    {
      "uri": "BoomBox_normal.png"
    },
    {
      "uri": "BoomBox_emissive.png"
    },
    {
      "uri": "BoomBox_baseColor.dds"
    },
    {
      "uri": "BoomBox_occlusionRoughnessMetallic.dds"
    },
    {
      "uri": "BoomBox_normal.dds"
    },
    {
      "uri": "BoomBox_emissive.dds"
    }
  ],
  "meshes": [
    {
      "primitives": [
        {
          "attributes": {
            "TEXCOORD_0": 0,
            "NORMAL": 1,
            "TANGENT": 2,
            "POSITION": 3
          },
          "indices": 4,
          "material": 0
        }
      ],
      "name": "BoomBox"
    }
  ],
  "materials": [
    {
      "pbrMetallicRoughness": {
        "baseColorTexture": {
          "index": 0
        },
        "metallicRoughnessTexture": {
          "index": 1
        }
      },
      "normalTexture": {
        "index": 2
      },
      "occlusionTexture": {
        "index": 1
      },
      "emissiveFactor": [
        1.0,
        1.0,
        1.0
      ],
      "emissiveTexture": {
        "index": 3
      },
      "name": "BoomBox_Mat"
    }
  ],
  "nodes": [
    {
      "mesh": 0,
      "name": "BoomBox"
    }
  ],
  "scene": 0,
  "scenes": [
    {
      "nodes": [
        0
      ]
    }
  ],
  "textures": [
    {
      "source": 0,
      "extensions": {
        "MSFT_texture_dds": {
            "source": 4
        }
    }
    },
    {
      "source": 1,
      "extensions": {
        "MSFT_texture_dds": {
            "source": 5
        }
    }
    },
    {
      "source": 2,
      "extensions": {
        "MSFT_texture_dds": {
            "source": 6
        }
    }
    },
    {
      "source": 3,
      "extensions": {
        "MSFT_texture_dds": {
            "source": 7
        }
    }
    }
  ],
  "extensionsUsed": [
    "MSFT_texture_dds"
  ]
}