<?xml version="1.0" encoding="iso-8859-1"?>
<!-- Generator: Adobe Illustrator 19.0.0, SVG Export Plug-In . SVG Version: 6.00 Build 0)  -->
<svg version="1.1" id="Layer_1" xmlns="http://www.w3.org/2000/svg" xmlns:xlink="http://www.w3.org/1999/xlink" x="0px" y="0px"
	 viewBox="0 0 210.416 210.416" style="enable-background:new 0 0 210.416 210.416;" xml:space="preserve">
<g>
	<g>
		<path d="M206.519,155.863h-19.483V54.552h19.481c2.152,0,3.897-1.745,3.897-3.897V3.897c0-2.152-1.745-3.897-3.897-3.897h-46.759
			c-2.152,0-3.897,1.745-3.897,3.897V23.38H54.552V3.897C54.552,1.745,52.807,0,50.655,0H3.897C1.745,0,0,1.745,0,3.897v46.759
			c0,2.152,1.745,3.897,3.897,3.897H23.38v101.31H3.897c-2.152,0-3.897,1.745-3.897,3.897v46.759c0,2.152,1.745,3.897,3.897,3.897
			h46.759c2.152,0,3.897-1.745,3.897-3.897v-19.483h101.31v19.483c0,2.152,1.745,3.897,3.897,3.897h46.759
			c2.152,0,3.897-1.745,3.897-3.897V159.76C210.416,157.608,208.671,155.863,206.519,155.863z M202.621,7.793v38.966h-15.586h-7.793
			h-15.586V31.172v-7.793V7.793H202.621z M23.379,46.758H7.793V7.793h38.966v15.586v7.793v15.586H31.172H23.379z M7.793,202.621
			v-38.966h15.586h7.793h15.586v15.586v7.793v15.587H7.793z M159.758,155.862c-2.152,0-3.897,1.745-3.897,3.897v19.483H54.552
			v-19.483c0-2.152-1.745-3.897-3.897-3.897H31.172V54.552h19.483c2.152,0,3.897-1.745,3.897-3.897V31.172h101.31v19.483
			c0,2.152,1.745,3.897,3.897,3.897h19.483v101.31h-0.001H159.758z M202.621,202.621h-38.966v-15.586v-7.793v-15.586h15.586h7.793
			h15.587V202.621z"/>
	</g>
</g>
<g>
</g>
<g>
</g>
<g>
</g>
<g>
</g>
<g>
</g>
<g>
</g>
<g>
</g>
<g>
</g>
<g>
</g>
<g>
</g>
<g>
</g>
<g>
</g>
<g>
</g>
<g>
</g>
<g>
</g>
</svg>
