<?xml version="1.0" encoding="iso-8859-1"?>
<!-- Generator: Adobe Illustrator 19.0.0, SVG Export Plug-In . SVG Version: 6.00 Build 0)  -->
<svg version="1.1" id="Capa_1" xmlns="http://www.w3.org/2000/svg" xmlns:xlink="http://www.w3.org/1999/xlink" x="0px" y="0px"
	 viewBox="0 0 512 512" style="enable-background:new 0 0 512 512;" xml:space="preserve">
<g>
	<g>
		<path d="M256,64c-63.749,0-116.539,27.751-153.514,61.856l1.762-105.739C104.432,9.191,95.716,0.178,84.784,0
			c-0.112,0-0.224,0-0.336,0C73.673,0,64.845,8.65,64.66,19.464l-2.639,158.351c-0.086,5.364,2.006,10.537,5.806,14.331
			c3.794,3.794,8.94,5.885,14.331,5.793l154.392-2.639c10.926-0.191,19.635-9.198,19.451-20.13
			c-0.185-10.814-9.013-19.457-19.787-19.457c-0.112,0-0.224,0-0.343,0l-109.13,1.867c30.515-28.919,75.54-53.991,129.26-53.991
			c110.113,0,184.082,95.182,184.082,184.082c0,89.217-73.969,184.742-184.082,184.742c-120.109,0-184.082-107.296-184.082-184.742
			c0-10.933-8.861-19.794-19.794-19.794S32.33,276.737,32.33,287.67C32.33,396.008,122.207,512,256,512
			s223.67-115.992,223.67-224.336C479.67,179.649,389.793,64,256,64z"/>
	</g>
</g>
</svg>
