<?xml version="1.0" encoding="UTF-8"?>
<svg version="1.1" viewBox="0 0 512 512" xmlns="http://www.w3.org/2000/svg">
 <path d="m247.8 474.12c61.315 0 112.09-26.692 147.65-59.495l-1.6947 75.58c-0.17697 10.509 8.2063 19.178 18.721 19.349h0.32318c10.364 0 18.855-8.3198 19.033-18.721l2.5382-126.18c0.0827-5.1592-1.9294-10.135-5.5843-13.784-3.6492-3.6492-8.5987-5.6603-13.784-5.5718l-126.73 2.5383c-10.509 0.18371-18.885 8.8469-18.708 19.362 0.17794 10.401 8.6689 18.714 19.032 18.714h0.32991l83.195-1.7957c-29.35 27.815-72.656 51.93-124.33 51.93-105.91 0-177.05-91.548-177.05-177.05-0.31704-10.248-6.2951-19.251-18.532-19.479-12.237-0.22764-19.196 8.1831-19.543 19.486 0 103.89 86.446 215.13 215.13 215.13zm4.3538-435.25c-61.315 0-112.09 26.692-147.65 59.495l1.6947-75.579c0.17698-10.509-8.2063-19.178-18.721-19.349h-0.32317c-10.364 0-18.855 8.3198-19.033 18.721l-2.5383 126.18c-0.08272 5.1592 1.9294 10.135 5.5844 13.784 3.6492 3.6492 8.5987 5.6603 13.784 5.5719l126.73-2.5383c10.509-0.18371 18.885-8.8469 18.708-19.362-0.17794-10.401-8.6689-18.714-19.032-18.714h-0.32991l-83.195 1.7957c29.35-27.815 72.656-51.93 124.33-51.93 105.91 0 177.05 91.548 177.05 177.05 0.31703 10.248 6.2951 19.251 18.532 19.479 12.237 0.22763 19.196-8.1831 19.543-19.486 0-103.89-86.446-215.13-215.13-215.13z"/>
</svg>
