<?xml version="1.0" encoding="UTF-8"?>
<svg version="1.1" viewBox="0 0 512 512" xmlns="http://www.w3.org/2000/svg">
 <path d="m450.25 44.182-133.13 1.1699c-9.691 0.076-17.482 7.9849-17.406 17.67 0.076 9.638 27.155 17.4 17.535 17.4h0.1289l90.35-0.84375-116.88 116.87c-6.85 6.844-6.85 17.949 0 24.793 3.425 3.425 7.9075 5.1387 12.396 5.1387 4.483 0 8.9734-1.7137 12.398-5.1387l116.87-116.88-0.84179 90.344c-0.07 9.685 7.7193 17.594 17.404 17.67h0.12891c9.62 0 17.459-7.7624 17.535-17.4l1.168-133.13c1.3e-4 -0.01637-2e-3 -0.03246-2e-3 -0.04883 3e-3 -0.51471-0.0239-1.0297-0.0664-1.543-4e-3 -0.05325-9.6e-4 -0.10695-6e-3 -0.16016-2.4e-4 -0.0027-2e-3 -0.0051-2e-3 -0.0078-0.26224-2.8345-1.2132-5.6145-2.8516-8.0742-0.31876-0.47858-0.66235-0.94631-1.0332-1.3984-0.36831-0.45029-0.76079-0.88383-1.1758-1.2988-0.41658-0.41735-0.85218-0.81156-1.3047-1.1816-0.24176-0.19804-0.49656-0.36957-0.7461-0.55273-0.21514-0.15762-0.42293-0.32538-0.64453-0.47266-0.35614-0.23723-0.72494-0.4459-1.0938-0.6543-0.12574-0.07096-0.24567-0.15292-0.37304-0.2207-0.42481-0.22631-0.86059-0.42442-1.2988-0.61328-0.0824-0.03554-0.16117-0.07901-0.24414-0.11328-0.42706-0.17629-0.86181-0.32571-1.2988-0.4668-0.10761-0.03483-0.21201-0.07858-0.32031-0.11133-0.37604-0.11341-0.75724-0.19952-1.1387-0.28711-0.18044-0.04161-0.35715-0.09494-0.53906-0.13086-0.30867-0.06068-0.62071-0.09471-0.93164-0.13867-0.25679-0.03651-0.51062-0.0862-0.76953-0.11133-0.56319-0.0544-1.128-0.08394-1.6934-0.08398zm-387.45 255.62c-9.62 0-17.459 7.7663-17.535 17.404l-1.1699 133.12c-1.22e-4 0.0164 2e-3 0.0325 2e-3 0.0488-0.0025 0.51395 0.02395 1.0285 0.06641 1.541 0.0046 0.0557 0.0026 0.11233 0.0078 0.16797 0.31299 3.3855 1.6059 6.695 3.8809 9.4727 0.3666 0.44761 0.75628 0.88287 1.1738 1.3008h2e-3c0.20731 0.20728 0.42966 0.38925 0.64453 0.58398 0.21795 0.19755 0.42764 0.40626 0.6543 0.5918 0.29789 0.24417 0.61028 0.46004 0.91992 0.68164 0.15919 0.11373 0.31004 0.23952 0.47266 0.34766 0.37454 0.24954 0.76185 0.46983 1.1504 0.6875 0.10897 0.061 0.21208 0.1328 0.32227 0.1914 0.38726 0.20616 0.78506 0.38353 1.1836 0.5586 0.12552 0.0552 0.24628 0.12161 0.37305 0.17382 0.36908 0.15187 0.74642 0.27673 1.123 0.40235 0.16645 0.0556 0.32796 0.12318 0.49609 0.17383 0.46956 0.14111 0.94417 0.25454 1.4219 0.35547 0.07285 0.0154 0.14372 0.0382 0.2168 0.0527 0.4682 0.0927 0.94102 0.15666 1.4141 0.21094 0.09821 0.0113 0.19446 0.0313 0.29297 0.041 0.57076 0.0558 1.6783-0.48578 1.7168 0.0859h0.13477l133.13-1.1699c9.685-0.07 17.476-7.9831 17.4-17.662-0.076-9.69-8.1259-17.387-17.67-17.404l-90.338 0.83996 116.87-116.87c6.844-6.844 6.85-17.943 0-24.793s-17.955-6.85-24.799 0l-116.87 116.86 0.84375-90.344c0.076-9.679-7.7154-17.586-17.4-17.662z"/>
</svg>
