<?xml version="1.0" encoding="iso-8859-1"?>
<!-- Generator: Adobe Illustrator 19.0.0, SVG Export Plug-In . SVG Version: 6.00 Build 0)  -->
<svg version="1.1" id="Capa_1" xmlns="http://www.w3.org/2000/svg" xmlns:xlink="http://www.w3.org/1999/xlink" x="0px" y="0px"
	 viewBox="0 0 512 512" style="enable-background:new 0 0 512 512;" xml:space="preserve">
<g>
	<g>
		<path d="M502.772,13.32c-6.85-6.85-17.943-6.85-24.793,0L324.846,166.453c-6.85,6.844-6.85,17.949,0,24.793
			c3.425,3.425,7.908,5.138,12.397,5.138c4.483,0,8.972-1.713,12.397-5.138L502.772,38.114
			C509.622,31.269,509.622,20.164,502.772,13.32z"/>
	</g>
</g>
<g>
	<g>
		<path d="M502.772,13.32c-3.285-3.291-7.75-5.138-12.397-5.138c-0.041,0-0.088,0-0.129,0L337.114,9.352
			c-9.691,0.076-17.482,7.984-17.406,17.669c0.076,9.638,7.914,17.4,17.534,17.4c0.035,0,0.082,0,0.129,0l135.335-1.035
			l-1.035,135.329c-0.07,9.685,7.721,17.593,17.406,17.669c0.041,0,0.082,0,0.129,0c9.62,0,17.458-7.762,17.534-17.4l1.169-153.132
			C507.944,21.152,506.092,16.64,502.772,13.32z"/>
	</g>
</g>
<g>
	<g>
		<path d="M502.772,482.069L349.639,328.943c-6.85-6.85-17.943-6.85-24.793,0c-6.85,6.85-6.85,17.949,0,24.793l153.132,153.127
			c3.425,3.425,7.908,5.138,12.397,5.138c4.483,0,8.972-1.713,12.397-5.138C509.622,500.012,509.622,488.913,502.772,482.069z"/>
	</g>
</g>
<g>
	<g>
		<path d="M506.74,341.211c-0.07-9.685-7.914-17.283-17.663-17.406c-9.691,0.07-17.482,7.984-17.406,17.663l1.029,135.329
			l-135.329-1.029c-0.041,0-0.088,0-0.129,0c-9.62,0-17.458,7.768-17.534,17.406c-0.07,9.679,7.721,17.587,17.406,17.663
			L490.246,512c0.035,0,0.082,0,0.129,0c4.647,0,9.106-1.847,12.397-5.132c3.32-3.326,5.173-7.838,5.138-12.531L506.74,341.211z"/>
	</g>
</g>
<g>
	<g>
		<path d="M190.662,158.27L37.535,5.138c-6.85-6.844-17.955-6.85-24.799,0c-6.85,6.844-6.85,17.949,0,24.793l153.127,153.132
			c3.425,3.425,7.914,5.138,12.403,5.138c4.483,0,8.972-1.713,12.397-5.138C197.512,176.219,197.512,165.114,190.662,158.27z"/>
	</g>
</g>
<g>
	<g>
		<path d="M178.4,1.169L25.267,0c-0.047,0-0.088,0-0.134,0c-4.652,0-9.112,1.847-12.397,5.138c-3.326,3.32-5.173,7.832-5.143,12.531
			l1.169,153.132c0.076,9.638,7.914,17.4,17.534,17.4c0.047,0,0.094,0,0.14,0c9.685-0.076,17.476-7.984,17.4-17.669L42.802,35.203
			l135.329,1.034c0.041,0,0.088,0,0.134,0c9.62,0,17.458-7.762,17.534-17.4C195.876,9.153,188.085,1.245,178.4,1.169z"/>
	</g>
</g>
<g>
	<g>
		<path d="M187.155,328.943c-6.85-6.85-17.955-6.85-24.799,0L9.223,482.069c-6.844,6.844-6.844,17.943,0,24.793
			c3.425,3.425,7.914,5.138,12.403,5.138c4.483,0,8.972-1.713,12.397-5.137l153.132-153.127
			C193.999,346.892,194.005,335.793,187.155,328.943z"/>
	</g>
</g>
<g>
	<g>
		<path d="M174.624,475.763l-135.329,1.029l1.035-135.329c0.076-9.679-7.715-17.587-17.4-17.663c-0.041,0-0.088,0-0.134,0
			c-9.62,0-17.458,7.768-17.534,17.406L4.092,494.331c-0.035,4.693,1.812,9.205,5.132,12.531c3.291,3.296,7.756,5.138,12.403,5.138
			c0.041,0,0.088,0,0.134,0l153.132-1.169c9.685-0.07,17.476-7.984,17.4-17.663C192.217,483.478,184.168,475.78,174.624,475.763z"/>
	</g>
</g>
</svg>
