<?xml version="1.0" encoding="iso-8859-1"?>
<!-- Generator: Adobe Illustrator 19.0.0, SVG Export Plug-In . SVG Version: 6.00 Build 0)  -->
<svg version="1.1" id="Capa_1" xmlns="http://www.w3.org/2000/svg" xmlns:xlink="http://www.w3.org/1999/xlink" x="0px" y="0px"
	 viewBox="0 0 512 512" style="enable-background:new 0 0 512 512;" xml:space="preserve">
<g>
	<g>
		<path d="M47.059,256l61.907-61.369c7.622-7.563,7.68-19.871,0.117-27.499c-7.563-7.628-19.877-7.68-27.499-0.117l-75.828,75.18
			C2.074,245.844,0,250.815,0,256s2.074,10.156,5.755,13.811l75.828,75.18c3.791,3.753,8.736,5.632,13.688,5.632
			c5.003,0,10.007-1.918,13.805-5.755c7.563-7.628,7.505-19.936-0.117-27.499L47.059,256z"/>
	</g>
</g>
<g>
	<g>
		<path d="M344.991,81.583l-75.18-75.828C266.156,2.074,261.185,0,256,0s-10.156,2.074-13.811,5.749l-75.18,75.828
			c-7.563,7.628-7.505,19.936,0.117,27.499c7.628,7.557,19.942,7.505,27.499-0.117L256,47.059l61.369,61.9
			c3.804,3.837,8.808,5.755,13.811,5.755c4.945,0,9.896-1.873,13.688-5.632C352.496,101.519,352.548,89.211,344.991,81.583z"/>
	</g>
</g>
<g>
	<g>
		<path d="M344.874,402.918c-7.635-7.557-19.942-7.505-27.499,0.123l-61.369,61.907l-61.375-61.907
			c-7.557-7.635-19.871-7.667-27.499-0.123c-7.622,7.563-7.68,19.871-0.117,27.499l75.18,75.828
			c3.649,3.688,8.62,5.755,13.805,5.755s10.156-2.067,13.818-5.755l75.18-75.828C352.554,422.789,352.502,410.481,344.874,402.918z"
			/>
	</g>
</g>
<g>
	<g>
		<path d="M506.245,242.189l-75.828-75.18c-7.635-7.563-19.942-7.505-27.499,0.117c-7.557,7.628-7.505,19.936,0.123,27.499
			L464.948,256l-61.907,61.369c-7.628,7.563-7.68,19.871-0.123,27.499c3.804,3.837,8.808,5.755,13.811,5.755
			c4.945,0,9.897-1.88,13.688-5.632l75.828-75.18C509.933,266.156,512,261.185,512,256S509.933,245.844,506.245,242.189z"/>
	</g>
</g>
<g>
	<g>
		<path d="M492.557,236.557H19.443C8.704,236.557,0,245.261,0,256c0,10.739,8.704,19.443,19.443,19.443h473.114
			c10.739,0,19.443-8.704,19.443-19.443C512,245.261,503.296,236.557,492.557,236.557z"/>
	</g>
</g>
<g>
	<g>
		<path d="M256,0c-10.739,0-19.443,8.704-19.443,19.443v473.114c0,10.739,8.704,19.443,19.443,19.443
			c10.739,0,19.443-8.704,19.443-19.443V19.443C275.443,8.704,266.739,0,256,0z"/>
	</g>
</g>
</svg>
