<?xml version="1.0" encoding="UTF-8" standalone="no"?>
<!DOCTYPE svg PUBLIC "-//W3C//DTD SVG 1.1//EN" "http://www.w3.org/Graphics/SVG/1.1/DTD/svg11.dtd">
<svg width="100%" height="100%" viewBox="0 0 500 400" version="1.1" xmlns="http://www.w3.org/2000/svg" xmlns:xlink="http://www.w3.org/1999/xlink" xml:space="preserve" xmlns:serif="http://www.serif.com/" style="fill-rule:evenodd;clip-rule:evenodd;stroke-linecap:round;stroke-linejoin:round;stroke-miterlimit:1.5;">
    <g transform="matrix(1,0,0,1,-68.9446,-4.67287)">
        <rect x="177.014" y="150.396" width="25.333" height="25.333" style="stroke:black;stroke-width:1px;"/>
    </g>
    <g transform="matrix(1,0,0,1,-68.9446,96.6592)">
        <rect x="177.014" y="150.396" width="25.333" height="25.333" style="fill:rgb(0,146,0);stroke:black;stroke-width:1px;"/>
    </g>
    <g transform="matrix(1,0,0,1,-68.9446,45.9931)">
        <rect x="177.014" y="150.396" width="25.333" height="25.333" style="fill:rgb(0,73,0);stroke:black;stroke-width:1px;"/>
    </g>
    <g transform="matrix(1,0,0,1,-68.9446,147.325)">
        <rect x="177.014" y="150.396" width="25.333" height="25.333" style="fill:rgb(0,219,0);stroke:black;stroke-width:1px;"/>
    </g>
    <g transform="matrix(1,0,0,1,-68.9446,20.6601)">
        <rect x="177.014" y="150.396" width="25.333" height="25.333" style="fill:rgb(0,36,0);stroke:black;stroke-width:1px;"/>
    </g>
    <g transform="matrix(1,0,0,1,-68.9446,121.992)">
        <rect x="177.014" y="150.396" width="25.333" height="25.333" style="fill:rgb(0,182,0);stroke:black;stroke-width:1px;"/>
    </g>
    <g transform="matrix(1,0,0,1,-68.9446,71.3262)">
        <rect x="177.014" y="150.396" width="25.333" height="25.333" style="fill:rgb(0,109,0);stroke:black;stroke-width:1px;"/>
    </g>
    <g transform="matrix(1,0,0,1,-68.9446,172.658)">
        <rect x="177.014" y="150.396" width="25.333" height="25.333" style="fill:rgb(0,255,0);stroke:black;stroke-width:1px;"/>
    </g>
    <g transform="matrix(1,0,0,1,32.3875,-4.67287)">
        <rect x="177.014" y="150.396" width="25.333" height="25.333" style="fill:rgb(145,0,0);stroke:black;stroke-width:1px;"/>
    </g>
    <g transform="matrix(1,0,0,1,32.3875,96.6592)">
        <rect x="177.014" y="150.396" width="25.333" height="25.333" style="fill:rgb(235,235,235);stroke:black;stroke-width:1px;"/>
    </g>
    <g transform="matrix(1,0,0,1,32.3875,45.9931)">
        <rect x="177.014" y="150.396" width="25.333" height="25.333" style="fill:rgb(235,235,235);stroke:black;stroke-width:1px;"/>
    </g>
    <g transform="matrix(1,0,0,1,32.3875,147.325)">
        <rect x="177.014" y="150.396" width="25.333" height="25.333" style="fill:rgb(235,235,235);stroke:black;stroke-width:1px;"/>
    </g>
    <g transform="matrix(1,0,0,1,32.3875,20.6601)">
        <rect x="177.014" y="150.396" width="25.333" height="25.333" style="fill:rgb(235,235,235);stroke:black;stroke-width:1px;"/>
    </g>
    <g transform="matrix(1,0,0,1,32.3875,121.992)">
        <rect x="177.014" y="150.396" width="25.333" height="25.333" style="fill:rgb(235,235,235);stroke:black;stroke-width:1px;"/>
    </g>
    <g transform="matrix(1,0,0,1,32.3875,71.3262)">
        <rect x="177.014" y="150.396" width="25.333" height="25.333" style="fill:rgb(235,235,235);stroke:black;stroke-width:1px;"/>
    </g>
    <g transform="matrix(1,0,0,1,32.3875,172.658)">
        <rect x="177.014" y="150.396" width="25.333" height="25.333" style="fill:rgb(145,255,0);stroke:black;stroke-width:1px;"/>
    </g>
    <g transform="matrix(1,0,0,1,-18.2786,-4.67287)">
        <rect x="177.014" y="150.396" width="25.333" height="25.333" style="fill:rgb(73,0,0);stroke:black;stroke-width:1px;"/>
    </g>
    <g transform="matrix(1,0,0,1,-18.2786,96.6592)">
        <rect x="177.014" y="150.396" width="25.333" height="25.333" style="fill:rgb(235,235,235);stroke:black;stroke-width:1px;"/>
    </g>
    <g transform="matrix(1,0,0,1,-18.2786,45.9931)">
        <rect x="177.014" y="150.396" width="25.333" height="25.333" style="fill:rgb(235,235,235);stroke:black;stroke-width:1px;"/>
    </g>
    <g transform="matrix(1,0,0,1,-18.2786,147.325)">
        <rect x="177.014" y="150.396" width="25.333" height="25.333" style="fill:rgb(235,235,235);stroke:black;stroke-width:1px;"/>
    </g>
    <g transform="matrix(1,0,0,1,-18.2786,20.6601)">
        <rect x="177.014" y="150.396" width="25.333" height="25.333" style="fill:rgb(235,235,235);stroke:black;stroke-width:1px;"/>
    </g>
    <g transform="matrix(1,0,0,1,-18.2786,121.992)">
        <rect x="177.014" y="150.396" width="25.333" height="25.333" style="fill:rgb(235,235,235);stroke:black;stroke-width:1px;"/>
    </g>
    <g transform="matrix(1,0,0,1,-18.2786,71.3262)">
        <rect x="177.014" y="150.396" width="25.333" height="25.333" style="fill:rgb(235,235,235);stroke:black;stroke-width:1px;"/>
    </g>
    <g transform="matrix(1,0,0,1,-18.2786,172.658)">
        <rect x="177.014" y="150.396" width="25.333" height="25.333" style="fill:rgb(73,255,0);stroke:black;stroke-width:1px;"/>
    </g>
    <g transform="matrix(1,0,0,1,83.0535,-4.67287)">
        <rect x="177.014" y="150.396" width="25.333" height="25.333" style="fill:rgb(218,0,0);stroke:black;stroke-width:1px;"/>
    </g>
    <g transform="matrix(1,0,0,1,83.0535,96.6592)">
        <rect x="177.014" y="150.396" width="25.333" height="25.333" style="fill:rgb(235,235,235);stroke:black;stroke-width:1px;"/>
    </g>
    <g transform="matrix(1,0,0,1,83.0535,45.9931)">
        <rect x="177.014" y="150.396" width="25.333" height="25.333" style="fill:rgb(235,235,235);stroke:black;stroke-width:1px;"/>
    </g>
    <g transform="matrix(1,0,0,1,83.0535,147.325)">
        <rect x="177.014" y="150.396" width="25.333" height="25.333" style="fill:rgb(235,235,235);stroke:black;stroke-width:1px;"/>
    </g>
    <g transform="matrix(1,0,0,1,83.0535,20.6601)">
        <rect x="177.014" y="150.396" width="25.333" height="25.333" style="fill:rgb(235,235,235);stroke:black;stroke-width:1px;"/>
    </g>
    <g transform="matrix(1,0,0,1,83.0535,121.992)">
        <rect x="177.014" y="150.396" width="25.333" height="25.333" style="fill:rgb(235,235,235);stroke:black;stroke-width:1px;"/>
    </g>
    <g transform="matrix(1,0,0,1,83.0535,71.3262)">
        <rect x="177.014" y="150.396" width="25.333" height="25.333" style="fill:rgb(235,235,235);stroke:black;stroke-width:1px;"/>
    </g>
    <g transform="matrix(1,0,0,1,83.0535,172.658)">
        <rect x="177.014" y="150.396" width="25.333" height="25.333" style="fill:rgb(218,255,0);stroke:black;stroke-width:1px;"/>
    </g>
    <g transform="matrix(1,0,0,1,-43.6116,-4.67287)">
        <rect x="177.014" y="150.396" width="25.333" height="25.333" style="fill:rgb(36,0,0);stroke:black;stroke-width:1px;"/>
    </g>
    <g transform="matrix(1,0,0,1,-43.6116,96.6592)">
        <rect x="177.014" y="150.396" width="25.333" height="25.333" style="fill:rgb(235,235,235);stroke:black;stroke-width:1px;"/>
    </g>
    <g transform="matrix(1,0,0,1,-43.6116,45.9931)">
        <rect x="177.014" y="150.396" width="25.333" height="25.333" style="fill:rgb(235,235,235);stroke:black;stroke-width:1px;"/>
    </g>
    <g transform="matrix(1,0,0,1,-43.6116,147.325)">
        <rect x="177.014" y="150.396" width="25.333" height="25.333" style="fill:rgb(235,235,235);stroke:black;stroke-width:1px;"/>
    </g>
    <g transform="matrix(1,0,0,1,-43.6116,20.6601)">
        <rect x="177.014" y="150.396" width="25.333" height="25.333" style="fill:rgb(235,235,235);stroke:black;stroke-width:1px;"/>
    </g>
    <g transform="matrix(1,0,0,1,-43.6116,121.992)">
        <rect x="177.014" y="150.396" width="25.333" height="25.333" style="fill:rgb(235,235,235);stroke:black;stroke-width:1px;"/>
    </g>
    <g transform="matrix(1,0,0,1,-43.6116,71.3262)">
        <rect x="177.014" y="150.396" width="25.333" height="25.333" style="fill:rgb(235,235,235);stroke:black;stroke-width:1px;"/>
    </g>
    <g transform="matrix(1,0,0,1,-43.6116,172.658)">
        <rect x="177.014" y="150.396" width="25.333" height="25.333" style="fill:rgb(36,255,0);stroke:black;stroke-width:1px;"/>
    </g>
    <g transform="matrix(1,0,0,1,57.7205,-4.67287)">
        <rect x="177.014" y="150.396" width="25.333" height="25.333" style="fill:rgb(182,0,0);stroke:black;stroke-width:1px;"/>
    </g>
    <g transform="matrix(1,0,0,1,57.7205,96.6592)">
        <rect x="177.014" y="150.396" width="25.333" height="25.333" style="fill:rgb(235,235,235);stroke:black;stroke-width:1px;"/>
    </g>
    <g transform="matrix(1,0,0,1,57.7205,45.9931)">
        <rect x="177.014" y="150.396" width="25.333" height="25.333" style="fill:rgb(235,235,235);stroke:black;stroke-width:1px;"/>
    </g>
    <g transform="matrix(1,0,0,1,57.7205,147.325)">
        <rect x="177.014" y="150.396" width="25.333" height="25.333" style="fill:rgb(235,235,235);stroke:black;stroke-width:1px;"/>
    </g>
    <g transform="matrix(1,0,0,1,57.7205,20.6601)">
        <rect x="177.014" y="150.396" width="25.333" height="25.333" style="fill:rgb(235,235,235);stroke:black;stroke-width:1px;"/>
    </g>
    <g transform="matrix(1,0,0,1,57.7205,121.992)">
        <rect x="177.014" y="150.396" width="25.333" height="25.333" style="fill:rgb(235,235,235);stroke:black;stroke-width:1px;"/>
    </g>
    <g transform="matrix(1,0,0,1,57.7205,71.3262)">
        <rect x="177.014" y="150.396" width="25.333" height="25.333" style="fill:rgb(235,235,235);stroke:black;stroke-width:1px;"/>
    </g>
    <g transform="matrix(1,0,0,1,57.7205,172.658)">
        <rect x="177.014" y="150.396" width="25.333" height="25.333" style="fill:rgb(182,255,0);stroke:black;stroke-width:1px;"/>
    </g>
    <g transform="matrix(1,0,0,1,7.05444,-4.67287)">
        <rect x="177.014" y="150.396" width="25.333" height="25.333" style="fill:rgb(109,0,0);stroke:black;stroke-width:1px;"/>
    </g>
    <g transform="matrix(1,0,0,1,7.05444,96.6592)">
        <rect x="177.014" y="150.396" width="25.333" height="25.333" style="fill:rgb(235,235,235);stroke:black;stroke-width:1px;"/>
    </g>
    <g transform="matrix(1,0,0,1,7.05444,45.9931)">
        <rect x="177.014" y="150.396" width="25.333" height="25.333" style="fill:rgb(235,235,235);stroke:black;stroke-width:1px;"/>
    </g>
    <g transform="matrix(1,0,0,1,7.05444,147.325)">
        <rect x="177.014" y="150.396" width="25.333" height="25.333" style="fill:rgb(235,235,235);stroke:black;stroke-width:1px;"/>
    </g>
    <g transform="matrix(1,0,0,1,7.05444,20.6601)">
        <rect x="177.014" y="150.396" width="25.333" height="25.333" style="fill:rgb(235,235,235);stroke:black;stroke-width:1px;"/>
    </g>
    <g transform="matrix(1,0,0,1,7.05444,121.992)">
        <rect x="177.014" y="150.396" width="25.333" height="25.333" style="fill:rgb(235,235,235);stroke:black;stroke-width:1px;"/>
    </g>
    <g transform="matrix(1,0,0,1,7.05444,71.3262)">
        <rect x="177.014" y="150.396" width="25.333" height="25.333" style="fill:rgb(235,235,235);stroke:black;stroke-width:1px;"/>
    </g>
    <g transform="matrix(1,0,0,1,7.05444,172.658)">
        <rect x="177.014" y="150.396" width="25.333" height="25.333" style="fill:rgb(109,255,0);stroke:black;stroke-width:1px;"/>
    </g>
    <g transform="matrix(1,0,0,1,108.386,-4.67287)">
        <rect x="177.014" y="150.396" width="25.333" height="25.333" style="fill:rgb(255,0,13);stroke:black;stroke-width:1px;"/>
    </g>
    <g transform="matrix(1,0,0,1,108.386,96.6592)">
        <rect x="177.014" y="150.396" width="25.333" height="25.333" style="fill:rgb(255,145,0);stroke:black;stroke-width:1px;"/>
    </g>
    <g transform="matrix(1,0,0,1,108.386,45.9931)">
        <rect x="177.014" y="150.396" width="25.333" height="25.333" style="fill:rgb(255,72,0);stroke:black;stroke-width:1px;"/>
    </g>
    <g transform="matrix(1,0,0,1,108.386,147.325)">
        <rect x="177.014" y="150.396" width="25.333" height="25.333" style="fill:rgb(255,218,0);stroke:black;stroke-width:1px;"/>
    </g>
    <g transform="matrix(1,0,0,1,108.386,20.6601)">
        <rect x="177.014" y="150.396" width="25.333" height="25.333" style="fill:rgb(255,36,0);stroke:black;stroke-width:1px;"/>
    </g>
    <g transform="matrix(1,0,0,1,108.386,121.992)">
        <rect x="177.014" y="150.396" width="25.333" height="25.333" style="fill:rgb(255,182,0);stroke:black;stroke-width:1px;"/>
    </g>
    <g transform="matrix(1,0,0,1,108.386,71.3262)">
        <rect x="177.014" y="150.396" width="25.333" height="25.333" style="fill:rgb(255,109,0);stroke:black;stroke-width:1px;"/>
    </g>
    <g transform="matrix(1,0,0,1,108.386,172.658)">
        <rect x="177.014" y="150.396" width="25.333" height="25.333" style="fill:rgb(255,255,0);stroke:black;stroke-width:1px;"/>
    </g>
    <g transform="matrix(1,0,0.384374,0.665756,-137.093,28.6404)">
        <path d="M227.68,158.076L202.347,158.076L177.014,175.729L202.347,175.729L227.68,158.076Z" style="stroke:black;stroke-width:0.92px;"/>
    </g>
    <g transform="matrix(1,0,0.384374,0.665756,-62.9027,-18.37)">
        <path d="M227.68,158.076L202.347,158.076L177.014,175.729L202.347,175.729L227.68,158.076Z" style="fill:rgb(0,0,146);stroke:black;stroke-width:0.92px;"/>
    </g>
    <g transform="matrix(1,0,0.384374,0.665756,-99.998,5.13517)">
        <path d="M227.68,158.076L202.347,158.076L177.014,175.729L202.347,175.729L227.68,158.076Z" style="fill:rgb(0,0,73);stroke:black;stroke-width:0.92px;"/>
    </g>
    <g transform="matrix(1,0,0.384374,0.665756,-25.8074,-41.8752)">
        <path d="M227.68,158.076L202.347,158.076L177.014,175.729L202.347,175.729L227.68,158.076Z" style="fill:rgb(0,0,219);stroke:black;stroke-width:0.92px;"/>
    </g>
    <g transform="matrix(1,0,0.384374,0.665756,-118.546,16.8878)">
        <path d="M227.68,158.076L202.347,158.076L177.014,175.729L202.347,175.729L227.68,158.076Z" style="fill:rgb(0,0,36);stroke:black;stroke-width:0.92px;"/>
    </g>
    <g transform="matrix(1,0,0.384374,0.665756,-44.355,-30.1226)">
        <path d="M227.68,158.076L202.347,158.076L177.014,175.729L202.347,175.729L227.68,158.076Z" style="fill:rgb(0,0,182);stroke:black;stroke-width:0.92px;"/>
    </g>
    <g transform="matrix(1,0,0.384374,0.665756,-81.4503,-6.61743)">
        <path d="M227.68,158.076L202.347,158.076L177.014,175.729L202.347,175.729L227.68,158.076Z" style="fill:rgb(0,0,109);stroke:black;stroke-width:0.92px;"/>
    </g>
    <g transform="matrix(1,0,0.384374,0.665756,-7.25973,-53.6278)">
        <path d="M227.68,158.076L202.347,158.076L177.014,175.729L202.347,175.729L227.68,158.076Z" style="fill:rgb(0,0,255);stroke:black;stroke-width:0.92px;"/>
    </g>
    <g transform="matrix(1,0,0.384374,0.665756,-35.7612,28.6404)">
        <path d="M227.68,158.076L202.347,158.076L177.014,175.729L202.347,175.729L227.68,158.076Z" style="fill:rgb(145,0,0);stroke:black;stroke-width:0.92px;"/>
    </g>
    <g transform="matrix(1,0,0.384374,0.665756,38.4294,-18.37)">
        <path d="M227.68,158.076L202.347,158.076L177.014,175.729L202.347,175.729L227.68,158.076Z" style="fill:rgb(235,235,235);stroke:black;stroke-width:0.92px;"/>
    </g>
    <g transform="matrix(1,0,0.384374,0.665756,1.33409,5.13517)">
        <path d="M227.68,158.076L202.347,158.076L177.014,175.729L202.347,175.729L227.68,158.076Z" style="fill:rgb(235,235,235);stroke:black;stroke-width:0.92px;"/>
    </g>
    <g transform="matrix(1,0,0.384374,0.665756,75.5247,-41.8752)">
        <path d="M227.68,158.076L202.347,158.076L177.014,175.729L202.347,175.729L227.68,158.076Z" style="fill:rgb(235,235,235);stroke:black;stroke-width:0.92px;"/>
    </g>
    <g transform="matrix(1,0,0.384374,0.665756,-17.2136,16.8878)">
        <path d="M227.68,158.076L202.347,158.076L177.014,175.729L202.347,175.729L227.68,158.076Z" style="fill:rgb(235,235,235);stroke:black;stroke-width:0.92px;"/>
    </g>
    <g transform="matrix(1,0,0.384374,0.665756,56.977,-30.1226)">
        <path d="M227.68,158.076L202.347,158.076L177.014,175.729L202.347,175.729L227.68,158.076Z" style="fill:rgb(235,235,235);stroke:black;stroke-width:0.92px;"/>
    </g>
    <g transform="matrix(1,0,0.384374,0.665756,19.8817,-6.61743)">
        <path d="M227.68,158.076L202.347,158.076L177.014,175.729L202.347,175.729L227.68,158.076Z" style="fill:rgb(235,235,235);stroke:black;stroke-width:0.92px;"/>
    </g>
    <g transform="matrix(1,0,0.384374,0.665756,94.0723,-53.6278)">
        <path d="M227.68,158.076L202.347,158.076L177.014,175.729L202.347,175.729L227.68,158.076Z" style="fill:rgb(145,0,255);stroke:black;stroke-width:0.92px;"/>
    </g>
    <g transform="matrix(1,0,0.384374,0.665756,-86.4272,28.6404)">
        <path d="M227.68,158.076L202.347,158.076L177.014,175.729L202.347,175.729L227.68,158.076Z" style="fill:rgb(73,0,0);stroke:black;stroke-width:0.92px;"/>
    </g>
    <g transform="matrix(1,0,0.384374,0.665756,-12.2366,-18.37)">
        <path d="M227.68,158.076L202.347,158.076L177.014,175.729L202.347,175.729L227.68,158.076Z" style="fill:rgb(235,235,235);stroke:black;stroke-width:0.92px;"/>
    </g>
    <g transform="matrix(1,0,0.384374,0.665756,-49.3319,5.13517)">
        <path d="M227.68,158.076L202.347,158.076L177.014,175.729L202.347,175.729L227.68,158.076Z" style="fill:rgb(235,235,235);stroke:black;stroke-width:0.92px;"/>
    </g>
    <g transform="matrix(1,0,0.384374,0.665756,24.8586,-41.8752)">
        <path d="M227.68,158.076L202.347,158.076L177.014,175.729L202.347,175.729L227.68,158.076Z" style="fill:rgb(235,235,235);stroke:black;stroke-width:0.92px;"/>
    </g>
    <g transform="matrix(1,0,0.384374,0.665756,-67.8796,16.8878)">
        <path d="M227.68,158.076L202.347,158.076L177.014,175.729L202.347,175.729L227.68,158.076Z" style="fill:rgb(235,235,235);stroke:black;stroke-width:0.92px;"/>
    </g>
    <g transform="matrix(1,0,0.384374,0.665756,6.311,-30.1226)">
        <path d="M227.68,158.076L202.347,158.076L177.014,175.729L202.347,175.729L227.68,158.076Z" style="fill:rgb(235,235,235);stroke:black;stroke-width:0.92px;"/>
    </g>
    <g transform="matrix(1,0,0.384374,0.665756,-30.7843,-6.61743)">
        <path d="M227.68,158.076L202.347,158.076L177.014,175.729L202.347,175.729L227.68,158.076Z" style="fill:rgb(235,235,235);stroke:black;stroke-width:0.92px;"/>
    </g>
    <g transform="matrix(1,0,0.384374,0.665756,43.4063,-53.6278)">
        <path d="M227.68,158.076L202.347,158.076L177.014,175.729L202.347,175.729L227.68,158.076Z" style="fill:rgb(73,0,255);stroke:black;stroke-width:0.92px;"/>
    </g>
    <g transform="matrix(1,0,0.384374,0.665756,14.9048,28.6404)">
        <path d="M227.68,158.076L202.347,158.076L177.014,175.729L202.347,175.729L227.68,158.076Z" style="fill:rgb(218,0,0);stroke:black;stroke-width:0.92px;"/>
    </g>
    <g transform="matrix(1,0,0.384374,0.665756,89.0954,-18.37)">
        <path d="M227.68,158.076L202.347,158.076L177.014,175.729L202.347,175.729L227.68,158.076Z" style="fill:rgb(235,235,235);stroke:black;stroke-width:0.92px;"/>
    </g>
    <g transform="matrix(1,0,0.384374,0.665756,52.0001,5.13517)">
        <path d="M227.68,158.076L202.347,158.076L177.014,175.729L202.347,175.729L227.68,158.076Z" style="fill:rgb(235,235,235);stroke:black;stroke-width:0.92px;"/>
    </g>
    <g transform="matrix(1,0,0.384374,0.665756,126.191,-41.8752)">
        <path d="M227.68,158.076L202.347,158.076L177.014,175.729L202.347,175.729L227.68,158.076Z" style="fill:rgb(235,235,235);stroke:black;stroke-width:0.92px;"/>
    </g>
    <g transform="matrix(1,0,0.384374,0.665756,33.4525,16.8878)">
        <path d="M227.68,158.076L202.347,158.076L177.014,175.729L202.347,175.729L227.68,158.076Z" style="fill:rgb(235,235,235);stroke:black;stroke-width:0.92px;"/>
    </g>
    <g transform="matrix(1,0,0.384374,0.665756,107.643,-30.1226)">
        <path d="M227.68,158.076L202.347,158.076L177.014,175.729L202.347,175.729L227.68,158.076Z" style="fill:rgb(235,235,235);stroke:black;stroke-width:0.92px;"/>
    </g>
    <g transform="matrix(1,0,0.384374,0.665756,70.5478,-6.61743)">
        <path d="M227.68,158.076L202.347,158.076L177.014,175.729L202.347,175.729L227.68,158.076Z" style="fill:rgb(235,235,235);stroke:black;stroke-width:0.92px;"/>
    </g>
    <g transform="matrix(1,0,0.384374,0.665756,144.738,-53.6278)">
        <path d="M227.68,158.076L202.347,158.076L177.014,175.729L202.347,175.729L227.68,158.076Z" style="fill:rgb(218,0,255);stroke:black;stroke-width:0.92px;"/>
    </g>
    <g transform="matrix(1,0,0.384374,0.665756,-111.76,28.6404)">
        <path d="M227.68,158.076L202.347,158.076L177.014,175.729L202.347,175.729L227.68,158.076Z" style="fill:rgb(36,0,0);stroke:black;stroke-width:0.92px;"/>
    </g>
    <g transform="matrix(1,0,0.384374,0.665756,-37.5697,-18.37)">
        <path d="M227.68,158.076L202.347,158.076L177.014,175.729L202.347,175.729L227.68,158.076Z" style="fill:rgb(235,235,235);stroke:black;stroke-width:0.92px;"/>
    </g>
    <g transform="matrix(1,0,0.384374,0.665756,-74.6649,5.13517)">
        <path d="M227.68,158.076L202.347,158.076L177.014,175.729L202.347,175.729L227.68,158.076Z" style="fill:rgb(235,235,235);stroke:black;stroke-width:0.92px;"/>
    </g>
    <g transform="matrix(1,0,0.384374,0.665756,-0.474363,-41.8752)">
        <path d="M227.68,158.076L202.347,158.076L177.014,175.729L202.347,175.729L227.68,158.076Z" style="fill:rgb(235,235,235);stroke:black;stroke-width:0.92px;"/>
    </g>
    <g transform="matrix(1,0,0.384374,0.665756,-93.2126,16.8878)">
        <path d="M227.68,158.076L202.347,158.076L177.014,175.729L202.347,175.729L227.68,158.076Z" style="fill:rgb(235,235,235);stroke:black;stroke-width:0.92px;"/>
    </g>
    <g transform="matrix(1,0,0.384374,0.665756,-19.022,-30.1226)">
        <path d="M227.68,158.076L202.347,158.076L177.014,175.729L202.347,175.729L227.68,158.076Z" style="fill:rgb(235,235,235);stroke:black;stroke-width:0.92px;"/>
    </g>
    <g transform="matrix(1,0,0.384374,0.665756,-56.1173,-6.61743)">
        <path d="M227.68,158.076L202.347,158.076L177.014,175.729L202.347,175.729L227.68,158.076Z" style="fill:rgb(235,235,235);stroke:black;stroke-width:0.92px;"/>
    </g>
    <g transform="matrix(1,0,0.384374,0.665756,18.0733,-53.6278)">
        <path d="M227.68,158.076L202.347,158.076L177.014,175.729L202.347,175.729L227.68,158.076Z" style="fill:rgb(36,0,255);stroke:black;stroke-width:0.92px;"/>
    </g>
    <g transform="matrix(1,0,0.384374,0.665756,-10.4282,28.6404)">
        <path d="M227.68,158.076L202.347,158.076L177.014,175.729L202.347,175.729L227.68,158.076Z" style="fill:rgb(182,0,0);stroke:black;stroke-width:0.92px;"/>
    </g>
    <g transform="matrix(1,0,0.384374,0.665756,63.7624,-18.37)">
        <path d="M227.68,158.076L202.347,158.076L177.014,175.729L202.347,175.729L227.68,158.076Z" style="fill:rgb(235,235,235);stroke:black;stroke-width:0.92px;"/>
    </g>
    <g transform="matrix(1,0,0.384374,0.665756,26.6671,5.13517)">
        <path d="M227.68,158.076L202.347,158.076L177.014,175.729L202.347,175.729L227.68,158.076Z" style="fill:rgb(235,235,235);stroke:black;stroke-width:0.92px;"/>
    </g>
    <g transform="matrix(1,0,0.384374,0.665756,100.858,-41.8752)">
        <path d="M227.68,158.076L202.347,158.076L177.014,175.729L202.347,175.729L227.68,158.076Z" style="fill:rgb(235,235,235);stroke:black;stroke-width:0.92px;"/>
    </g>
    <g transform="matrix(1,0,0.384374,0.665756,8.11946,16.8878)">
        <path d="M227.68,158.076L202.347,158.076L177.014,175.729L202.347,175.729L227.68,158.076Z" style="fill:rgb(235,235,235);stroke:black;stroke-width:0.92px;"/>
    </g>
    <g transform="matrix(1,0,0.384374,0.665756,82.31,-30.1226)">
        <path d="M227.68,158.076L202.347,158.076L177.014,175.729L202.347,175.729L227.68,158.076Z" style="fill:rgb(235,235,235);stroke:black;stroke-width:0.92px;"/>
    </g>
    <g transform="matrix(1,0,0.384374,0.665756,45.2147,-6.61743)">
        <path d="M227.68,158.076L202.347,158.076L177.014,175.729L202.347,175.729L227.68,158.076Z" style="fill:rgb(235,235,235);stroke:black;stroke-width:0.92px;"/>
    </g>
    <g transform="matrix(1,0,0.384374,0.665756,119.405,-53.6278)">
        <path d="M227.68,158.076L202.347,158.076L177.014,175.729L202.347,175.729L227.68,158.076Z" style="fill:rgb(182,0,255);stroke:black;stroke-width:0.92px;"/>
    </g>
    <g transform="matrix(1,0,0.384374,0.665756,-61.0942,28.6404)">
        <path d="M227.68,158.076L202.347,158.076L177.014,175.729L202.347,175.729L227.68,158.076Z" style="fill:rgb(109,0,0);stroke:black;stroke-width:0.92px;"/>
    </g>
    <g transform="matrix(1,0,0.384374,0.665756,13.0964,-18.37)">
        <path d="M227.68,158.076L202.347,158.076L177.014,175.729L202.347,175.729L227.68,158.076Z" style="fill:rgb(235,235,235);stroke:black;stroke-width:0.92px;"/>
    </g>
    <g transform="matrix(1,0,0.384374,0.665756,-23.9989,5.13517)">
        <path d="M227.68,158.076L202.347,158.076L177.014,175.729L202.347,175.729L227.68,158.076Z" style="fill:rgb(235,235,235);stroke:black;stroke-width:0.92px;"/>
    </g>
    <g transform="matrix(1,0,0.384374,0.665756,50.1917,-41.8752)">
        <path d="M227.68,158.076L202.347,158.076L177.014,175.729L202.347,175.729L227.68,158.076Z" style="fill:rgb(235,235,235);stroke:black;stroke-width:0.92px;"/>
    </g>
    <g transform="matrix(1,0,0.384374,0.665756,-42.5466,16.8878)">
        <path d="M227.68,158.076L202.347,158.076L177.014,175.729L202.347,175.729L227.68,158.076Z" style="fill:rgb(235,235,235);stroke:black;stroke-width:0.92px;"/>
    </g>
    <g transform="matrix(1,0,0.384374,0.665756,31.644,-30.1226)">
        <path d="M227.68,158.076L202.347,158.076L177.014,175.729L202.347,175.729L227.68,158.076Z" style="fill:rgb(235,235,235);stroke:black;stroke-width:0.92px;"/>
    </g>
    <g transform="matrix(1,0,0.384374,0.665756,-5.45128,-6.61743)">
        <path d="M227.68,158.076L202.347,158.076L177.014,175.729L202.347,175.729L227.68,158.076Z" style="fill:rgb(235,235,235);stroke:black;stroke-width:0.92px;"/>
    </g>
    <g transform="matrix(1,0,0.384374,0.665756,68.7393,-53.6278)">
        <path d="M227.68,158.076L202.347,158.076L177.014,175.729L202.347,175.729L227.68,158.076Z" style="fill:rgb(109,0,255);stroke:black;stroke-width:0.92px;"/>
    </g>
    <g transform="matrix(1,0,0.384374,0.665756,40.2378,28.6404)">
        <path d="M227.68,158.076L202.347,158.076L177.014,175.729L202.347,175.729L227.68,158.076Z" style="fill:rgb(255,13,13);stroke:black;stroke-width:0.92px;"/>
    </g>
    <g transform="matrix(1,0,0.384374,0.665756,114.428,-18.37)">
        <path d="M227.68,158.076L202.347,158.076L177.014,175.729L202.347,175.729L227.68,158.076Z" style="fill:rgb(255,0,145);stroke:black;stroke-width:0.92px;"/>
    </g>
    <g transform="matrix(1,0,0.384374,0.665756,77.3331,5.13517)">
        <path d="M227.68,158.076L202.347,158.076L177.014,175.729L202.347,175.729L227.68,158.076Z" style="fill:rgb(255,0,72);stroke:black;stroke-width:0.92px;"/>
    </g>
    <g transform="matrix(1,0,0.384374,0.665756,151.524,-41.8752)">
        <path d="M227.68,158.076L202.347,158.076L177.014,175.729L202.347,175.729L227.68,158.076Z" style="fill:rgb(255,0,218);stroke:black;stroke-width:0.92px;"/>
    </g>
    <g transform="matrix(1,0,0.384374,0.665756,58.7855,16.8878)">
        <path d="M227.68,158.076L202.347,158.076L177.014,175.729L202.347,175.729L227.68,158.076Z" style="fill:rgb(255,0,36);stroke:black;stroke-width:0.92px;"/>
    </g>
    <g transform="matrix(1,0,0.384374,0.665756,132.976,-30.1226)">
        <path d="M227.68,158.076L202.347,158.076L177.014,175.729L202.347,175.729L227.68,158.076Z" style="fill:rgb(255,0,182);stroke:black;stroke-width:0.92px;"/>
    </g>
    <g transform="matrix(1,0,0.384374,0.665756,95.8808,-6.61743)">
        <path d="M227.68,158.076L202.347,158.076L177.014,175.729L202.347,175.729L227.68,158.076Z" style="fill:rgb(255,0,109);stroke:black;stroke-width:0.92px;"/>
    </g>
    <g transform="matrix(1,0,0.384374,0.665756,170.071,-53.6278)">
        <path d="M227.68,158.076L202.347,158.076L177.014,175.729L202.347,175.729L227.68,158.076Z" style="fill:rgb(255,0,255);stroke:black;stroke-width:0.92px;"/>
    </g>
    <g transform="matrix(0.731033,0,0,1,181.386,-4.43825)">
        <path d="M202.347,138.644L177.014,150.396L177.014,175.729L202.347,163.977L202.347,138.644Z" style="fill:rgb(255,0,0);stroke:black;stroke-width:1.14px;"/>
    </g>
    <g transform="matrix(0.731033,0,0,1,255.378,-51.7595)">
        <path d="M202.347,138.644L177.014,150.396L177.014,175.729L202.347,163.977L202.347,138.644Z" style="fill:rgb(255,0,145);stroke:black;stroke-width:1.14px;"/>
    </g>
    <g transform="matrix(0.731033,0,0,1,218.424,-28.0428)">
        <path d="M202.347,138.644L177.014,150.396L177.014,175.729L202.347,163.977L202.347,138.644Z" style="fill:rgb(255,0,72);stroke:black;stroke-width:1.14px;"/>
    </g>
    <g transform="matrix(0.731033,0,0,1,292.283,-75.1028)">
        <path d="M202.347,138.644L177.014,150.396L177.014,175.729L202.347,163.977L202.347,138.644Z" style="fill:rgb(255,0,218);stroke:black;stroke-width:1.14px;"/>
    </g>
    <g transform="matrix(0.731033,0,0,1,199.905,-16.2902)">
        <path d="M202.347,138.644L177.014,150.396L177.014,175.729L202.347,163.977L202.347,138.644Z" style="fill:rgb(255,0,36);stroke:black;stroke-width:1.14px;"/>
    </g>
    <g transform="matrix(0.731033,0,0,1,273.897,-63.5121)">
        <path d="M202.347,138.644L177.014,150.396L177.014,175.729L202.347,163.977L202.347,138.644Z" style="fill:rgb(255,0,182);stroke:black;stroke-width:1.14px;"/>
    </g>
    <g transform="matrix(0.731033,0,0,1,236.859,-39.9075)">
        <path d="M202.347,138.644L177.014,150.396L177.014,175.729L202.347,163.977L202.347,138.644Z" style="fill:rgb(255,0,109);stroke:black;stroke-width:1.14px;"/>
    </g>
    <g transform="matrix(0.731033,0,0,1,310.803,-87.0314)">
        <path d="M202.347,138.644L177.014,150.396L177.014,175.729L202.347,163.977L202.347,138.644Z" style="fill:rgb(255,0,255);stroke:black;stroke-width:1.14px;"/>
    </g>
    <g transform="matrix(0.731033,0,0,1,181.386,96.4328)">
        <path d="M202.347,138.644L177.014,150.396L177.014,175.729L202.347,163.977L202.347,138.644Z" style="fill:rgb(255,145,0);stroke:black;stroke-width:1.14px;"/>
    </g>
    <g transform="matrix(0.731033,0,0,1,255.378,49.1116)">
        <path d="M202.347,138.644L177.014,150.396L177.014,175.729L202.347,163.977L202.347,138.644Z" style="fill:rgb(235,235,235);stroke:black;stroke-width:1.14px;"/>
    </g>
    <g transform="matrix(0.731033,0,0,1,218.424,72.8283)">
        <path d="M202.347,138.644L177.014,150.396L177.014,175.729L202.347,163.977L202.347,138.644Z" style="fill:rgb(235,235,235);stroke:black;stroke-width:1.14px;"/>
    </g>
    <g transform="matrix(0.731033,0,0,1,292.283,25.7683)">
        <path d="M202.347,138.644L177.014,150.396L177.014,175.729L202.347,163.977L202.347,138.644Z" style="fill:rgb(235,235,235);stroke:black;stroke-width:1.14px;"/>
    </g>
    <g transform="matrix(0.731033,0,0,1,199.905,84.5809)">
        <path d="M202.347,138.644L177.014,150.396L177.014,175.729L202.347,163.977L202.347,138.644Z" style="fill:rgb(235,235,235);stroke:black;stroke-width:1.14px;"/>
    </g>
    <g transform="matrix(0.731033,0,0,1,273.897,37.359)">
        <path d="M202.347,138.644L177.014,150.396L177.014,175.729L202.347,163.977L202.347,138.644Z" style="fill:rgb(235,235,235);stroke:black;stroke-width:1.14px;"/>
    </g>
    <g transform="matrix(0.731033,0,0,1,236.859,60.9636)">
        <path d="M202.347,138.644L177.014,150.396L177.014,175.729L202.347,163.977L202.347,138.644Z" style="fill:rgb(235,235,235);stroke:black;stroke-width:1.14px;"/>
    </g>
    <g transform="matrix(0.731033,0,0,1,310.803,13.8397)">
        <path d="M202.347,138.644L177.014,150.396L177.014,175.729L202.347,163.977L202.347,138.644Z" style="fill:rgb(255,145,255);stroke:black;stroke-width:1.14px;"/>
    </g>
    <g transform="matrix(0.731033,0,0,1,181.386,45.9094)">
        <path d="M202.347,138.644L177.014,150.396L177.014,175.729L202.347,163.977L202.347,138.644Z" style="fill:rgb(255,72,0);stroke:black;stroke-width:1.14px;"/>
    </g>
    <g transform="matrix(0.731033,0,0,1,255.378,-1.41182)">
        <path d="M202.347,138.644L177.014,150.396L177.014,175.729L202.347,163.977L202.347,138.644Z" style="fill:rgb(235,235,235);stroke:black;stroke-width:1.14px;"/>
    </g>
    <g transform="matrix(0.731033,0,0,1,218.424,22.3048)">
        <path d="M202.347,138.644L177.014,150.396L177.014,175.729L202.347,163.977L202.347,138.644Z" style="fill:rgb(235,235,235);stroke:black;stroke-width:1.14px;"/>
    </g>
    <g transform="matrix(0.731033,0,0,1,292.283,-24.7552)">
        <path d="M202.347,138.644L177.014,150.396L177.014,175.729L202.347,163.977L202.347,138.644Z" style="fill:rgb(235,235,235);stroke:black;stroke-width:1.14px;"/>
    </g>
    <g transform="matrix(0.731033,0,0,1,199.905,34.0574)">
        <path d="M202.347,138.644L177.014,150.396L177.014,175.729L202.347,163.977L202.347,138.644Z" style="fill:rgb(235,235,235);stroke:black;stroke-width:1.14px;"/>
    </g>
    <g transform="matrix(0.731033,0,0,1,273.897,-13.1644)">
        <path d="M202.347,138.644L177.014,150.396L177.014,175.729L202.347,163.977L202.347,138.644Z" style="fill:rgb(235,235,235);stroke:black;stroke-width:1.14px;"/>
    </g>
    <g transform="matrix(0.731033,0,0,1,236.859,10.4402)">
        <path d="M202.347,138.644L177.014,150.396L177.014,175.729L202.347,163.977L202.347,138.644Z" style="fill:rgb(235,235,235);stroke:black;stroke-width:1.14px;"/>
    </g>
    <g transform="matrix(0.731033,0,0,1,310.803,-36.6837)">
        <path d="M202.347,138.644L177.014,150.396L177.014,175.729L202.347,163.977L202.347,138.644Z" style="fill:rgb(255,73,255);stroke:black;stroke-width:1.14px;"/>
    </g>
    <g transform="matrix(0.731033,0,0,1,181.386,146.781)">
        <path d="M202.347,138.644L177.014,150.396L177.014,175.729L202.347,163.977L202.347,138.644Z" style="fill:rgb(255,218,0);stroke:black;stroke-width:1.14px;"/>
    </g>
    <g transform="matrix(0.731033,0,0,1,255.378,99.4593)">
        <path d="M202.347,138.644L177.014,150.396L177.014,175.729L202.347,163.977L202.347,138.644Z" style="fill:rgb(235,235,235);stroke:black;stroke-width:1.14px;"/>
    </g>
    <g transform="matrix(0.731033,0,0,1,218.424,123.176)">
        <path d="M202.347,138.644L177.014,150.396L177.014,175.729L202.347,163.977L202.347,138.644Z" style="fill:rgb(235,235,235);stroke:black;stroke-width:1.14px;"/>
    </g>
    <g transform="matrix(0.731033,0,0,1,292.283,76.1159)">
        <path d="M202.347,138.644L177.014,150.396L177.014,175.729L202.347,163.977L202.347,138.644Z" style="fill:rgb(235,235,235);stroke:black;stroke-width:1.14px;"/>
    </g>
    <g transform="matrix(0.731033,0,0,1,199.905,134.929)">
        <path d="M202.347,138.644L177.014,150.396L177.014,175.729L202.347,163.977L202.347,138.644Z" style="fill:rgb(235,235,235);stroke:black;stroke-width:1.14px;"/>
    </g>
    <g transform="matrix(0.731033,0,0,1,273.897,87.7067)">
        <path d="M202.347,138.644L177.014,150.396L177.014,175.729L202.347,163.977L202.347,138.644Z" style="fill:rgb(235,235,235);stroke:black;stroke-width:1.14px;"/>
    </g>
    <g transform="matrix(0.731033,0,0,1,236.859,111.311)">
        <path d="M202.347,138.644L177.014,150.396L177.014,175.729L202.347,163.977L202.347,138.644Z" style="fill:rgb(235,235,235);stroke:black;stroke-width:1.14px;"/>
    </g>
    <g transform="matrix(0.731033,0,0,1,310.803,64.1874)">
        <path d="M202.347,138.644L177.014,150.396L177.014,175.729L202.347,163.977L202.347,138.644Z" style="fill:rgb(255,218,255);stroke:black;stroke-width:1.14px;"/>
    </g>
    <g transform="matrix(0.731033,0,0,1,181.386,20.6946)">
        <path d="M202.347,138.644L177.014,150.396L177.014,175.729L202.347,163.977L202.347,138.644Z" style="fill:rgb(255,36,0);stroke:black;stroke-width:1.14px;"/>
    </g>
    <g transform="matrix(0.731033,0,0,1,255.378,-26.6267)">
        <path d="M202.347,138.644L177.014,150.396L177.014,175.729L202.347,163.977L202.347,138.644Z" style="fill:rgb(235,235,235);stroke:black;stroke-width:1.14px;"/>
    </g>
    <g transform="matrix(0.731033,0,0,1,218.424,-2.91002)">
        <path d="M202.347,138.644L177.014,150.396L177.014,175.729L202.347,163.977L202.347,138.644Z" style="fill:rgb(235,235,235);stroke:black;stroke-width:1.14px;"/>
    </g>
    <g transform="matrix(0.731033,0,0,1,292.283,-49.97)">
        <path d="M202.347,138.644L177.014,150.396L177.014,175.729L202.347,163.977L202.347,138.644Z" style="fill:rgb(235,235,235);stroke:black;stroke-width:1.14px;"/>
    </g>
    <g transform="matrix(0.731033,0,0,1,199.905,8.84258)">
        <path d="M202.347,138.644L177.014,150.396L177.014,175.729L202.347,163.977L202.347,138.644Z" style="fill:rgb(235,235,235);stroke:black;stroke-width:1.14px;"/>
    </g>
    <g transform="matrix(0.731033,0,0,1,273.897,-38.3793)">
        <path d="M202.347,138.644L177.014,150.396L177.014,175.729L202.347,163.977L202.347,138.644Z" style="fill:rgb(235,235,235);stroke:black;stroke-width:1.14px;"/>
    </g>
    <g transform="matrix(0.731033,0,0,1,236.859,-14.7747)">
        <path d="M202.347,138.644L177.014,150.396L177.014,175.729L202.347,163.977L202.347,138.644Z" style="fill:rgb(235,235,235);stroke:black;stroke-width:1.14px;"/>
    </g>
    <g transform="matrix(0.731033,0,0,1,310.803,-61.8986)">
        <path d="M202.347,138.644L177.014,150.396L177.014,175.729L202.347,163.977L202.347,138.644Z" style="fill:rgb(255,36,255);stroke:black;stroke-width:1.14px;"/>
    </g>
    <g transform="matrix(0.731033,0,0,1,181.386,121.566)">
        <path d="M202.347,138.644L177.014,150.396L177.014,175.729L202.347,163.977L202.347,138.644Z" style="fill:rgb(255,182,0);stroke:black;stroke-width:1.14px;"/>
    </g>
    <g transform="matrix(0.731033,0,0,1,255.378,74.2444)">
        <path d="M202.347,138.644L177.014,150.396L177.014,175.729L202.347,163.977L202.347,138.644Z" style="fill:rgb(235,235,235);stroke:black;stroke-width:1.14px;"/>
    </g>
    <g transform="matrix(0.731033,0,0,1,218.424,97.9611)">
        <path d="M202.347,138.644L177.014,150.396L177.014,175.729L202.347,163.977L202.347,138.644Z" style="fill:rgb(235,235,235);stroke:black;stroke-width:1.14px;"/>
    </g>
    <g transform="matrix(0.731033,0,0,1,292.283,50.9011)">
        <path d="M202.347,138.644L177.014,150.396L177.014,175.729L202.347,163.977L202.347,138.644Z" style="fill:rgb(235,235,235);stroke:black;stroke-width:1.14px;"/>
    </g>
    <g transform="matrix(0.731033,0,0,1,199.905,109.714)">
        <path d="M202.347,138.644L177.014,150.396L177.014,175.729L202.347,163.977L202.347,138.644Z" style="fill:rgb(235,235,235);stroke:black;stroke-width:1.14px;"/>
    </g>
    <g transform="matrix(0.731033,0,0,1,273.897,62.4918)">
        <path d="M202.347,138.644L177.014,150.396L177.014,175.729L202.347,163.977L202.347,138.644Z" style="fill:rgb(235,235,235);stroke:black;stroke-width:1.14px;"/>
    </g>
    <g transform="matrix(0.731033,0,0,1,236.859,86.0964)">
        <path d="M202.347,138.644L177.014,150.396L177.014,175.729L202.347,163.977L202.347,138.644Z" style="fill:rgb(235,235,235);stroke:black;stroke-width:1.14px;"/>
    </g>
    <g transform="matrix(0.731033,0,0,1,310.803,38.9725)">
        <path d="M202.347,138.644L177.014,150.396L177.014,175.729L202.347,163.977L202.347,138.644Z" style="fill:rgb(255,182,255);stroke:black;stroke-width:1.14px;"/>
    </g>
    <g transform="matrix(0.731033,0,0,1,181.386,71.0422)">
        <path d="M202.347,138.644L177.014,150.396L177.014,175.729L202.347,163.977L202.347,138.644Z" style="fill:rgb(255,109,0);stroke:black;stroke-width:1.14px;"/>
    </g>
    <g transform="matrix(0.731033,0,0,1,255.378,23.721)">
        <path d="M202.347,138.644L177.014,150.396L177.014,175.729L202.347,163.977L202.347,138.644Z" style="fill:rgb(235,235,235);stroke:black;stroke-width:1.14px;"/>
    </g>
    <g transform="matrix(0.731033,0,0,1,218.424,47.4376)">
        <path d="M202.347,138.644L177.014,150.396L177.014,175.729L202.347,163.977L202.347,138.644Z" style="fill:rgb(235,235,235);stroke:black;stroke-width:1.14px;"/>
    </g>
    <g transform="matrix(0.731033,0,0,1,292.283,0.377653)">
        <path d="M202.347,138.644L177.014,150.396L177.014,175.729L202.347,163.977L202.347,138.644Z" style="fill:rgb(235,235,235);stroke:black;stroke-width:1.14px;"/>
    </g>
    <g transform="matrix(0.731033,0,0,1,199.905,59.1902)">
        <path d="M202.347,138.644L177.014,150.396L177.014,175.729L202.347,163.977L202.347,138.644Z" style="fill:rgb(235,235,235);stroke:black;stroke-width:1.14px;"/>
    </g>
    <g transform="matrix(0.731033,0,0,1,273.897,11.9684)">
        <path d="M202.347,138.644L177.014,150.396L177.014,175.729L202.347,163.977L202.347,138.644Z" style="fill:rgb(235,235,235);stroke:black;stroke-width:1.14px;"/>
    </g>
    <g transform="matrix(0.731033,0,0,1,236.859,35.573)">
        <path d="M202.347,138.644L177.014,150.396L177.014,175.729L202.347,163.977L202.347,138.644Z" style="fill:rgb(235,235,235);stroke:black;stroke-width:1.14px;"/>
    </g>
    <g transform="matrix(0.731033,0,0,1,310.803,-11.5509)">
        <path d="M202.347,138.644L177.014,150.396L177.014,175.729L202.347,163.977L202.347,138.644Z" style="fill:rgb(255,109,255);stroke:black;stroke-width:1.14px;"/>
    </g>
    <g transform="matrix(0.731033,0,0,1,181.386,171.913)">
        <path d="M202.347,138.644L177.014,150.396L177.014,175.729L202.347,163.977L202.347,138.644Z" style="fill:rgb(255,255,0);stroke:black;stroke-width:1.14px;"/>
    </g>
    <g transform="matrix(0.731033,0,0,1,255.378,124.592)">
        <path d="M202.347,138.644L177.014,150.396L177.014,175.729L202.347,163.977L202.347,138.644Z" style="fill:rgb(255,255,145);stroke:black;stroke-width:1.14px;"/>
    </g>
    <g transform="matrix(0.731033,0,0,1,218.424,148.309)">
        <path d="M202.347,138.644L177.014,150.396L177.014,175.729L202.347,163.977L202.347,138.644Z" style="fill:rgb(255,255,73);stroke:black;stroke-width:1.14px;"/>
    </g>
    <g transform="matrix(0.731033,0,0,1,292.283,101.249)">
        <path d="M202.347,138.644L177.014,150.396L177.014,175.729L202.347,163.977L202.347,138.644Z" style="fill:rgb(255,255,218);stroke:black;stroke-width:1.14px;"/>
    </g>
    <g transform="matrix(0.731033,0,0,1,199.905,160.061)">
        <path d="M202.347,138.644L177.014,150.396L177.014,175.729L202.347,163.977L202.347,138.644Z" style="fill:rgb(255,255,36);stroke:black;stroke-width:1.14px;"/>
    </g>
    <g transform="matrix(0.731033,0,0,1,273.897,112.839)">
        <path d="M202.347,138.644L177.014,150.396L177.014,175.729L202.347,163.977L202.347,138.644Z" style="fill:rgb(255,255,182);stroke:black;stroke-width:1.14px;"/>
    </g>
    <g transform="matrix(0.731033,0,0,1,236.859,136.444)">
        <path d="M202.347,138.644L177.014,150.396L177.014,175.729L202.347,163.977L202.347,138.644Z" style="fill:rgb(255,255,109);stroke:black;stroke-width:1.14px;"/>
    </g>
    <g transform="matrix(0.731033,0,0,1,310.803,89.3202)">
        <path d="M202.347,138.644L177.014,150.396L177.014,175.729L202.347,163.977L202.347,138.644Z" style="fill:white;stroke:black;stroke-width:1.14px;"/>
    </g>
    <g id="axes" transform="matrix(1,0,0,1,-0.0566172,-50)">
        <g>
            <g transform="matrix(6.12323e-17,-1,1,6.12323e-17,-52.4094,270.607)">
                <path d="M74.974,153.919L74.974,93.741" style="fill:none;stroke:black;stroke-width:1px;"/>
            </g>
            <g transform="matrix(0,-1,1,0,-52.4094,473.361)">
                <path d="M74.974,153.919L74.974,93.741" style="fill:none;stroke:black;stroke-width:1px;"/>
            </g>
            <g transform="matrix(-1,-1.22465e-16,1.22465e-16,-1,151.86,569.465)">
                <path d="M80.439,171.077L85.905,190.975L74.974,190.975L80.439,171.077Z" style="fill:rgb(0,255,0);"/>
            </g>
            <g transform="matrix(1,0,0,1,-9.01877,24.5561)">
                <path d="M80.439,171.077L85.905,190.975L74.974,190.975L80.439,171.077Z" style="fill:rgb(0,255,0);"/>
            </g>
            <g transform="matrix(6.21256e-17,-1.01459,1,6.12323e-17,-52.4094,477.765)">
                <path d="M94.871,123.83L257.74,123.83" style="fill:none;stroke:rgb(0,255,0);stroke-width:0.99px;"/>
            </g>
        </g>
        <g transform="matrix(0.547017,0.837121,-0.837121,0.547017,240.244,-7.07818)">
            <g transform="matrix(-1,-1.22465e-16,1.22465e-16,-1,157.286,422.965)">
                <path d="M80.439,171.077L85.905,190.975L74.974,190.975L80.439,171.077Z" style="fill:rgb(13,40,242);"/>
            </g>
            <g transform="matrix(1,0,0,1,-4.41699,-88.72)">
                <path d="M80.439,171.077L85.905,190.975L74.974,190.975L80.439,171.077Z" style="fill:rgb(13,40,242);"/>
            </g>
            <g transform="matrix(6.41412e-17,-0.795906,1.01308,1.05301e-16,-49.3679,307.392)">
                <path d="M94.871,123.83L257.74,123.83" style="fill:none;stroke:rgb(13,40,242);stroke-width:1.1px;"/>
            </g>
            <g transform="matrix(-0.837121,-0.547017,0.547017,-0.837121,67.9116,231.828)">
                <path d="M74.974,153.919L74.974,93.741" style="fill:none;stroke:black;stroke-width:1px;"/>
            </g>
        </g>
        <g transform="matrix(1,0,0,1,33.0393,0)">
            <g transform="matrix(1,0,0,1,0,30.6692)">
                <path d="M74.974,153.919L74.974,93.741" style="fill:none;stroke:white;stroke-opacity:0.54902;stroke-width:8.33px;"/>
            </g>
            <g transform="matrix(1,0,0,1,202.664,30.6692)">
                <path d="M74.974,153.919L74.974,93.741" style="fill:none;stroke:white;stroke-opacity:0.54902;stroke-width:8.33px;"/>
            </g>
            <g transform="matrix(6.12323e-17,-1,1,6.12323e-17,-96.1034,234.938)">
                <path d="M80.439,171.077L85.905,190.975L74.974,190.975L80.439,171.077Z" style="fill:rgb(242,13,13);stroke:white;stroke-opacity:0.54902;stroke-width:8.33px;"/>
            </g>
            <g transform="matrix(6.12323e-17,1,-1,6.12323e-17,448.715,74.0599)">
                <path d="M80.439,171.077L85.905,190.975L74.974,190.975L80.439,171.077Z" style="fill:rgb(242,13,13);stroke:white;stroke-opacity:0.54902;stroke-width:8.33px;"/>
            </g>
            <g transform="matrix(1,0,0,1,0,30.6692)">
                <path d="M94.871,123.83L257.74,123.83" style="fill:none;stroke:white;stroke-opacity:0.54902;stroke-width:8.33px;"/>
            </g>
        </g>
        <g transform="matrix(1,0,0,1,33.0393,0)">
            <g transform="matrix(1,0,0,1,0,30.6692)">
                <path d="M74.974,153.919L74.974,93.741" style="fill:none;stroke:white;stroke-width:3.75px;"/>
            </g>
            <g transform="matrix(1,0,0,1,202.664,30.6692)">
                <path d="M74.974,153.919L74.974,93.741" style="fill:none;stroke:white;stroke-width:3.75px;"/>
            </g>
            <g transform="matrix(6.12323e-17,-1,1,6.12323e-17,-96.1034,234.938)">
                <path d="M80.439,171.077L85.905,190.975L74.974,190.975L80.439,171.077Z" style="fill:rgb(242,13,13);stroke:white;stroke-width:3.75px;"/>
            </g>
            <g transform="matrix(6.12323e-17,1,-1,6.12323e-17,448.715,74.0599)">
                <path d="M80.439,171.077L85.905,190.975L74.974,190.975L80.439,171.077Z" style="fill:rgb(242,13,13);stroke:white;stroke-width:3.75px;"/>
            </g>
            <g transform="matrix(1,0,0,1,0,30.6692)">
                <path d="M94.871,123.83L257.74,123.83" style="fill:none;stroke:white;stroke-width:3.75px;"/>
            </g>
        </g>
        <g transform="matrix(1,0,0,1,33.0393,0)">
            <g transform="matrix(1,0,0,1,0,30.6692)">
                <path d="M74.974,153.919L74.974,93.741" style="fill:none;stroke:black;stroke-width:1px;"/>
            </g>
            <g transform="matrix(1,0,0,1,202.664,30.6692)">
                <path d="M74.974,153.919L74.974,93.741" style="fill:none;stroke:black;stroke-width:1px;"/>
            </g>
            <g transform="matrix(6.12323e-17,-1,1,6.12323e-17,-96.1034,234.938)">
                <path d="M80.439,171.077L85.905,190.975L74.974,190.975L80.439,171.077Z" style="fill:rgb(242,13,13);"/>
            </g>
            <g transform="matrix(6.12323e-17,1,-1,6.12323e-17,448.715,74.0599)">
                <path d="M80.439,171.077L85.905,190.975L74.974,190.975L80.439,171.077Z" style="fill:rgb(242,13,13);"/>
            </g>
            <g transform="matrix(1,0,0,1,0,30.6692)">
                <path d="M94.871,123.83L257.74,123.83" style="fill:none;stroke:rgb(242,13,13);stroke-width:1px;"/>
            </g>
        </g>
    </g>
</svg>
