<?xml version="1.0" encoding="UTF-8" standalone="no"?>
<!DOCTYPE svg PUBLIC "-//W3C//DTD SVG 1.1//EN" "http://www.w3.org/Graphics/SVG/1.1/DTD/svg11.dtd">
<svg width="100%" height="100%" viewBox="0 0 512 160" version="1.1" xmlns="http://www.w3.org/2000/svg" xmlns:xlink="http://www.w3.org/1999/xlink" xml:space="preserve" xmlns:serif="http://www.serif.com/" style="fill-rule:evenodd;clip-rule:evenodd;stroke-linecap:round;stroke-linejoin:round;stroke-miterlimit:1.5;">
    <g transform="matrix(1,0,0,1,-14.6256,-205)">
        <path d="M174.265,292.464L174.54,292.979L174.807,293.483L175.068,293.977L175.321,294.46L175.567,294.934L175.807,295.399L176.04,295.856L176.266,296.306L176.485,296.747L176.593,296.967L176.698,297.185L176.803,297.401L176.905,297.615L177.006,297.829L177.106,298.041L177.204,298.252L177.3,298.462L177.395,298.671L177.488,298.879L177.58,299.086L177.67,299.293L177.759,299.498L177.846,299.703L177.931,299.908L178.015,300.112L178.098,300.316L178.179,300.519L178.259,300.722L178.337,300.924L178.414,301.127L178.489,301.329L178.562,301.532L178.635,301.734L178.705,301.936L178.775,302.139L178.842,302.342L178.908,302.544L178.973,302.748L179.037,302.951L179.098,303.155L179.159,303.359L179.218,303.564L179.275,303.77L179.331,303.975L179.385,304.182L179.438,304.389L179.49,304.597L179.54,304.806L179.589,305.016L179.636,305.227L179.682,305.438L179.726,305.651L179.769,305.864L179.811,306.079L179.851,306.295L179.89,306.512L179.928,306.73L179.964,306.95L179.999,307.17L180.032,307.393L180.065,307.617L180.096,307.842L180.125,308.069L180.154,308.298L180.181,308.528L180.207,308.76L180.232,308.994L180.255,309.23L180.278,309.468L180.299,309.708L180.319,309.95L180.338,310.194L180.355,310.441L180.372,310.689L180.388,310.94L180.402,311.194L180.416,311.45L180.428,311.709L180.439,311.97L180.45,312.234L180.459,312.501L180.468,312.77L180.475,313.043L180.481,313.319L180.487,313.597L180.492,313.879L180.495,314.164L180.498,314.452L180.5,314.744L180.501,315.04L180.501,315.338L180.501,315.641L180.499,315.947L180.497,316.257L180.494,316.572L180.485,317.209L180.474,317.865L180.459,318.537L180.442,319.227L180.422,319.935L180.399,320.661L180.373,321.407L180.346,322.173L180.315,322.959L180.283,323.767L180.248,324.594L175.752,324.406L175.787,323.582L175.819,322.782L175.849,322.005L175.876,321.249L175.901,320.514L175.924,319.8L175.943,319.106L175.96,318.432L175.975,317.776L175.986,317.14L175.994,316.519L175.997,316.218L175.999,315.919L176.001,315.625L176.001,315.335L176.001,315.049L176,314.767L175.998,314.489L175.996,314.215L175.992,313.945L175.988,313.679L175.983,313.416L175.976,313.157L175.97,312.901L175.962,312.65L175.953,312.401L175.943,312.156L175.933,311.914L175.921,311.676L175.909,311.441L175.896,311.208L175.881,310.979L175.866,310.753L175.85,310.53L175.833,310.309L175.815,310.092L175.796,309.877L175.776,309.664L175.755,309.454L175.733,309.247L175.71,309.042L175.686,308.839L175.662,308.639L175.636,308.44L175.609,308.244L175.581,308.05L175.552,307.857L175.521,307.666L175.49,307.478L175.458,307.29L175.425,307.104L175.39,306.92L175.355,306.737L175.318,306.556L175.281,306.375L175.242,306.196L175.202,306.018L175.16,305.841L175.118,305.664L175.075,305.488L175.03,305.313L174.984,305.139L174.937,304.965L174.888,304.791L174.838,304.618L174.787,304.445L174.735,304.272L174.681,304.099L174.626,303.926L174.569,303.753L174.511,303.58L174.452,303.406L174.391,303.232L174.329,303.057L174.265,302.882L174.2,302.707L174.133,302.53L174.065,302.353L173.995,302.175L173.924,301.996L173.851,301.816L173.776,301.635L173.699,301.452L173.621,301.269L173.542,301.084L173.46,300.898L173.377,300.71L173.292,300.521L173.206,300.33L173.117,300.137L173.027,299.943L172.935,299.746L172.842,299.548L172.746,299.348L172.649,299.146L172.549,298.942L172.449,298.738L172.24,298.317L172.025,297.888L171.801,297.45L171.57,297.001L171.332,296.542L171.085,296.071L170.83,295.588L170.567,295.093L170.296,294.585L170.016,294.062L173.984,291.938L174.265,292.464Z" style="fill:rgb(173,0,255);"/>
    </g>
    <g transform="matrix(1,0,0,1,320.872,-238)">
        <path d="M77.502,248L83,263L72.005,263L77.502,248Z"/>
    </g>
    <g transform="matrix(-1,-1.22465e-16,1.22465e-16,-1,477.877,367)">
        <path d="M77.502,248L83,263L72.005,263L77.502,248Z"/>
    </g>
    <g transform="matrix(6.12323e-17,1,-1,6.12323e-17,628.374,59.4975)">
        <path d="M77.502,248L83,263L72.005,263L77.502,248Z"/>
    </g>
    <g transform="matrix(6.12323e-17,-1,1,6.12323e-17,-181.626,215.502)">
        <path d="M77.502,248L83,263L72.005,263L77.502,248Z"/>
    </g>
    <g transform="matrix(1,0,0,1,-14.6256,-205)">
        <path d="M83,343L199,343" style="fill:none;stroke:black;stroke-width:1px;stroke-dasharray:5,5,0,0;"/>
    </g>
    <g transform="matrix(1,0,0,1,178.374,-206)">
        <path d="M83,343L199,343" style="fill:none;stroke:black;stroke-width:1px;stroke-dasharray:5,5,0,0;"/>
    </g>
    <g transform="matrix(1,0,0,1,-14.6256,-205)">
        <path d="M83,324L392,324L392,287.873" style="fill:none;stroke:rgb(0,137,255);stroke-width:3.5px;"/>
    </g>
    <g transform="matrix(1,0,0,1,-14.6256,-205)">
        <path d="M393.75,215.024L393.75,256.946L390.25,256.946L390.25,219.458L83.573,325.654L82.427,322.346L393.295,214.7L393.75,215.024Z" style="fill:rgb(0,137,255);"/>
    </g>
    <g transform="matrix(1.35798,0,0,1.35798,-126.55,-322.975)">
        <text x="234.438px" y="340.964px" style="font-family:'ArialMT', 'Arial', sans-serif;font-size:12px;">distance</text>
    </g>
    <g transform="matrix(1,0,0,1,-13.8768,-41.5)">
        <g transform="matrix(0.648649,0,0,1,29.3833,93)">
            <rect x="21" y="57" width="37" height="21"/>
        </g>
        <g transform="matrix(6.12323e-17,-1,1,6.12323e-17,-1.24628,265)">
            <path d="M104.5,57L114,78L95,78L104.5,57Z"/>
        </g>
    </g>
    <g transform="matrix(1.35798,0,0,1.35798,-144.507,-354.975)">
        <text x="233.108px" y="340.964px" style="font-family:'ArialMT', 'Arial', sans-serif;font-size:12px;fill:rgb(173,0,255);">halfFovY</text>
    </g>
    <g transform="matrix(1.35798,0,0,1.35798,51.9549,-391.975)">
        <text x="195.424px" y="340.964px" style="font-family:'ArialMT', 'Arial', sans-serif;font-size:12px;fill:rgb(0,137,255);">halfSizeT<tspan x="244.115px 250.789px " y="340.964px 340.964px ">oF</tspan>itOnScreen</text>
    </g>
    <g transform="matrix(1,0,0,1,-14.6256,-205)">
        <path d="M415,323L414,286" style="fill:none;stroke:black;stroke-width:1px;stroke-dasharray:5,5,0,0;"/>
    </g>
    <g transform="matrix(1,0,0,1,-15.6256,-272)">
        <path d="M415,323L414,286" style="fill:none;stroke:black;stroke-width:1px;stroke-dasharray:5,5,0,0;"/>
    </g>
</svg>
