# Blender v2.62 (sub 0) OBJ File: 'rock_sculpt.blend'
# www.blender.org
mtllib rock_sculpt.mtl
o Rock_Plane.001
v -1.352474 5.687620 0.364384
v 0.919390 4.758926 0.399795
v 2.720688 5.476319 0.296033
v 1.396867 6.428317 0.295492
v 3.775340 7.246055 -0.059311
v 3.769395 6.092037 0.146786
v 1.181898 6.745399 0.139286
v -1.653609 6.062148 0.317479
v -1.690911 6.186213 0.272364
v 0.992828 6.960647 0.143939
v 0.799686 7.231575 0.240533
v -1.747881 6.619037 0.284268
v 2.470641 7.774992 0.061801
v 2.692065 7.483004 -0.004802
v 2.887714 7.258062 0.002723
v 3.841969 7.896044 -0.174453
v 2.702329 7.998971 -0.082094
v 0.680468 4.352058 0.193663
v -1.926632 5.443108 0.292617
v -2.736159 5.810388 0.160025
v -3.158302 5.856314 0.042591
v 2.843554 5.103903 0.153505
v 3.816421 5.512058 -0.014653
v 0.798709 4.096720 0.158098
v 1.149758 3.891685 0.242995
v 2.606507 3.253900 0.167101
v 1.530496 4.260437 0.241932
v 2.060827 4.237216 0.280949
v 3.160467 4.884027 0.206828
v 3.833228 5.072017 0.077908
v 3.927213 3.976967 0.073762
v 3.472177 3.763303 0.143382
v 2.822943 3.755455 0.229928
v 2.729457 3.529245 0.154808
v 3.394635 3.519311 0.035058
v 3.926243 3.641737 -0.069063
v 3.940675 2.917088 -0.051448
v 3.274019 2.800389 0.061751
v 3.231938 2.589760 0.149854
v 3.925138 2.672249 0.038738
v 3.915184 1.435152 -0.049143
v 2.863512 0.923037 0.003964
v 2.874861 0.556269 -0.136600
v 3.962573 1.103394 -0.130679
v 3.973467 0.073394 -0.151432
v 2.991899 0.047172 -0.162548
v -3.075355 6.581724 0.205375
v 0.768697 7.918402 0.066427
v -1.787783 7.744108 0.281348
v -3.130924 7.669869 0.197279
v -3.893172 7.786586 0.031205
v -3.949820 6.421674 0.013854
v -2.281718 5.240741 0.179518
v -3.985300 5.196469 -0.083106
v -3.962203 4.302779 0.007919
v -3.937542 3.971983 0.064941
v -2.113339 4.943325 0.240781
v -0.521656 4.200294 0.200232
v -0.130414 4.181984 0.122609
v -3.874629 3.228227 -0.062490
v -3.846605 2.862452 -0.193522
v -3.878604 2.456045 -0.179173
v -3.898098 2.025835 0.046390
v -3.928637 1.007622 -0.018752
v -3.906132 0.411879 -0.235858
v -3.902106 0.036878 -0.241997
v 0.004080 3.789262 0.131445
v 0.247384 3.489921 0.308371
v -0.087248 2.183361 0.120636
v 3.004387 3.190390 0.052587
v -0.088543 1.800201 -0.053833
v 0.045420 1.494344 0.032765
v 0.217120 1.151534 0.165064
v -1.373543 0.024020 -0.052756
v 1.336322 0.506706 0.057769
v 1.107860 0.096921 -0.028380
v 1.788290 0.346165 -0.159975
v 1.798758 0.106962 -0.279904
vt 0.209590 0.635958
vt 0.320911 0.785479
vt 0.252856 0.908770
vt 0.117278 0.913718
vt 0.276600 0.343856
vt 0.387921 0.578978
vt 0.170458 0.612476
vt 0.234281 0.314644
vt 0.142385 0.588849
vt 0.215382 0.309065
vt 0.109799 0.567502
vt 0.169362 0.302868
vt 0.088271 0.787938
vt 0.055276 0.760516
vt 0.114585 0.810069
vt 0.040378 0.923675
vt 0.026841 0.789809
vt 0.299430 0.279442
vt 0.437401 0.551096
vt 0.257702 0.192181
vt 0.251921 0.146602
vt 0.366728 0.800544
vt 0.322627 0.916557
vt 0.467644 0.562112
vt 0.454215 0.646589
vt 0.460934 0.705806
vt 0.394745 0.835735
vt 0.374875 0.915746
vt 0.526699 0.867782
vt 0.503387 0.923693
vt 0.522684 0.789047
vt 0.550309 0.776026
vt 0.493929 0.601074
vt 0.580173 0.756668
vt 0.559774 0.859420
vt 0.547310 0.926364
vt 0.646281 0.837289
vt 0.636025 0.926364
vt 0.681163 0.830792
vt 0.669356 0.922286
vt 0.870742 0.782462
vt 0.823020 0.910097
vt 0.915654 0.781220
vt 0.863178 0.912437
vt 0.974805 0.790413
vt 0.980972 0.903125
vt 0.173180 0.158857
vt 0.031178 0.567679
vt 0.049425 0.297734
vt 0.057132 0.152898
vt 0.045009 0.069477
vt 0.190921 0.064108
vt 0.319782 0.238761
vt 0.319333 0.059890
vt 0.410167 0.064380
vt 0.443668 0.067373
vt 0.354443 0.251924
vt 0.433257 0.381332
vt 0.447785 0.455952
vt 0.516904 0.073689
vt 0.561362 0.078355
vt 0.616538 0.072801
vt 0.495242 0.467369
vt 0.538296 0.496985
vt 0.676258 0.072802
vt 0.778478 0.067035
vt 0.675421 0.459025
vt 0.598610 0.808898
vt 0.724913 0.457332
vt 0.841723 0.065777
vt 0.772712 0.474973
vt 0.898424 0.061684
vt 0.815236 0.492559
vt 0.917847 0.309696
vt 0.899232 0.606644
vt 0.942339 0.576067
vt 0.929844 0.656899
vt 0.959732 0.655932
vn 0.018372 0.186590 0.982238
vn 0.156255 -0.120457 0.980316
vn 0.153783 0.006897 0.988067
vn 0.075106 0.167455 0.983001
vn -0.076052 -0.010285 0.997040
vn 0.057649 -0.211615 0.975616
vn 0.019257 0.188696 0.981811
vn -0.097018 0.165288 0.981445
vn 0.077151 -0.024049 0.996704
vn -0.061342 0.049715 0.996857
vn 0.068026 0.020173 0.997467
vn -0.013611 -0.051637 0.998566
vn 0.112491 0.058962 0.991882
vn 0.102695 0.124088 0.986938
vn 0.047731 0.208899 0.976745
vn 0.103183 0.148381 0.983520
vn 0.123905 0.190588 0.973785
vn -0.131962 -0.137242 0.981689
vn -0.033998 -0.147465 0.988464
vn -0.227882 0.069063 0.971221
vn -0.142399 -0.054567 0.988281
vn 0.114658 -0.065127 0.991241
vn 0.204016 -0.051881 0.977569
vn -0.085330 0.155797 0.984069
vn -0.031343 0.048982 0.998291
vn -0.044069 -0.031739 0.998505
vn 0.083346 0.125401 0.988586
vn 0.122074 0.146825 0.981567
vn 0.196417 -0.238166 0.951140
vn 0.225043 -0.164312 0.960387
vn 0.057466 -0.203894 0.977294
vn 0.086947 -0.185614 0.978759
vn -0.034577 0.056154 0.997803
vn 0.130314 -0.225654 0.965423
vn 0.177648 -0.199530 0.963622
vn 0.247017 -0.228034 0.941771
vn 0.029939 0.195990 0.980132
vn 0.145940 0.162816 0.975799
vn 0.014466 0.148564 0.988769
vn 0.115543 0.154881 0.981140
vn 0.114750 -0.240669 0.963775
vn 0.140599 -0.170446 0.975249
vn 0.053346 -0.248573 0.967132
vn 0.103458 -0.193487 0.975616
vn -0.020020 -0.102145 0.994537
vn 0.000153 -0.030305 0.999512
vn -0.123173 -0.065523 0.990204
vn 0.032685 0.214606 0.976135
vn -0.012116 0.051332 0.998596
vn -0.142064 -0.000793 0.989837
vn -0.213355 -0.003571 0.976959
vn -0.162847 -0.072207 0.983978
vn -0.146458 -0.016511 0.989074
vn -0.145695 0.006287 0.989288
vn -0.163427 0.105441 0.980895
vn -0.082339 -0.041902 0.995697
vn 0.020112 0.112827 0.993408
vn 0.110355 -0.066408 0.991668
vn -0.044710 -0.112552 0.992615
vn 0.023194 -0.305826 0.951781
vn -0.029389 -0.160466 0.986572
vn -0.166967 0.272713 0.947478
vn -0.124302 0.192907 0.973296
vn -0.063662 0.131626 0.989227
vn -0.095584 0.106296 0.989715
vn 0.044649 -0.264809 0.963256
vn 0.069796 -0.263741 0.962035
vn 0.077792 -0.053926 0.995483
vn 0.015473 -0.147069 0.988983
vn -0.023743 -0.090548 0.995605
vn -0.104984 0.142796 0.984161
vn -0.098117 0.087161 0.991333
vn -0.063753 0.025910 0.997620
vn -0.092105 0.004944 0.995727
vn 0.114505 -0.239174 0.964171
vn 0.106876 -0.259621 0.959746
vn 0.141301 -0.376354 0.915616
vn 0.119968 -0.289224 0.949705
usemtl Material_ao
s 1
f 4/1/1 3/2/2 6/3/3 5/4/4
f 4/1/1 1/5/5 2/6/6 3/2/2
f 1/5/5 4/1/1 7/7/7 8/8/8
f 8/8/8 7/7/7 10/9/9 9/10/10
f 9/10/10 10/9/9 11/11/11 12/12/12
f 11/11/11 10/9/9 14/13/13 13/14/14
f 10/9/9 7/7/7 15/15/15 14/13/13
f 4/1/1 5/4/4 15/15/15 7/7/7
f 5/4/4 16/16/16 14/13/13 15/15/15
f 13/14/14 14/13/13 16/16/16 17/17/17
f 2/6/6 1/5/5 19/18/18 18/19/19
f 1/5/5 8/8/8 20/20/20 19/18/18
f 8/8/8 9/10/10 21/21/21 20/20/20
f 2/6/6 18/19/19 22/22/22 3/2/2
f 3/2/2 22/22/22 23/23/23 6/3/3
f 18/19/19 24/24/24 27/25/25 22/22/22
f 22/22/22 27/25/25 28/26/26 29/27/27
f 22/22/22 29/27/27 30/28/28 23/23/23
f 29/27/27 32/29/29 31/30/30 30/28/28
f 28/26/26 33/31/31 32/29/29 29/27/27
f 27/25/25 34/32/32 33/31/31 28/26/26
f 24/24/24 25/33/33 27/25/25
f 25/33/33 26/34/34 34/32/32 27/25/25
f 31/30/30 32/29/29 35/35/35 36/36/36
f 36/36/36 35/35/35 38/37/37 37/38/38
f 37/38/38 38/37/37 39/39/39 40/40/40
f 32/29/29 33/31/31 34/32/32 35/35/35
f 40/40/40 39/39/39 42/41/41 41/42/42
f 41/42/42 42/41/41 43/43/43 44/44/44
f 44/44/44 43/43/43 46/45/45 45/46/46
f 9/10/10 12/12/12 47/47/47 21/21/21
f 11/11/11 13/14/14 17/17/17 48/48/48
f 11/11/11 48/48/48 49/49/49 12/12/12
f 12/12/12 49/49/49 50/50/50 47/47/47
f 47/47/47 50/50/50 51/51/51 52/52/52
f 19/18/18 20/20/20 21/21/21 53/53/53
f 21/21/21 47/47/47 52/52/52 54/54/54
f 21/21/21 54/54/54 55/55/55 53/53/53
f 53/53/53 55/55/55 56/56/56 57/57/57
f 53/53/53 57/57/57 58/58/58 59/59/59
f 18/19/19 19/18/18 53/53/53 59/59/59
f 56/56/56 60/60/60 58/58/58 57/57/57
f 58/58/58 60/60/60 61/61/61 59/59/59
f 59/59/59 61/61/61 62/62/62 67/63/63
f 18/19/19 59/59/59 67/63/63 24/24/24
f 24/24/24 67/63/63 68/64/64 25/33/33
f 62/62/62 63/65/65 68/64/64 67/63/63
f 63/65/65 64/66/66 69/67/67 68/64/64
f 25/33/33 68/64/64 69/67/67 26/34/34
f 26/34/34 70/68/68 35/35/35 34/32/32
f 26/34/34 69/67/67 71/69/69 70/68/68
f 64/66/66 65/70/70 71/69/69 69/67/67
f 35/35/35 70/68/68 38/37/37
f 38/37/37 70/68/68 71/69/69 72/71/71
f 65/70/70 66/72/72 72/71/71 71/69/69
f 38/37/37 72/71/71 73/73/73 39/39/39
f 66/72/72 74/74/74 73/73/73 72/71/71
f 39/39/39 73/73/73 75/75/75 42/41/41
f 73/73/73 74/74/74 76/76/76 75/75/75
f 42/41/41 75/75/75 77/77/77 43/43/43
f 75/75/75 76/76/76 78/78/78 77/77/77
f 43/43/43 77/77/77 78/78/78 46/45/45
