{
  "asset": {
    "generator": "pappserver",
    "version": "2.0"
  },
  "scene": 0,
  "scenes": [
    {
      "nodes": [ 0]
    }
  ],
  "nodes": [
    {
      "children": [ 1]
    },
    {
      "mesh": 0,
      "matrix": [ 1, 0, 0, 0, 0, 1, 0, 0, 0, 0, 1, 0, 0, 0, 0, 1],
      "name": "10000001"
    }
  ],
  "meshes": [
    {
      "primitives": [
        {
          "attributes": {
            "NORMAL": 0,
            "POSITION": 1
          },
          "mode": 4,
          "material": 0
        },
        {
          "attributes": {
            "NORMAL": 2,
            "POSITION": 3
          },
          "mode": 4,
          "material": 1
        },
        {
          "attributes": {
            "NORMAL": 4,
            "POSITION": 5
          },
          "mode": 4,
          "material": 2
        },
        {
          "attributes": {
            "POSITION": 6
          },
          "mode": 1,
          "material": 3
        }
      ],
      "name": "Far center 0 0 0 0",
      "extras": null
    }
  ],
  "materials": [
    {
      "pbrMetallicRoughness": {
        "baseColorFactor": [ 0.68999999761581421, 0.68999999761581421, 0.68999999761581421, 1],
        "metallicFactor": 0.5,
        "roughnessFactor": 0.36000001430511475
      }
    },
    {
      "pbrMetallicRoughness": {
        "baseColorFactor": [ 0, 0.76862698793411255, 0.76862698793411255, 1],
        "metallicFactor": 0.5,
        "roughnessFactor": 0.36000001430511475
      }
    },
    {
      "pbrMetallicRoughness": {
        "baseColorFactor": [ 0, 0.76862746477127075, 0.76862746477127075, 1],
        "metallicFactor": 0,
        "roughnessFactor": 0.0099999997764825821
      }
    },
    {
      "pbrMetallicRoughness": {
        "baseColorFactor": [ 0, 0, 0, 0],
        "metallicFactor": 0.5,
        "roughnessFactor": 0.36000001430511475
      }
    }
  ],
  "accessors": [
    {
      "bufferView": 0,
      "byteOffset": 0,
      "componentType": 5126,
      "count": 4671,
      "type": "VEC3",
      "min": [ -1, -1, -1],
      "max": [ 1, 1, 1]
    },
    {
      "bufferView": 0,
      "byteOffset": 12,
      "componentType": 5126,
      "count": 4671,
      "type": "VEC3",
      "min": [ -200, -200, -200],
      "max": [ 200, 200, 200]
    },
    {
      "bufferView": 1,
      "byteOffset": 0,
      "componentType": 5126,
      "count": 1764,
      "type": "VEC3",
      "min": [ -1, -1, -1],
      "max": [ 1, 1, 1]
    },
    {
      "bufferView": 1,
      "byteOffset": 12,
      "componentType": 5126,
      "count": 1764,
      "type": "VEC3",
      "min": [ -185.71427917480469, -180, -180],
      "max": [ 185.71427917480469, 180, 180]
    },
    {
      "bufferView": 2,
      "byteOffset": 0,
      "componentType": 5126,
      "count": 75,
      "type": "VEC3",
      "min": [ 0, 1, 0],
      "max": [ 0, 1, 0]
    },
    {
      "bufferView": 2,
      "byteOffset": 12,
      "componentType": 5126,
      "count": 75,
      "type": "VEC3",
      "min": [ 34.285713195800781, 180, -34.285713195800781],
      "max": [ 91.428573608398438, 180, 34.285713195800781]
    },
    {
      "bufferView": 3,
      "byteOffset": 0,
      "componentType": 5126,
      "count": 2328,
      "type": "VEC3",
      "min": [ -200, -200, -200],
      "max": [ 200, 200, 200]
    }
  ],
  "bufferViews": [
    {
      "buffer": 0,
      "byteOffset": 0,
      "byteLength": 112104,
      "byteStride": 24,
      "target": 34962
    },
    {
      "buffer": 0,
      "byteOffset": 112104,
      "byteLength": 42336,
      "byteStride": 24,
      "target": 34962
    },
    {
      "buffer": 0,
      "byteOffset": 154440,
      "byteLength": 1800,
      "byteStride": 24,
      "target": 34962
    },
    {
      "buffer": 0,
      "byteOffset": 156240,
      "byteLength": 27936,
      "byteStride": 12,
      "target": 34962
    }
  ],
  "buffers": [
    {
      "byteLength": 184176,
      "uri": "data:application/octet-stream;base64,"
    }
  ]
}