<?xml version="1.0" encoding="UTF-8" standalone="no"?>
<!-- Created with Inkscape (http://www.inkscape.org/) -->

<svg
   xmlns:dc="http://purl.org/dc/elements/1.1/"
   xmlns:cc="http://creativecommons.org/ns#"
   xmlns:rdf="http://www.w3.org/1999/02/22-rdf-syntax-ns#"
   xmlns:svg="http://www.w3.org/2000/svg"
   xmlns="http://www.w3.org/2000/svg"
   xmlns:sodipodi="http://sodipodi.sourceforge.net/DTD/sodipodi-0.dtd"
   xmlns:inkscape="http://www.inkscape.org/namespaces/inkscape"
   width="210mm"
   height="297mm"
   viewBox="0 0 210 297"
   version="1.1"
   id="svg8"
   inkscape:version="0.92.3 (2405546, 2018-03-11)"
   sodipodi:docname="lineJoinsAndCaps.svg">
  <defs
     id="defs2" />
  <sodipodi:namedview
     id="base"
     pagecolor="#ffffff"
     bordercolor="#666666"
     borderopacity="1.0"
     inkscape:pageopacity="0.0"
     inkscape:pageshadow="2"
     inkscape:zoom="0.35"
     inkscape:cx="1163.5114"
     inkscape:cy="194.79646"
     inkscape:document-units="mm"
     inkscape:current-layer="layer1"
     showgrid="false"
     inkscape:window-width="1920"
     inkscape:window-height="1015"
     inkscape:window-x="0"
     inkscape:window-y="0"
     inkscape:window-maximized="1" />
  <metadata
     id="metadata5">
    <rdf:RDF>
      <cc:Work
         rdf:about="">
        <dc:format>image/svg+xml</dc:format>
        <dc:type
           rdf:resource="http://purl.org/dc/dcmitype/StillImage" />
        <dc:title />
      </cc:Work>
    </rdf:RDF>
  </metadata>
  <g
     inkscape:label="Capa 1"
     inkscape:groupmode="layer"
     id="layer1">
    <path
       style="fill:#56bef1;fill-opacity:1;stroke:#000000;stroke-width:15.12240791;stroke-linecap:butt;stroke-linejoin:round;stroke-miterlimit:2.0999999;stroke-dasharray:none;stroke-opacity:1"
       d="M 11.645714,137.94889 32.107527,33.104515 156.65766,13.79107 159.03004,161.95271 94.975687,86.630309 Z"
       id="path815"
       inkscape:connector-curvature="0"
       sodipodi:nodetypes="cccccc" />
    <path
       sodipodi:nodetypes="cccccc"
       inkscape:connector-curvature="0"
       id="path824"
       d="M 216.55882,139.23495 237.02062,34.39057 361.57076,15.077128 363.94313,163.23877 299.88879,87.916364 Z"
       style="fill:#56bef1;fill-opacity:1;stroke:#000000;stroke-width:15.12106323;stroke-linecap:butt;stroke-linejoin:bevel;stroke-miterlimit:2.0999999;stroke-dasharray:none;stroke-opacity:1" />
    <path
       style="fill:#56bef1;fill-opacity:1;stroke:#000000;stroke-width:15.12106323;stroke-linecap:butt;stroke-linejoin:miter;stroke-miterlimit:2.0999999;stroke-dasharray:none;stroke-opacity:1"
       d="M 421.54128,139.9001 442.00309,35.055731 566.55324,15.74229 568.92561,163.90393 504.87126,88.581525 Z"
       id="path826"
       inkscape:connector-curvature="0"
       sodipodi:nodetypes="cccccc" />
    <path
       inkscape:connector-curvature="0"
       id="path830"
       d="m 26.903642,382.81518 107.927638,29.30033 0.66958,-68.73008"
       style="fill:none;stroke:#000000;stroke-width:16.19490242;stroke-linecap:round;stroke-linejoin:miter;stroke-miterlimit:4;stroke-dasharray:none;stroke-opacity:1"
       sodipodi:nodetypes="ccc" />
    <path
       sodipodi:nodetypes="ccc"
       style="fill:none;stroke:#000000;stroke-width:16.195;stroke-linecap:butt;stroke-linejoin:miter;stroke-miterlimit:4;stroke-dasharray:none;stroke-opacity:1"
       d="m 231.9558,382.81518 107.92806,29.30033 0.66958,-68.73008"
       id="path4868"
       inkscape:connector-curvature="0" />
    <path
       inkscape:connector-curvature="0"
       id="path4870"
       d="m 437.00814,382.81518 107.92806,29.30033 0.66958,-68.73008"
       style="fill:none;stroke:#000000;stroke-width:16.19499969;stroke-linecap:square;stroke-linejoin:miter;stroke-miterlimit:4;stroke-dasharray:none;stroke-opacity:1"
       sodipodi:nodetypes="ccc" />
    <g
       aria-label="Square endcap"
       transform="matrix(0.76997327,0,0,0.76997327,398.16964,271.71599)"
       style="font-style:normal;font-weight:normal;font-size:18.66666603px;line-height:0;font-family:sans-serif;letter-spacing:0px;word-spacing:4.94999981px;fill:#000000;fill-opacity:1;stroke:none"
       id="flowRoot4583">
      <path
         d="m 24.595875,251.66342 q 0.992,0 1.632,-0.192 0.672,-0.224 1.056,-0.576 0.384,-0.384 0.512,-0.832 0.16,-0.48 0.16,-0.96 0,-0.608 -0.352,-1.088 -0.352,-0.48 -0.896,-0.832 -0.544,-0.384 -1.216,-0.672 -0.672,-0.32 -1.344,-0.576 -0.896,-0.32 -1.856,-0.736 -0.96,-0.416 -1.76,-1.056 -0.768,-0.64 -1.28,-1.568 -0.512,-0.96 -0.512,-2.368 0,-2.784 1.792,-4.352 1.824,-1.568 4.992,-1.568 1.824,0 3.168,0.416 1.376,0.416 2.304,0.928 l -1.152,3.04 q -0.8,-0.448 -1.792,-0.768 -0.96,-0.32 -2.24,-0.32 -3.136,0 -3.136,2.272 0,0.576 0.32,1.024 0.32,0.416 0.8,0.768 0.512,0.32 1.12,0.576 0.64,0.256 1.248,0.48 0.928,0.352 1.92,0.8 1.024,0.416 1.856,1.152 0.864,0.704 1.408,1.792 0.544,1.056 0.544,2.688 0,2.784 -1.824,4.32 -1.792,1.504 -5.472,1.504 -2.464,0 -3.936,-0.512 -1.472,-0.544 -2.208,-0.992 l 1.152,-3.2 q 0.864,0.512 2.048,0.96 1.216,0.448 2.944,0.448 z"
         style="font-style:normal;font-variant:normal;font-weight:bold;font-stretch:normal;font-size:32px;font-family:'Ubuntu Mono';-inkscape-font-specification:'Ubuntu Mono Bold'"
         id="path4642"
         inkscape:connector-curvature="0" />
      <path
         d="m 38.163875,247.15142 q 0,2.08 0.672,3.232 0.704,1.12 2.112,1.12 0.672,0 1.248,-0.16 0.608,-0.16 1.056,-0.416 v -8.256 q -0.288,-0.032 -0.8,-0.064 -0.48,-0.064 -1.024,-0.064 -1.632,0 -2.464,1.312 -0.8,1.28 -0.8,3.296 z m -4,-0.128 q 0,-1.728 0.48,-3.168 0.48,-1.472 1.376,-2.496 0.928,-1.024 2.272,-1.6 1.376,-0.576 3.104,-0.576 0.736,0 1.536,0.064 0.832,0.064 1.6,0.192 0.768,0.096 1.44,0.256 0.704,0.128 1.216,0.288 v 19.84 h -3.936 v -5.696 q -0.736,0.352 -1.568,0.544 -0.8,0.224 -1.536,0.224 -1.472,0 -2.592,-0.544 -1.12,-0.576 -1.888,-1.6 -0.736,-1.024 -1.12,-2.464 -0.384,-1.472 -0.384,-3.264 z"
         style="font-style:normal;font-variant:normal;font-weight:bold;font-stretch:normal;font-size:32px;font-family:'Ubuntu Mono';-inkscape-font-specification:'Ubuntu Mono Bold'"
         id="path4644"
         inkscape:connector-curvature="0" />
      <path
         d="m 63.187875,254.03142 q -1.088,0.288 -2.656,0.576 -1.536,0.288 -3.36,0.288 -1.856,0 -3.04,-0.512 -1.184,-0.512 -1.888,-1.44 -0.672,-0.96 -0.928,-2.24 -0.256,-1.28 -0.256,-2.816 v -8.384 h 3.936 v 7.872 q 0,2.08 0.48,3.104 0.512,0.992 1.952,0.992 0.896,0 1.792,-0.16 v -11.808 h 3.968 z"
         style="font-style:normal;font-variant:normal;font-weight:bold;font-stretch:normal;font-size:32px;font-family:'Ubuntu Mono';-inkscape-font-specification:'Ubuntu Mono Bold'"
         id="path4646"
         inkscape:connector-curvature="0" />
      <path
         d="m 73.203875,251.72742 q 0.64,0 1.248,0 0.608,-0.032 1.056,-0.096 v -3.456 q -0.384,-0.064 -0.928,-0.096 -0.544,-0.064 -0.992,-0.064 -0.608,0 -1.184,0.096 -0.576,0.064 -1.024,0.256 -0.416,0.192 -0.672,0.544 -0.256,0.352 -0.256,0.928 0,1.024 0.768,1.472 0.768,0.416 1.984,0.416 z m -0.352,-12.608 q 1.856,0 3.072,0.448 1.248,0.416 1.984,1.216 0.736,0.768 1.056,1.92 0.32,1.12 0.32,2.528 v 8.96 q -0.864,0.192 -2.56,0.448 -1.696,0.256 -3.808,0.256 -1.44,0 -2.624,-0.256 -1.152,-0.256 -1.984,-0.832 -0.832,-0.608 -1.28,-1.536 -0.448,-0.96 -0.448,-2.336 0,-1.312 0.512,-2.208 0.512,-0.896 1.376,-1.44 0.864,-0.544 1.984,-0.768 1.12,-0.256 2.336,-0.256 1.536,0 2.72,0.256 v -0.48 q 0,-1.12 -0.704,-1.856 -0.704,-0.768 -2.432,-0.768 -1.12,0 -2.176,0.16 -1.024,0.16 -1.664,0.384 l -0.544,-3.168 q 0.736,-0.256 2.08,-0.448 1.344,-0.224 2.784,-0.224 z"
         style="font-style:normal;font-variant:normal;font-weight:bold;font-stretch:normal;font-size:32px;font-family:'Ubuntu Mono';-inkscape-font-specification:'Ubuntu Mono Bold'"
         id="path4648"
         inkscape:connector-curvature="0" />
      <path
         d="m 95.155875,243.50342 q -0.384,-0.096 -0.928,-0.192 -0.512,-0.096 -1.056,-0.16 -0.544,-0.096 -1.056,-0.128 -0.512,-0.032 -0.864,-0.032 -0.832,0 -1.632,0.096 -0.8,0.064 -1.632,0.288 v 11.168 h -3.968 v -14.048 q 1.568,-0.576 3.2,-0.928 1.664,-0.352 3.872,-0.352 0.32,0 0.896,0.032 0.608,0.032 1.28,0.128 0.672,0.064 1.344,0.192 0.704,0.096 1.248,0.288 z"
         style="font-style:normal;font-variant:normal;font-weight:bold;font-stretch:normal;font-size:32px;font-family:'Ubuntu Mono';-inkscape-font-specification:'Ubuntu Mono Bold'"
         id="path4650"
         inkscape:connector-curvature="0" />
      <path
         d="m 98.163875,247.15142 q 0,-1.984 0.608,-3.488 0.608,-1.504 1.600005,-2.496 0.992,-1.024 2.27199,-1.536 1.28,-0.512 2.62401,-0.512 3.328,0 5.056,1.984 1.72799,1.952 1.72799,5.728 0,0.384 -0.032,0.8 0,0.416 -0.032,0.672 h -9.76001 q 0,1.472 1.21601,2.336 1.216,0.832 3.136,0.832 1.184,0 2.23999,-0.256 1.08801,-0.256 1.824,-0.512 l 0.54401,3.36 q -1.024,0.352 -2.176,0.576 -1.152,0.256 -2.592,0.256 -1.92,0 -3.456,-0.48 -1.50401,-0.512 -2.592,-1.472 -1.056005,-0.992 -1.632005,-2.432 -0.576,-1.44 -0.576,-3.36 z m 10.080005,-1.568 q 0,-0.608 -0.16,-1.152 -0.16001,-0.576 -0.512,-1.024 -0.352,-0.448 -0.896,-0.704 -0.544,-0.288 -1.34401,-0.288 -0.768,0 -1.34399,0.256 -0.544,0.256 -0.928,0.704 -0.352,0.448 -0.57601,1.024 -0.19199,0.576 -0.256,1.184 z"
         style="font-style:normal;font-variant:normal;font-weight:bold;font-stretch:normal;font-size:32px;font-family:'Ubuntu Mono';-inkscape-font-specification:'Ubuntu Mono Bold'"
         id="path4652"
         inkscape:connector-curvature="0" />
      <path
         d="m 135.11387,247.15142 q 0,-1.984 0.608,-3.488 0.608,-1.504 1.6,-2.496 0.992,-1.024 2.272,-1.536 1.28,-0.512 2.624,-0.512 3.328,0 5.056,1.984 1.728,1.952 1.728,5.728 0,0.384 -0.032,0.8 0,0.416 -0.032,0.672 h -9.76 q 0,1.472 1.216,2.336 1.216,0.832 3.136,0.832 1.184,0 2.24,-0.256 1.088,-0.256 1.824,-0.512 l 0.544,3.36 q -1.024,0.352 -2.176,0.576 -1.152,0.256 -2.592,0.256 -1.92,0 -3.456,-0.48 -1.504,-0.512 -2.592,-1.472 -1.056,-0.992 -1.632,-2.432 -0.576,-1.44 -0.576,-3.36 z m 10.08,-1.568 q 0,-0.608 -0.16,-1.152 -0.16,-0.576 -0.512,-1.024 -0.352,-0.448 -0.896,-0.704 -0.544,-0.288 -1.344,-0.288 -0.768,0 -1.344,0.256 -0.544,0.256 -0.928,0.704 -0.352,0.448 -0.576,1.024 -0.192,0.576 -0.256,1.184 z"
         style="font-style:normal;font-variant:normal;font-weight:bold;font-stretch:normal;font-size:32px;font-family:'Ubuntu Mono';-inkscape-font-specification:'Ubuntu Mono Bold'"
         id="path4654"
         inkscape:connector-curvature="0" />
      <path
         d="m 152.13787,239.98342 q 1.056,-0.288 2.592,-0.544 1.568,-0.256 3.392,-0.256 1.792,0 2.976,0.512 1.184,0.48 1.856,1.408 0.704,0.896 0.992,2.176 0.288,1.248 0.288,2.784 v 8.48 h -3.936 v -7.968 q 0,-2.112 -0.48,-3.04 -0.48,-0.928 -1.952,-0.928 -0.448,0 -0.896,0.032 -0.416,0.032 -0.896,0.096 v 11.808 h -3.936 z"
         style="font-style:normal;font-variant:normal;font-weight:bold;font-stretch:normal;font-size:32px;font-family:'Ubuntu Mono';-inkscape-font-specification:'Ubuntu Mono Bold'"
         id="path4656"
         inkscape:connector-curvature="0" />
      <path
         d="m 171.01787,246.92742 q 0,2.016 0.736,3.296 0.768,1.28 2.432,1.28 0.48,0 0.896,-0.032 0.416,-0.032 0.864,-0.096 v -8.192 q -0.448,-0.256 -1.024,-0.416 -0.576,-0.192 -1.216,-0.192 -1.408,0 -2.048,1.12 -0.64,1.12 -0.64,3.232 z m 8.864,7.168 q -1.088,0.352 -2.656,0.576 -1.568,0.224 -3.072,0.224 -3.52,0 -5.344,-2.08 -1.792,-2.08 -1.792,-5.696 0,-3.68 1.504,-5.792 1.536,-2.144 4.512,-2.144 0.8,0 1.568,0.192 0.768,0.16 1.344,0.48 v -6.848 l 3.936,-0.672 z"
         style="font-style:normal;font-variant:normal;font-weight:bold;font-stretch:normal;font-size:32px;font-family:'Ubuntu Mono';-inkscape-font-specification:'Ubuntu Mono Bold'"
         id="path4658"
         inkscape:connector-curvature="0" />
      <path
         d="m 183.52987,247.02342 q 0,-1.632 0.512,-3.072 0.512,-1.44 1.568,-2.496 1.056,-1.088 2.656,-1.696 1.632,-0.64 3.872,-0.64 1.344,0 2.432,0.192 1.088,0.192 2.208,0.64 l -0.864,3.168 q -0.64,-0.224 -1.44,-0.384 -0.768,-0.192 -1.984,-0.192 -1.408,0 -2.368,0.352 -0.928,0.32 -1.504,0.928 -0.576,0.576 -0.832,1.408 -0.256,0.832 -0.256,1.792 0,2.08 1.152,3.264 1.184,1.184 4,1.184 0.928,0 1.92,-0.128 1.024,-0.128 1.856,-0.416 l 0.576,3.232 q -0.832,0.32 -2.016,0.512 -1.184,0.224 -2.784,0.224 -2.304,0 -3.968,-0.608 -1.632,-0.608 -2.688,-1.664 -1.056,-1.056 -1.568,-2.496 -0.48,-1.44 -0.48,-3.104 z"
         style="font-style:normal;font-variant:normal;font-weight:bold;font-stretch:normal;font-size:32px;font-family:'Ubuntu Mono';-inkscape-font-specification:'Ubuntu Mono Bold'"
         id="path4660"
         inkscape:connector-curvature="0" />
      <path
         d="m 206.15387,251.72742 q 0.64,0 1.248,0 0.608,-0.032 1.056,-0.096 v -3.456 q -0.384,-0.064 -0.928,-0.096 -0.544,-0.064 -0.992,-0.064 -0.608,0 -1.184,0.096 -0.576,0.064 -1.024,0.256 -0.416,0.192 -0.672,0.544 -0.256,0.352 -0.256,0.928 0,1.024 0.768,1.472 0.768,0.416 1.984,0.416 z m -0.352,-12.608 q 1.856,0 3.072,0.448 1.248,0.416 1.984,1.216 0.736,0.768 1.056,1.92 0.32,1.12 0.32,2.528 v 8.96 q -0.864,0.192 -2.56,0.448 -1.696,0.256 -3.808,0.256 -1.44,0 -2.624,-0.256 -1.152,-0.256 -1.984,-0.832 -0.832,-0.608 -1.28,-1.536 -0.448,-0.96 -0.448,-2.336 0,-1.312 0.512,-2.208 0.512,-0.896 1.376,-1.44 0.864,-0.544 1.984,-0.768 1.12,-0.256 2.336,-0.256 1.536,0 2.72,0.256 v -0.48 q 0,-1.12 -0.704,-1.856 -0.704,-0.768 -2.432,-0.768 -1.12,0 -2.176,0.16 -1.024,0.16 -1.664,0.384 l -0.544,-3.168 q 0.736,-0.256 2.08,-0.448 1.344,-0.224 2.784,-0.224 z"
         style="font-style:normal;font-variant:normal;font-weight:bold;font-stretch:normal;font-size:32px;font-family:'Ubuntu Mono';-inkscape-font-specification:'Ubuntu Mono Bold'"
         id="path4662"
         inkscape:connector-curvature="0" />
      <path
         d="m 225.12987,247.15142 q 0,-2.016 -0.8,-3.296 -0.8,-1.312 -2.432,-1.312 -0.448,0 -0.96,0.064 -0.512,0.032 -0.864,0.064 v 8.256 q 0.384,0.256 1.024,0.416 0.64,0.16 1.28,0.16 1.408,0 2.08,-1.12 0.672,-1.152 0.672,-3.232 z m 4,-0.128 q 0,1.728 -0.384,3.2 -0.384,1.44 -1.12,2.496 -0.736,1.024 -1.856,1.6 -1.12,0.576 -2.592,0.576 -1.504,0 -3.104,-0.736 v 5.664 h -3.936 v -19.84 q 1.088,-0.352 2.656,-0.576 1.6,-0.224 3.136,-0.224 3.488,0 5.344,2.112 1.856,2.112 1.856,5.728 z"
         style="font-style:normal;font-variant:normal;font-weight:bold;font-stretch:normal;font-size:32px;font-family:'Ubuntu Mono';-inkscape-font-specification:'Ubuntu Mono Bold'"
         id="path4664"
         inkscape:connector-curvature="0" />
    </g>
    <g
       aria-label="Butt endcap"
       transform="matrix(0.76997327,0,0,0.76997327,207.21552,271.71599)"
       style="font-style:normal;font-weight:normal;font-size:18.66666603px;line-height:0;font-family:sans-serif;letter-spacing:0px;word-spacing:4.94999981px;fill:#000000;fill-opacity:1;stroke:none"
       id="flowRoot4575">
      <path
         d="m 32.179875,248.55942 q 0,1.792 -0.608,3.008 -0.608,1.184 -1.664,1.92 -1.024,0.704 -2.464,1.024 -1.408,0.288 -3.04,0.288 -1.312,0 -2.72,-0.16 -1.408,-0.128 -2.784,-0.416 v -19.232 q 1.12,-0.192 2.464,-0.32 1.344,-0.16 2.656,-0.16 2.24,0 3.648,0.48 1.408,0.448 2.208,1.216 0.8,0.736 1.088,1.664 0.288,0.928 0.288,1.856 0,1.408 -0.704,2.496 -0.672,1.088 -1.824,1.728 2.016,0.736 2.72,1.984 0.736,1.248 0.736,2.624 z m -9.344,-2.688 v 5.376 q 0.416,0.064 0.896,0.096 0.512,0.032 0.992,0.032 0.672,0 1.312,-0.096 0.64,-0.128 1.12,-0.416 0.512,-0.32 0.832,-0.864 0.32,-0.576 0.32,-1.44 0,-1.44 -0.928,-2.048 -0.896,-0.64 -2.432,-0.64 z m 1.536,-3.264 q 1.504,0 2.272,-0.64 0.768,-0.672 0.768,-1.824 0,-0.704 -0.224,-1.12 -0.224,-0.448 -0.608,-0.672 -0.384,-0.256 -0.896,-0.32 -0.512,-0.096 -1.056,-0.096 -0.448,0 -0.928,0.032 -0.48,0.032 -0.864,0.096 v 4.544 z"
         style="font-style:normal;font-variant:normal;font-weight:bold;font-stretch:normal;font-size:32px;font-family:'Ubuntu Mono';-inkscape-font-specification:'Ubuntu Mono Bold'"
         id="path4667"
         inkscape:connector-curvature="0" />
      <path
         d="m 47.187875,254.03142 q -1.088,0.288 -2.656,0.576 -1.536,0.288 -3.36,0.288 -1.856,0 -3.04,-0.512 -1.184,-0.512 -1.888,-1.44 -0.672,-0.96 -0.928,-2.24 -0.256,-1.28 -0.256,-2.816 v -8.384 h 3.936 v 7.872 q 0,2.08 0.48,3.104 0.512,0.992 1.952,0.992 0.896,0 1.792,-0.16 v -11.808 h 3.968 z"
         style="font-style:normal;font-variant:normal;font-weight:bold;font-stretch:normal;font-size:32px;font-family:'Ubuntu Mono';-inkscape-font-specification:'Ubuntu Mono Bold'"
         id="path4669"
         inkscape:connector-curvature="0" />
      <path
         d="m 53.747875,242.76742 h -3.424 v -3.264 h 3.424 v -3.776 l 3.936,-0.64 v 4.416 h 6.304 v 3.264 h -6.304 v 6.08 q 0,0.832 0.16,1.344 0.16,0.512 0.448,0.8 0.288,0.288 0.704,0.384 0.416,0.096 0.928,0.096 0.544,0 0.992,-0.032 0.48,-0.032 0.896,-0.096 0.448,-0.096 0.896,-0.256 0.48,-0.16 1.024,-0.416 l 0.544,3.392 q -1.088,0.448 -2.368,0.64 -1.248,0.192 -2.432,0.192 -1.376,0 -2.432,-0.224 -1.056,-0.224 -1.792,-0.864 -0.736,-0.64 -1.12,-1.792 -0.384,-1.184 -0.384,-3.072 z"
         style="font-style:normal;font-variant:normal;font-weight:bold;font-stretch:normal;font-size:32px;font-family:'Ubuntu Mono';-inkscape-font-specification:'Ubuntu Mono Bold'"
         id="path4671"
         inkscape:connector-curvature="0" />
      <path
         d="m 69.747875,242.76742 h -3.424 v -3.264 h 3.424 v -3.776 l 3.936,-0.64 v 4.416 h 6.304 v 3.264 h -6.304 v 6.08 q 0,0.832 0.16,1.344 0.16,0.512 0.448,0.8 0.288,0.288 0.704,0.384 0.416,0.096 0.928,0.096 0.544,0 0.992,-0.032 0.48,-0.032 0.896,-0.096 0.448,-0.096 0.896,-0.256 0.48,-0.16 1.024,-0.416 l 0.544,3.392 q -1.088,0.448 -2.368,0.64 -1.248,0.192 -2.432,0.192 -1.376,0 -2.432,-0.224 -1.056,-0.224 -1.792,-0.864 -0.736,-0.64 -1.12,-1.792 -0.384,-1.184 -0.384,-3.072 z"
         style="font-style:normal;font-variant:normal;font-weight:bold;font-stretch:normal;font-size:32px;font-family:'Ubuntu Mono';-inkscape-font-specification:'Ubuntu Mono Bold'"
         id="path4673"
         inkscape:connector-curvature="0" />
      <path
         d="m 103.11387,247.15142 q 0,-1.984 0.608,-3.488 0.608,-1.504 1.6,-2.496 0.992,-1.024 2.272,-1.536 1.28,-0.512 2.624,-0.512 3.328,0 5.056,1.984 1.728,1.952 1.728,5.728 0,0.384 -0.032,0.8 0,0.416 -0.032,0.672 h -9.76 q 0,1.472 1.216,2.336 1.216,0.832 3.136,0.832 1.184,0 2.24,-0.256 1.088,-0.256 1.824,-0.512 l 0.544,3.36 q -1.024,0.352 -2.176,0.576 -1.152,0.256 -2.592,0.256 -1.92,0 -3.456,-0.48 -1.504,-0.512 -2.592,-1.472 -1.056,-0.992 -1.632,-2.432 -0.576,-1.44 -0.576,-3.36 z m 10.08,-1.568 q 0,-0.608 -0.16,-1.152 -0.16,-0.576 -0.512,-1.024 -0.352,-0.448 -0.896,-0.704 -0.544,-0.288 -1.344,-0.288 -0.768,0 -1.344,0.256 -0.544,0.256 -0.928,0.704 -0.352,0.448 -0.576,1.024 -0.192,0.576 -0.256,1.184 z"
         style="font-style:normal;font-variant:normal;font-weight:bold;font-stretch:normal;font-size:32px;font-family:'Ubuntu Mono';-inkscape-font-specification:'Ubuntu Mono Bold'"
         id="path4675"
         inkscape:connector-curvature="0" />
      <path
         d="m 120.13787,239.98342 q 1.056,-0.288 2.592,-0.544 1.568,-0.256 3.392,-0.256 1.792,0 2.976,0.512 1.184,0.48 1.856,1.408 0.704,0.896 0.992,2.176 0.288,1.248 0.288,2.784 v 8.48 h -3.936 v -7.968 q 0,-2.112 -0.48,-3.04 -0.48,-0.928 -1.952,-0.928 -0.448,0 -0.896,0.032 -0.416,0.032 -0.896,0.096 v 11.808 h -3.936 z"
         style="font-style:normal;font-variant:normal;font-weight:bold;font-stretch:normal;font-size:32px;font-family:'Ubuntu Mono';-inkscape-font-specification:'Ubuntu Mono Bold'"
         id="path4677"
         inkscape:connector-curvature="0" />
      <path
         d="m 139.01787,246.92742 q 0,2.016 0.736,3.296 0.768,1.28 2.432,1.28 0.48,0 0.896,-0.032 0.416,-0.032 0.864,-0.096 v -8.192 q -0.448,-0.256 -1.024,-0.416 -0.576,-0.192 -1.216,-0.192 -1.408,0 -2.048,1.12 -0.64,1.12 -0.64,3.232 z m 8.864,7.168 q -1.088,0.352 -2.656,0.576 -1.568,0.224 -3.072,0.224 -3.52,0 -5.344,-2.08 -1.792,-2.08 -1.792,-5.696 0,-3.68 1.504,-5.792 1.536,-2.144 4.512,-2.144 0.8,0 1.568,0.192 0.768,0.16 1.344,0.48 v -6.848 l 3.936,-0.672 z"
         style="font-style:normal;font-variant:normal;font-weight:bold;font-stretch:normal;font-size:32px;font-family:'Ubuntu Mono';-inkscape-font-specification:'Ubuntu Mono Bold'"
         id="path4679"
         inkscape:connector-curvature="0" />
      <path
         d="m 151.52987,247.02342 q 0,-1.632 0.512,-3.072 0.512,-1.44 1.568,-2.496 1.056,-1.088 2.656,-1.696 1.632,-0.64 3.872,-0.64 1.344,0 2.432,0.192 1.088,0.192 2.208,0.64 l -0.864,3.168 q -0.64,-0.224 -1.44,-0.384 -0.768,-0.192 -1.984,-0.192 -1.408,0 -2.368,0.352 -0.928,0.32 -1.504,0.928 -0.576,0.576 -0.832,1.408 -0.256,0.832 -0.256,1.792 0,2.08 1.152,3.264 1.184,1.184 4,1.184 0.928,0 1.92,-0.128 1.024,-0.128 1.856,-0.416 l 0.576,3.232 q -0.832,0.32 -2.016,0.512 -1.184,0.224 -2.784,0.224 -2.304,0 -3.968,-0.608 -1.632,-0.608 -2.688,-1.664 -1.056,-1.056 -1.568,-2.496 -0.48,-1.44 -0.48,-3.104 z"
         style="font-style:normal;font-variant:normal;font-weight:bold;font-stretch:normal;font-size:32px;font-family:'Ubuntu Mono';-inkscape-font-specification:'Ubuntu Mono Bold'"
         id="path4681"
         inkscape:connector-curvature="0" />
      <path
         d="m 174.15387,251.72742 q 0.64,0 1.248,0 0.608,-0.032 1.056,-0.096 v -3.456 q -0.384,-0.064 -0.928,-0.096 -0.544,-0.064 -0.992,-0.064 -0.608,0 -1.184,0.096 -0.576,0.064 -1.024,0.256 -0.416,0.192 -0.672,0.544 -0.256,0.352 -0.256,0.928 0,1.024 0.768,1.472 0.768,0.416 1.984,0.416 z m -0.352,-12.608 q 1.856,0 3.072,0.448 1.248,0.416 1.984,1.216 0.736,0.768 1.056,1.92 0.32,1.12 0.32,2.528 v 8.96 q -0.864,0.192 -2.56,0.448 -1.696,0.256 -3.808,0.256 -1.44,0 -2.624,-0.256 -1.152,-0.256 -1.984,-0.832 -0.832,-0.608 -1.28,-1.536 -0.448,-0.96 -0.448,-2.336 0,-1.312 0.512,-2.208 0.512,-0.896 1.376,-1.44 0.864,-0.544 1.984,-0.768 1.12,-0.256 2.336,-0.256 1.536,0 2.72,0.256 v -0.48 q 0,-1.12 -0.704,-1.856 -0.704,-0.768 -2.432,-0.768 -1.12,0 -2.176,0.16 -1.024,0.16 -1.664,0.384 l -0.544,-3.168 q 0.736,-0.256 2.08,-0.448 1.344,-0.224 2.784,-0.224 z"
         style="font-style:normal;font-variant:normal;font-weight:bold;font-stretch:normal;font-size:32px;font-family:'Ubuntu Mono';-inkscape-font-specification:'Ubuntu Mono Bold'"
         id="path4683"
         inkscape:connector-curvature="0" />
      <path
         d="m 193.12987,247.15142 q 0,-2.016 -0.8,-3.296 -0.8,-1.312 -2.432,-1.312 -0.448,0 -0.96,0.064 -0.512,0.032 -0.864,0.064 v 8.256 q 0.384,0.256 1.024,0.416 0.64,0.16 1.28,0.16 1.408,0 2.08,-1.12 0.672,-1.152 0.672,-3.232 z m 4,-0.128 q 0,1.728 -0.384,3.2 -0.384,1.44 -1.12,2.496 -0.736,1.024 -1.856,1.6 -1.12,0.576 -2.592,0.576 -1.504,0 -3.104,-0.736 v 5.664 h -3.936 v -19.84 q 1.088,-0.352 2.656,-0.576 1.6,-0.224 3.136,-0.224 3.488,0 5.344,2.112 1.856,2.112 1.856,5.728 z"
         style="font-style:normal;font-variant:normal;font-weight:bold;font-stretch:normal;font-size:32px;font-family:'Ubuntu Mono';-inkscape-font-specification:'Ubuntu Mono Bold'"
         id="path4685"
         inkscape:connector-curvature="0" />
    </g>
    <g
       aria-label="Round endcap"
       transform="matrix(0.76997327,0,0,0.76997327,-2.2173295,271.71599)"
       style="font-style:normal;font-weight:normal;font-size:18.66666603px;line-height:0;font-family:sans-serif;letter-spacing:0px;word-spacing:4.94999981px;fill:#000000;fill-opacity:1;stroke:none"
       id="flowRoot4567">
      <path
         d="m 24.019875,234.51142 q 1.696,0 3.072,0.384 1.376,0.384 2.368,1.184 0.992,0.8 1.504,2.048 0.544,1.216 0.544,2.88 0,1.728 -0.704,3.136 -0.704,1.408 -2.336,2.144 0.544,0.832 1.152,1.856 0.608,0.992 1.184,2.112 0.576,1.088 1.088,2.208 0.544,1.088 0.928,2.08 h -4.128 q -0.736,-1.92 -1.728,-3.68 -0.96,-1.792 -2.08,-3.616 h -2.048 v 7.296 h -3.936 v -19.52 q 0.576,-0.128 1.248,-0.224 0.704,-0.128 1.408,-0.16 0.704,-0.064 1.344,-0.096 0.64,-0.032 1.12,-0.032 z m 3.488,6.464 q 0,-1.568 -0.96,-2.304 -0.96,-0.736 -2.528,-0.736 -0.224,0 -0.544,0.032 -0.32,0 -0.64,0.064 v 5.952 h 0.864 q 2.016,0 2.912,-0.768 0.896,-0.8 0.896,-2.24 z"
         style="font-style:normal;font-variant:normal;font-weight:bold;font-stretch:normal;font-size:32px;font-family:'Ubuntu Mono';-inkscape-font-specification:'Ubuntu Mono Bold'"
         id="path4688"
         inkscape:connector-curvature="0" />
      <path
         d="m 48.275875,246.99142 q 0,1.792 -0.512,3.264 -0.512,1.44 -1.44,2.496 -0.928,1.056 -2.24,1.632 -1.28,0.576 -2.88,0.576 -1.6,0 -2.912,-0.576 -1.28,-0.576 -2.24,-1.632 -0.928,-1.056 -1.44,-2.496 -0.512,-1.472 -0.512,-3.264 0,-1.76 0.512,-3.2 0.544,-1.472 1.472,-2.496 0.96,-1.056 2.272,-1.6 1.312,-0.576 2.848,-0.576 1.568,0 2.848,0.576 1.312,0.544 2.24,1.6 0.96,1.024 1.472,2.496 0.512,1.44 0.512,3.2 z m -10.176,0.032 q 0,2.016 0.704,3.264 0.736,1.248 2.336,1.248 1.536,0 2.304,-1.248 0.8,-1.248 0.8,-3.264 0,-2.016 -0.736,-3.232 -0.704,-1.248 -2.304,-1.248 -1.536,0 -2.336,1.248 -0.768,1.216 -0.768,3.232 z"
         style="font-style:normal;font-variant:normal;font-weight:bold;font-stretch:normal;font-size:32px;font-family:'Ubuntu Mono';-inkscape-font-specification:'Ubuntu Mono Bold'"
         id="path4690"
         inkscape:connector-curvature="0" />
      <path
         d="m 63.187875,254.03142 q -1.088,0.288 -2.656,0.576 -1.536,0.288 -3.36,0.288 -1.856,0 -3.04,-0.512 -1.184,-0.512 -1.888,-1.44 -0.672,-0.96 -0.928,-2.24 -0.256,-1.28 -0.256,-2.816 v -8.384 h 3.936 v 7.872 q 0,2.08 0.48,3.104 0.512,0.992 1.952,0.992 0.896,0 1.792,-0.16 v -11.808 h 3.968 z"
         style="font-style:normal;font-variant:normal;font-weight:bold;font-stretch:normal;font-size:32px;font-family:'Ubuntu Mono';-inkscape-font-specification:'Ubuntu Mono Bold'"
         id="path4692"
         inkscape:connector-curvature="0" />
      <path
         d="m 67.187875,239.98342 q 1.056,-0.288 2.592,-0.544 1.568,-0.256 3.392,-0.256 1.792,0 2.976,0.512 1.184,0.48 1.856,1.408 0.704,0.896 0.992,2.176 0.288,1.248 0.288,2.784 v 8.48 h -3.936 v -7.968 q 0,-2.112 -0.48,-3.04 -0.48,-0.928 -1.952,-0.928 -0.448,0 -0.896,0.032 -0.416,0.032 -0.896,0.096 v 11.808 h -3.936 z"
         style="font-style:normal;font-variant:normal;font-weight:bold;font-stretch:normal;font-size:32px;font-family:'Ubuntu Mono';-inkscape-font-specification:'Ubuntu Mono Bold'"
         id="path4694"
         inkscape:connector-curvature="0" />
      <path
         d="m 86.067875,246.92742 q 0,2.016 0.736,3.296 0.768,1.28 2.432,1.28 0.48,0 0.896,-0.032 0.416,-0.032 0.864,-0.096 v -8.192 q -0.448,-0.256 -1.024,-0.416 -0.576,-0.192 -1.216,-0.192 -1.408,0 -2.048,1.12 -0.64,1.12 -0.64,3.232 z m 8.864,7.168 q -1.088,0.352 -2.656,0.576 -1.568,0.224 -3.072,0.224 -3.52,0 -5.344,-2.08 -1.792,-2.08 -1.792,-5.696 0,-3.68 1.504,-5.792 1.536,-2.144 4.512,-2.144 0.8,0 1.568,0.192 0.768,0.16 1.344,0.48 v -6.848 l 3.936,-0.672 z"
         style="font-style:normal;font-variant:normal;font-weight:bold;font-stretch:normal;font-size:32px;font-family:'Ubuntu Mono';-inkscape-font-specification:'Ubuntu Mono Bold'"
         id="path4696"
         inkscape:connector-curvature="0" />
      <path
         d="m 119.11387,247.15142 q 0,-1.984 0.608,-3.488 0.608,-1.504 1.6,-2.496 0.992,-1.024 2.272,-1.536 1.28,-0.512 2.624,-0.512 3.328,0 5.056,1.984 1.728,1.952 1.728,5.728 0,0.384 -0.032,0.8 0,0.416 -0.032,0.672 h -9.76 q 0,1.472 1.216,2.336 1.216,0.832 3.136,0.832 1.184,0 2.24,-0.256 1.088,-0.256 1.824,-0.512 l 0.544,3.36 q -1.024,0.352 -2.176,0.576 -1.152,0.256 -2.592,0.256 -1.92,0 -3.456,-0.48 -1.504,-0.512 -2.592,-1.472 -1.056,-0.992 -1.632,-2.432 -0.576,-1.44 -0.576,-3.36 z m 10.08,-1.568 q 0,-0.608 -0.16,-1.152 -0.16,-0.576 -0.512,-1.024 -0.352,-0.448 -0.896,-0.704 -0.544,-0.288 -1.344,-0.288 -0.768,0 -1.344,0.256 -0.544,0.256 -0.928,0.704 -0.352,0.448 -0.576,1.024 -0.192,0.576 -0.256,1.184 z"
         style="font-style:normal;font-variant:normal;font-weight:bold;font-stretch:normal;font-size:32px;font-family:'Ubuntu Mono';-inkscape-font-specification:'Ubuntu Mono Bold'"
         id="path4698"
         inkscape:connector-curvature="0" />
      <path
         d="m 136.13787,239.98342 q 1.056,-0.288 2.592,-0.544 1.568,-0.256 3.392,-0.256 1.792,0 2.976,0.512 1.184,0.48 1.856,1.408 0.704,0.896 0.992,2.176 0.288,1.248 0.288,2.784 v 8.48 h -3.936 v -7.968 q 0,-2.112 -0.48,-3.04 -0.48,-0.928 -1.952,-0.928 -0.448,0 -0.896,0.032 -0.416,0.032 -0.896,0.096 v 11.808 h -3.936 z"
         style="font-style:normal;font-variant:normal;font-weight:bold;font-stretch:normal;font-size:32px;font-family:'Ubuntu Mono';-inkscape-font-specification:'Ubuntu Mono Bold'"
         id="path4700"
         inkscape:connector-curvature="0" />
      <path
         d="m 155.01787,246.92742 q 0,2.016 0.736,3.296 0.768,1.28 2.432,1.28 0.48,0 0.896,-0.032 0.416,-0.032 0.864,-0.096 v -8.192 q -0.448,-0.256 -1.024,-0.416 -0.576,-0.192 -1.216,-0.192 -1.408,0 -2.048,1.12 -0.64,1.12 -0.64,3.232 z m 8.864,7.168 q -1.088,0.352 -2.656,0.576 -1.568,0.224 -3.072,0.224 -3.52,0 -5.344,-2.08 -1.792,-2.08 -1.792,-5.696 0,-3.68 1.504,-5.792 1.536,-2.144 4.512,-2.144 0.8,0 1.568,0.192 0.768,0.16 1.344,0.48 v -6.848 l 3.936,-0.672 z"
         style="font-style:normal;font-variant:normal;font-weight:bold;font-stretch:normal;font-size:32px;font-family:'Ubuntu Mono';-inkscape-font-specification:'Ubuntu Mono Bold'"
         id="path4702"
         inkscape:connector-curvature="0" />
      <path
         d="m 167.52987,247.02342 q 0,-1.632 0.512,-3.072 0.512,-1.44 1.568,-2.496 1.056,-1.088 2.656,-1.696 1.632,-0.64 3.872,-0.64 1.344,0 2.432,0.192 1.088,0.192 2.208,0.64 l -0.864,3.168 q -0.64,-0.224 -1.44,-0.384 -0.768,-0.192 -1.984,-0.192 -1.408,0 -2.368,0.352 -0.928,0.32 -1.504,0.928 -0.576,0.576 -0.832,1.408 -0.256,0.832 -0.256,1.792 0,2.08 1.152,3.264 1.184,1.184 4,1.184 0.928,0 1.92,-0.128 1.024,-0.128 1.856,-0.416 l 0.576,3.232 q -0.832,0.32 -2.016,0.512 -1.184,0.224 -2.784,0.224 -2.304,0 -3.968,-0.608 -1.632,-0.608 -2.688,-1.664 -1.056,-1.056 -1.568,-2.496 -0.48,-1.44 -0.48,-3.104 z"
         style="font-style:normal;font-variant:normal;font-weight:bold;font-stretch:normal;font-size:32px;font-family:'Ubuntu Mono';-inkscape-font-specification:'Ubuntu Mono Bold'"
         id="path4704"
         inkscape:connector-curvature="0" />
      <path
         d="m 190.15387,251.72742 q 0.64,0 1.248,0 0.608,-0.032 1.056,-0.096 v -3.456 q -0.384,-0.064 -0.928,-0.096 -0.544,-0.064 -0.992,-0.064 -0.608,0 -1.184,0.096 -0.576,0.064 -1.024,0.256 -0.416,0.192 -0.672,0.544 -0.256,0.352 -0.256,0.928 0,1.024 0.768,1.472 0.768,0.416 1.984,0.416 z m -0.352,-12.608 q 1.856,0 3.072,0.448 1.248,0.416 1.984,1.216 0.736,0.768 1.056,1.92 0.32,1.12 0.32,2.528 v 8.96 q -0.864,0.192 -2.56,0.448 -1.696,0.256 -3.808,0.256 -1.44,0 -2.624,-0.256 -1.152,-0.256 -1.984,-0.832 -0.832,-0.608 -1.28,-1.536 -0.448,-0.96 -0.448,-2.336 0,-1.312 0.512,-2.208 0.512,-0.896 1.376,-1.44 0.864,-0.544 1.984,-0.768 1.12,-0.256 2.336,-0.256 1.536,0 2.72,0.256 v -0.48 q 0,-1.12 -0.704,-1.856 -0.704,-0.768 -2.432,-0.768 -1.12,0 -2.176,0.16 -1.024,0.16 -1.664,0.384 l -0.544,-3.168 q 0.736,-0.256 2.08,-0.448 1.344,-0.224 2.784,-0.224 z"
         style="font-style:normal;font-variant:normal;font-weight:bold;font-stretch:normal;font-size:32px;font-family:'Ubuntu Mono';-inkscape-font-specification:'Ubuntu Mono Bold'"
         id="path4706"
         inkscape:connector-curvature="0" />
      <path
         d="m 209.12987,247.15142 q 0,-2.016 -0.8,-3.296 -0.8,-1.312 -2.432,-1.312 -0.448,0 -0.96,0.064 -0.512,0.032 -0.864,0.064 v 8.256 q 0.384,0.256 1.024,0.416 0.64,0.16 1.28,0.16 1.408,0 2.08,-1.12 0.672,-1.152 0.672,-3.232 z m 4,-0.128 q 0,1.728 -0.384,3.2 -0.384,1.44 -1.12,2.496 -0.736,1.024 -1.856,1.6 -1.12,0.576 -2.592,0.576 -1.504,0 -3.104,-0.736 v 5.664 h -3.936 v -19.84 q 1.088,-0.352 2.656,-0.576 1.6,-0.224 3.136,-0.224 3.488,0 5.344,2.112 1.856,2.112 1.856,5.728 z"
         style="font-style:normal;font-variant:normal;font-weight:bold;font-stretch:normal;font-size:32px;font-family:'Ubuntu Mono';-inkscape-font-specification:'Ubuntu Mono Bold'"
         id="path4708"
         inkscape:connector-curvature="0" />
    </g>
    <g
       aria-label="Miter join"
       transform="matrix(0.76997327,0,0,0.76997327,421.26899,14.544752)"
       style="font-style:normal;font-weight:normal;font-size:18.66666603px;line-height:0;font-family:sans-serif;letter-spacing:0px;word-spacing:4.94999981px;fill:#000000;fill-opacity:1;stroke:none"
       id="flowRoot4559">
      <path
         d="m 22.323875,234.73542 q 0.224,0.672 0.544,1.728 0.352,1.056 0.736,2.272 0.384,1.216 0.768,2.464 0.384,1.248 0.736,2.304 0.384,-1.184 0.8,-2.432 0.416,-1.28 0.8,-2.432 0.384,-1.184 0.704,-2.208 0.32,-1.024 0.576,-1.696 h 3.264 q 0.224,2.592 0.416,5.056 0.224,2.464 0.352,4.896 0.16,2.4 0.256,4.864 0.096,2.432 0.16,4.992 h -3.616 l 0.192,-15.392 -2.432,8.384 h -2.88 l -2.336,-8.384 0.16,15.392 h -3.616 q 0.096,-2.432 0.192,-5.056 0.128,-2.624 0.256,-5.216 0.128,-2.592 0.288,-5.024 0.192,-2.432 0.416,-4.512 z"
         style="font-style:normal;font-variant:normal;font-weight:bold;font-stretch:normal;font-size:32px;font-family:'Ubuntu Mono';-inkscape-font-specification:'Ubuntu Mono Bold'"
         id="path4585"
         inkscape:connector-curvature="0" />
      <path
         d="m 42.259875,235.18342 q 0,1.152 -0.736,1.824 -0.736,0.672 -1.76,0.672 -1.024,0 -1.76,-0.672 -0.704,-0.672 -0.704,-1.824 0,-1.184 0.704,-1.856 0.736,-0.672 1.76,-0.672 1.024,0 1.76,0.672 0.736,0.672 0.736,1.856 z m 5.856,18.72 q -1.216,0.576 -2.304,0.768 -1.056,0.224 -1.952,0.224 -1.536,0 -2.592,-0.448 -1.024,-0.448 -1.664,-1.28 -0.608,-0.864 -0.864,-2.08 -0.256,-1.216 -0.256,-2.784 v -5.536 h -4.16 v -3.264 h 8.096 v 9.312 q 0,1.344 0.48,2.016 0.512,0.64 1.664,0.64 0.544,0 1.312,-0.128 0.768,-0.16 1.728,-0.608 z"
         style="font-style:normal;font-variant:normal;font-weight:bold;font-stretch:normal;font-size:32px;font-family:'Ubuntu Mono';-inkscape-font-specification:'Ubuntu Mono Bold'"
         id="path4587"
         inkscape:connector-curvature="0" />
      <path
         d="m 53.747875,242.76742 h -3.424 v -3.264 h 3.424 v -3.776 l 3.936,-0.64 v 4.416 h 6.304 v 3.264 h -6.304 v 6.08 q 0,0.832 0.16,1.344 0.16,0.512 0.448,0.8 0.288,0.288 0.704,0.384 0.416,0.096 0.928,0.096 0.544,0 0.992,-0.032 0.48,-0.032 0.896,-0.096 0.448,-0.096 0.896,-0.256 0.48,-0.16 1.024,-0.416 l 0.544,3.392 q -1.088,0.448 -2.368,0.64 -1.248,0.192 -2.432,0.192 -1.376,0 -2.432,-0.224 -1.056,-0.224 -1.792,-0.864 -0.736,-0.64 -1.12,-1.792 -0.384,-1.184 -0.384,-3.072 z"
         style="font-style:normal;font-variant:normal;font-weight:bold;font-stretch:normal;font-size:32px;font-family:'Ubuntu Mono';-inkscape-font-specification:'Ubuntu Mono Bold'"
         id="path4589"
         inkscape:connector-curvature="0" />
      <path
         d="m 66.163875,247.15142 q 0,-1.984 0.608,-3.488 0.608,-1.504 1.6,-2.496 0.992,-1.024 2.272,-1.536 1.28,-0.512 2.624,-0.512 3.328,0 5.056,1.984 1.728,1.952 1.728,5.728 0,0.384 -0.032,0.8 0,0.416 -0.032,0.672 h -9.76 q 0,1.472 1.216,2.336 1.216,0.832 3.136,0.832 1.184,0 2.24,-0.256 1.088,-0.256 1.824,-0.512 l 0.544,3.36 q -1.024,0.352 -2.176,0.576 -1.152,0.256 -2.592,0.256 -1.92,0 -3.456,-0.48 -1.504,-0.512 -2.592,-1.472 -1.056,-0.992 -1.632,-2.432 -0.576,-1.44 -0.576,-3.36 z m 10.08,-1.568 q 0,-0.608 -0.16,-1.152 -0.16,-0.576 -0.512,-1.024 -0.352,-0.448 -0.896,-0.704 -0.544,-0.288 -1.344,-0.288 -0.768,0 -1.344,0.256 -0.544,0.256 -0.928,0.704 -0.352,0.448 -0.576,1.024 -0.192,0.576 -0.256,1.184 z"
         style="font-style:normal;font-variant:normal;font-weight:bold;font-stretch:normal;font-size:32px;font-family:'Ubuntu Mono';-inkscape-font-specification:'Ubuntu Mono Bold'"
         id="path4591"
         inkscape:connector-curvature="0" />
      <path
         d="m 95.155875,243.50342 q -0.384,-0.096 -0.928,-0.192 -0.512,-0.096 -1.056,-0.16 -0.544,-0.096 -1.056,-0.128 -0.512,-0.032 -0.864,-0.032 -0.832,0 -1.632,0.096 -0.8,0.064 -1.632,0.288 v 11.168 h -3.968 v -14.048 q 1.568,-0.576 3.2,-0.928 1.664,-0.352 3.872,-0.352 0.32,0 0.896,0.032 0.608,0.032 1.28,0.128 0.672,0.064 1.344,0.192 0.704,0.096 1.248,0.288 z"
         style="font-style:normal;font-variant:normal;font-weight:bold;font-stretch:normal;font-size:32px;font-family:'Ubuntu Mono';-inkscape-font-specification:'Ubuntu Mono Bold'"
         id="path4593"
         inkscape:connector-curvature="0" />
      <path
         d="m 130.92187,253.55142 q 0,1.824 -0.448,3.04 -0.448,1.248 -1.248,1.984 -0.768,0.768 -1.856,1.088 -1.056,0.32 -2.304,0.32 -1.536,0 -2.848,-0.384 -1.312,-0.384 -2.528,-0.992 l 1.216,-3.328 q 0.8,0.448 1.92,0.832 1.152,0.416 2.08,0.416 0.992,0 1.536,-0.608 0.544,-0.576 0.544,-2.176 v -10.976 h -6.08 v -3.264 h 10.016 z m -0.48,-18.368 q 0,1.152 -0.736,1.824 -0.736,0.672 -1.76,0.672 -1.024,0 -1.76,-0.672 -0.704,-0.672 -0.704,-1.824 0,-1.184 0.704,-1.856 0.736,-0.672 1.76,-0.672 1.024,0 1.76,0.672 0.736,0.672 0.736,1.856 z"
         style="font-style:normal;font-variant:normal;font-weight:bold;font-stretch:normal;font-size:32px;font-family:'Ubuntu Mono';-inkscape-font-specification:'Ubuntu Mono Bold'"
         id="path4595"
         inkscape:connector-curvature="0" />
      <path
         d="m 149.22587,246.99142 q 0,1.792 -0.512,3.264 -0.512,1.44 -1.44,2.496 -0.928,1.056 -2.24,1.632 -1.28,0.576 -2.88,0.576 -1.6,0 -2.912,-0.576 -1.28,-0.576 -2.24,-1.632 -0.928,-1.056 -1.44,-2.496 -0.512,-1.472 -0.512,-3.264 0,-1.76 0.512,-3.2 0.544,-1.472 1.472,-2.496 0.96,-1.056 2.272,-1.6 1.312,-0.576 2.848,-0.576 1.568,0 2.848,0.576 1.312,0.544 2.24,1.6 0.96,1.024 1.472,2.496 0.512,1.44 0.512,3.2 z m -10.176,0.032 q 0,2.016 0.704,3.264 0.736,1.248 2.336,1.248 1.536,0 2.304,-1.248 0.8,-1.248 0.8,-3.264 0,-2.016 -0.736,-3.232 -0.704,-1.248 -2.304,-1.248 -1.536,0 -2.336,1.248 -0.768,1.216 -0.768,3.232 z"
         style="font-style:normal;font-variant:normal;font-weight:bold;font-stretch:normal;font-size:32px;font-family:'Ubuntu Mono';-inkscape-font-specification:'Ubuntu Mono Bold'"
         id="path4597"
         inkscape:connector-curvature="0" />
      <path
         d="m 159.20987,235.18342 q 0,1.152 -0.736,1.824 -0.736,0.672 -1.76,0.672 -1.024,0 -1.76,-0.672 -0.704,-0.672 -0.704,-1.824 0,-1.184 0.704,-1.856 0.736,-0.672 1.76,-0.672 1.024,0 1.76,0.672 0.736,0.672 0.736,1.856 z m 5.856,18.72 q -1.216,0.576 -2.304,0.768 -1.056,0.224 -1.952,0.224 -1.536,0 -2.592,-0.448 -1.024,-0.448 -1.664,-1.28 -0.608,-0.864 -0.864,-2.08 -0.256,-1.216 -0.256,-2.784 v -5.536 h -4.16 v -3.264 h 8.096 v 9.312 q 0,1.344 0.48,2.016 0.512,0.64 1.664,0.64 0.544,0 1.312,-0.128 0.768,-0.16 1.728,-0.608 z"
         style="font-style:normal;font-variant:normal;font-weight:bold;font-stretch:normal;font-size:32px;font-family:'Ubuntu Mono';-inkscape-font-specification:'Ubuntu Mono Bold'"
         id="path4599"
         inkscape:connector-curvature="0" />
      <path
         d="m 168.13787,239.98342 q 1.056,-0.288 2.592,-0.544 1.568,-0.256 3.392,-0.256 1.792,0 2.976,0.512 1.184,0.48 1.856,1.408 0.704,0.896 0.992,2.176 0.288,1.248 0.288,2.784 v 8.48 h -3.936 v -7.968 q 0,-2.112 -0.48,-3.04 -0.48,-0.928 -1.952,-0.928 -0.448,0 -0.896,0.032 -0.416,0.032 -0.896,0.096 v 11.808 h -3.936 z"
         style="font-style:normal;font-variant:normal;font-weight:bold;font-stretch:normal;font-size:32px;font-family:'Ubuntu Mono';-inkscape-font-specification:'Ubuntu Mono Bold'"
         id="path4601"
         inkscape:connector-curvature="0" />
    </g>
    <g
       aria-label="Bevel join"
       transform="matrix(0.76997327,0,0,0.76997327,219.5351,14.544752)"
       style="font-style:normal;font-weight:normal;font-size:18.66666603px;line-height:0;font-family:sans-serif;letter-spacing:0px;word-spacing:4.94999981px;fill:#000000;fill-opacity:1;stroke:none"
       id="flowRoot4551">
      <path
         d="m 32.179875,248.55942 q 0,1.792 -0.608,3.008 -0.608,1.184 -1.664,1.92 -1.024,0.704 -2.464,1.024 -1.408,0.288 -3.04,0.288 -1.312,0 -2.72,-0.16 -1.408,-0.128 -2.784,-0.416 v -19.232 q 1.12,-0.192 2.464,-0.32 1.344,-0.16 2.656,-0.16 2.24,0 3.648,0.48 1.408,0.448 2.208,1.216 0.8,0.736 1.088,1.664 0.288,0.928 0.288,1.856 0,1.408 -0.704,2.496 -0.672,1.088 -1.824,1.728 2.016,0.736 2.72,1.984 0.736,1.248 0.736,2.624 z m -9.344,-2.688 v 5.376 q 0.416,0.064 0.896,0.096 0.512,0.032 0.992,0.032 0.672,0 1.312,-0.096 0.64,-0.128 1.12,-0.416 0.512,-0.32 0.832,-0.864 0.32,-0.576 0.32,-1.44 0,-1.44 -0.928,-2.048 -0.896,-0.64 -2.432,-0.64 z m 1.536,-3.264 q 1.504,0 2.272,-0.64 0.768,-0.672 0.768,-1.824 0,-0.704 -0.224,-1.12 -0.224,-0.448 -0.608,-0.672 -0.384,-0.256 -0.896,-0.32 -0.512,-0.096 -1.056,-0.096 -0.448,0 -0.928,0.032 -0.48,0.032 -0.864,0.096 v 4.544 z"
         style="font-style:normal;font-variant:normal;font-weight:bold;font-stretch:normal;font-size:32px;font-family:'Ubuntu Mono';-inkscape-font-specification:'Ubuntu Mono Bold'"
         id="path4604"
         inkscape:connector-curvature="0" />
      <path
         d="m 34.163875,247.15142 q 0,-1.984 0.608,-3.488 0.608,-1.504 1.6,-2.496 0.992,-1.024 2.272,-1.536 1.28,-0.512 2.624,-0.512 3.328,0 5.056,1.984 1.728,1.952 1.728,5.728 0,0.384 -0.032,0.8 0,0.416 -0.032,0.672 h -9.76 q 0,1.472 1.216,2.336 1.216,0.832 3.136,0.832 1.184,0 2.24,-0.256 1.088,-0.256 1.824,-0.512 l 0.544,3.36 q -1.024,0.352 -2.176,0.576 -1.152,0.256 -2.592,0.256 -1.92,0 -3.456,-0.48 -1.504,-0.512 -2.592,-1.472 -1.056,-0.992 -1.632,-2.432 -0.576,-1.44 -0.576,-3.36 z m 10.08,-1.568 q 0,-0.608 -0.16,-1.152 -0.16,-0.576 -0.512,-1.024 -0.352,-0.448 -0.896,-0.704 -0.544,-0.288 -1.344,-0.288 -0.768,0 -1.344,0.256 -0.544,0.256 -0.928,0.704 -0.352,0.448 -0.576,1.024 -0.192,0.576 -0.256,1.184 z"
         style="font-style:normal;font-variant:normal;font-weight:bold;font-stretch:normal;font-size:32px;font-family:'Ubuntu Mono';-inkscape-font-specification:'Ubuntu Mono Bold'"
         id="path4606"
         inkscape:connector-curvature="0" />
      <path
         d="m 55.379875,254.54342 q -1.44,-2.848 -2.944,-6.656 -1.472,-3.84 -2.816,-8.384 h 4.128 q 0.288,1.216 0.672,2.592 0.416,1.376 0.864,2.784 0.448,1.376 0.896,2.688 0.48,1.312 0.896,2.4 0.416,-1.088 0.928,-2.4 0.512,-1.312 0.992,-2.688 0.512,-1.408 0.96,-2.784 0.48,-1.376 0.768,-2.592 h 4 q -1.344,4.544 -2.976,8.384 -1.632,3.808 -3.072,6.656 z"
         style="font-style:normal;font-variant:normal;font-weight:bold;font-stretch:normal;font-size:32px;font-family:'Ubuntu Mono';-inkscape-font-specification:'Ubuntu Mono Bold'"
         id="path4608"
         inkscape:connector-curvature="0" />
      <path
         d="m 66.163875,247.15142 q 0,-1.984 0.608,-3.488 0.608,-1.504 1.6,-2.496 0.992,-1.024 2.272,-1.536 1.28,-0.512 2.624,-0.512 3.328,0 5.056,1.984 1.728,1.952 1.728,5.728 0,0.384 -0.032,0.8 0,0.416 -0.032,0.672 h -9.76 q 0,1.472 1.216,2.336 1.216,0.832 3.136,0.832 1.184,0 2.24,-0.256 1.088,-0.256 1.824,-0.512 l 0.544,3.36 q -1.024,0.352 -2.176,0.576 -1.152,0.256 -2.592,0.256 -1.92,0 -3.456,-0.48 -1.504,-0.512 -2.592,-1.472 -1.056,-0.992 -1.632,-2.432 -0.576,-1.44 -0.576,-3.36 z m 10.08,-1.568 q 0,-0.608 -0.16,-1.152 -0.16,-0.576 -0.512,-1.024 -0.352,-0.448 -0.896,-0.704 -0.544,-0.288 -1.344,-0.288 -0.768,0 -1.344,0.256 -0.544,0.256 -0.928,0.704 -0.352,0.448 -0.576,1.024 -0.192,0.576 -0.256,1.184 z"
         style="font-style:normal;font-variant:normal;font-weight:bold;font-stretch:normal;font-size:32px;font-family:'Ubuntu Mono';-inkscape-font-specification:'Ubuntu Mono Bold'"
         id="path4610"
         inkscape:connector-curvature="0" />
      <path
         d="m 96.115875,253.90342 q -0.096,0.064 -0.448,0.224 -0.32,0.16 -0.864,0.352 -0.544,0.16 -1.344,0.288 -0.768,0.128 -1.76,0.128 -2.72,0 -3.968,-1.6 -1.248,-1.632 -1.248,-4.736 v -12.768 h -4.16 v -3.264 h 8.096 v 16.32 q 0,1.536 0.608,2.08 0.608,0.544 1.536,0.544 1.184,0 1.984,-0.32 0.8,-0.32 1.056,-0.416 z"
         style="font-style:normal;font-variant:normal;font-weight:bold;font-stretch:normal;font-size:32px;font-family:'Ubuntu Mono';-inkscape-font-specification:'Ubuntu Mono Bold'"
         id="path4612"
         inkscape:connector-curvature="0" />
      <path
         d="m 130.92187,253.55142 q 0,1.824 -0.448,3.04 -0.448,1.248 -1.248,1.984 -0.768,0.768 -1.856,1.088 -1.056,0.32 -2.304,0.32 -1.536,0 -2.848,-0.384 -1.312,-0.384 -2.528,-0.992 l 1.216,-3.328 q 0.8,0.448 1.92,0.832 1.152,0.416 2.08,0.416 0.992,0 1.536,-0.608 0.544,-0.576 0.544,-2.176 v -10.976 h -6.08 v -3.264 h 10.016 z m -0.48,-18.368 q 0,1.152 -0.736,1.824 -0.736,0.672 -1.76,0.672 -1.024,0 -1.76,-0.672 -0.704,-0.672 -0.704,-1.824 0,-1.184 0.704,-1.856 0.736,-0.672 1.76,-0.672 1.024,0 1.76,0.672 0.736,0.672 0.736,1.856 z"
         style="font-style:normal;font-variant:normal;font-weight:bold;font-stretch:normal;font-size:32px;font-family:'Ubuntu Mono';-inkscape-font-specification:'Ubuntu Mono Bold'"
         id="path4614"
         inkscape:connector-curvature="0" />
      <path
         d="m 149.22587,246.99142 q 0,1.792 -0.512,3.264 -0.512,1.44 -1.44,2.496 -0.928,1.056 -2.24,1.632 -1.28,0.576 -2.88,0.576 -1.6,0 -2.912,-0.576 -1.28,-0.576 -2.24,-1.632 -0.928,-1.056 -1.44,-2.496 -0.512,-1.472 -0.512,-3.264 0,-1.76 0.512,-3.2 0.544,-1.472 1.472,-2.496 0.96,-1.056 2.272,-1.6 1.312,-0.576 2.848,-0.576 1.568,0 2.848,0.576 1.312,0.544 2.24,1.6 0.96,1.024 1.472,2.496 0.512,1.44 0.512,3.2 z m -10.176,0.032 q 0,2.016 0.704,3.264 0.736,1.248 2.336,1.248 1.536,0 2.304,-1.248 0.8,-1.248 0.8,-3.264 0,-2.016 -0.736,-3.232 -0.704,-1.248 -2.304,-1.248 -1.536,0 -2.336,1.248 -0.768,1.216 -0.768,3.232 z"
         style="font-style:normal;font-variant:normal;font-weight:bold;font-stretch:normal;font-size:32px;font-family:'Ubuntu Mono';-inkscape-font-specification:'Ubuntu Mono Bold'"
         id="path4616"
         inkscape:connector-curvature="0" />
      <path
         d="m 159.20987,235.18342 q 0,1.152 -0.736,1.824 -0.736,0.672 -1.76,0.672 -1.024,0 -1.76,-0.672 -0.704,-0.672 -0.704,-1.824 0,-1.184 0.704,-1.856 0.736,-0.672 1.76,-0.672 1.024,0 1.76,0.672 0.736,0.672 0.736,1.856 z m 5.856,18.72 q -1.216,0.576 -2.304,0.768 -1.056,0.224 -1.952,0.224 -1.536,0 -2.592,-0.448 -1.024,-0.448 -1.664,-1.28 -0.608,-0.864 -0.864,-2.08 -0.256,-1.216 -0.256,-2.784 v -5.536 h -4.16 v -3.264 h 8.096 v 9.312 q 0,1.344 0.48,2.016 0.512,0.64 1.664,0.64 0.544,0 1.312,-0.128 0.768,-0.16 1.728,-0.608 z"
         style="font-style:normal;font-variant:normal;font-weight:bold;font-stretch:normal;font-size:32px;font-family:'Ubuntu Mono';-inkscape-font-specification:'Ubuntu Mono Bold'"
         id="path4618"
         inkscape:connector-curvature="0" />
      <path
         d="m 168.13787,239.98342 q 1.056,-0.288 2.592,-0.544 1.568,-0.256 3.392,-0.256 1.792,0 2.976,0.512 1.184,0.48 1.856,1.408 0.704,0.896 0.992,2.176 0.288,1.248 0.288,2.784 v 8.48 h -3.936 v -7.968 q 0,-2.112 -0.48,-3.04 -0.48,-0.928 -1.952,-0.928 -0.448,0 -0.896,0.032 -0.416,0.032 -0.896,0.096 v 11.808 h -3.936 z"
         style="font-style:normal;font-variant:normal;font-weight:bold;font-stretch:normal;font-size:32px;font-family:'Ubuntu Mono';-inkscape-font-specification:'Ubuntu Mono Bold'"
         id="path4620"
         inkscape:connector-curvature="0" />
    </g>
    <g
       aria-label="Round join"
       transform="matrix(0.76997327,0,0,0.76997327,11.64219,14.544752)"
       style="font-style:normal;font-weight:normal;font-size:18.66666603px;line-height:0;font-family:sans-serif;letter-spacing:0px;word-spacing:4.94999981px;fill:#000000;fill-opacity:1;stroke:none"
       id="flowRoot4537">
      <path
         d="m 24.019875,234.51142 q 1.696,0 3.072,0.384 1.376,0.384 2.368,1.184 0.992,0.8 1.504,2.048 0.544,1.216 0.544,2.88 0,1.728 -0.704,3.136 -0.704,1.408 -2.336,2.144 0.544,0.832 1.152,1.856 0.608,0.992 1.184,2.112 0.576,1.088 1.088,2.208 0.544,1.088 0.928,2.08 h -4.128 q -0.736,-1.92 -1.728,-3.68 -0.96,-1.792 -2.08,-3.616 h -2.048 v 7.296 h -3.936 v -19.52 q 0.576,-0.128 1.248,-0.224 0.704,-0.128 1.408,-0.16 0.704,-0.064 1.344,-0.096 0.64,-0.032 1.12,-0.032 z m 3.488,6.464 q 0,-1.568 -0.96,-2.304 -0.96,-0.736 -2.528,-0.736 -0.224,0 -0.544,0.032 -0.32,0 -0.64,0.064 v 5.952 h 0.864 q 2.016,0 2.912,-0.768 0.896,-0.8 0.896,-2.24 z"
         style="font-style:normal;font-variant:normal;font-weight:bold;font-stretch:normal;font-size:32px;font-family:'Ubuntu Mono';-inkscape-font-specification:'Ubuntu Mono Bold'"
         id="path4623"
         inkscape:connector-curvature="0" />
      <path
         d="m 48.275875,246.99142 q 0,1.792 -0.512,3.264 -0.512,1.44 -1.44,2.496 -0.928,1.056 -2.24,1.632 -1.28,0.576 -2.88,0.576 -1.6,0 -2.912,-0.576 -1.28,-0.576 -2.24,-1.632 -0.928,-1.056 -1.44,-2.496 -0.512,-1.472 -0.512,-3.264 0,-1.76 0.512,-3.2 0.544,-1.472 1.472,-2.496 0.96,-1.056 2.272,-1.6 1.312,-0.576 2.848,-0.576 1.568,0 2.848,0.576 1.312,0.544 2.24,1.6 0.96,1.024 1.472,2.496 0.512,1.44 0.512,3.2 z m -10.176,0.032 q 0,2.016 0.704,3.264 0.736,1.248 2.336,1.248 1.536,0 2.304,-1.248 0.8,-1.248 0.8,-3.264 0,-2.016 -0.736,-3.232 -0.704,-1.248 -2.304,-1.248 -1.536,0 -2.336,1.248 -0.768,1.216 -0.768,3.232 z"
         style="font-style:normal;font-variant:normal;font-weight:bold;font-stretch:normal;font-size:32px;font-family:'Ubuntu Mono';-inkscape-font-specification:'Ubuntu Mono Bold'"
         id="path4625"
         inkscape:connector-curvature="0" />
      <path
         d="m 63.187875,254.03142 q -1.088,0.288 -2.656,0.576 -1.536,0.288 -3.36,0.288 -1.856,0 -3.04,-0.512 -1.184,-0.512 -1.888,-1.44 -0.672,-0.96 -0.928,-2.24 -0.256,-1.28 -0.256,-2.816 v -8.384 h 3.936 v 7.872 q 0,2.08 0.48,3.104 0.512,0.992 1.952,0.992 0.896,0 1.792,-0.16 v -11.808 h 3.968 z"
         style="font-style:normal;font-variant:normal;font-weight:bold;font-stretch:normal;font-size:32px;font-family:'Ubuntu Mono';-inkscape-font-specification:'Ubuntu Mono Bold'"
         id="path4627"
         inkscape:connector-curvature="0" />
      <path
         d="m 67.187875,239.98342 q 1.056,-0.288 2.592,-0.544 1.568,-0.256 3.392,-0.256 1.792,0 2.976,0.512 1.184,0.48 1.856,1.408 0.704,0.896 0.992,2.176 0.288,1.248 0.288,2.784 v 8.48 h -3.936 v -7.968 q 0,-2.112 -0.48,-3.04 -0.48,-0.928 -1.952,-0.928 -0.448,0 -0.896,0.032 -0.416,0.032 -0.896,0.096 v 11.808 h -3.936 z"
         style="font-style:normal;font-variant:normal;font-weight:bold;font-stretch:normal;font-size:32px;font-family:'Ubuntu Mono';-inkscape-font-specification:'Ubuntu Mono Bold'"
         id="path4629"
         inkscape:connector-curvature="0" />
      <path
         d="m 86.067875,246.92742 q 0,2.016 0.736,3.296 0.768,1.28 2.432,1.28 0.48,0 0.896,-0.032 0.416,-0.032 0.864,-0.096 v -8.192 q -0.448,-0.256 -1.024,-0.416 -0.576,-0.192 -1.216,-0.192 -1.408,0 -2.048,1.12 -0.64,1.12 -0.64,3.232 z m 8.864,7.168 q -1.088,0.352 -2.656,0.576 -1.568,0.224 -3.072,0.224 -3.52,0 -5.344,-2.08 -1.792,-2.08 -1.792,-5.696 0,-3.68 1.504,-5.792 1.536,-2.144 4.512,-2.144 0.8,0 1.568,0.192 0.768,0.16 1.344,0.48 v -6.848 l 3.936,-0.672 z"
         style="font-style:normal;font-variant:normal;font-weight:bold;font-stretch:normal;font-size:32px;font-family:'Ubuntu Mono';-inkscape-font-specification:'Ubuntu Mono Bold'"
         id="path4631"
         inkscape:connector-curvature="0" />
      <path
         d="m 130.92187,253.55142 q 0,1.824 -0.448,3.04 -0.448,1.248 -1.248,1.984 -0.768,0.768 -1.856,1.088 -1.056,0.32 -2.304,0.32 -1.536,0 -2.848,-0.384 -1.312,-0.384 -2.528,-0.992 l 1.216,-3.328 q 0.8,0.448 1.92,0.832 1.152,0.416 2.08,0.416 0.992,0 1.536,-0.608 0.544,-0.576 0.544,-2.176 v -10.976 h -6.08 v -3.264 h 10.016 z m -0.48,-18.368 q 0,1.152 -0.736,1.824 -0.736,0.672 -1.76,0.672 -1.024,0 -1.76,-0.672 -0.704,-0.672 -0.704,-1.824 0,-1.184 0.704,-1.856 0.736,-0.672 1.76,-0.672 1.024,0 1.76,0.672 0.736,0.672 0.736,1.856 z"
         style="font-style:normal;font-variant:normal;font-weight:bold;font-stretch:normal;font-size:32px;font-family:'Ubuntu Mono';-inkscape-font-specification:'Ubuntu Mono Bold'"
         id="path4633"
         inkscape:connector-curvature="0" />
      <path
         d="m 149.22587,246.99142 q 0,1.792 -0.512,3.264 -0.512,1.44 -1.44,2.496 -0.928,1.056 -2.24,1.632 -1.28,0.576 -2.88,0.576 -1.6,0 -2.912,-0.576 -1.28,-0.576 -2.24,-1.632 -0.928,-1.056 -1.44,-2.496 -0.512,-1.472 -0.512,-3.264 0,-1.76 0.512,-3.2 0.544,-1.472 1.472,-2.496 0.96,-1.056 2.272,-1.6 1.312,-0.576 2.848,-0.576 1.568,0 2.848,0.576 1.312,0.544 2.24,1.6 0.96,1.024 1.472,2.496 0.512,1.44 0.512,3.2 z m -10.176,0.032 q 0,2.016 0.704,3.264 0.736,1.248 2.336,1.248 1.536,0 2.304,-1.248 0.8,-1.248 0.8,-3.264 0,-2.016 -0.736,-3.232 -0.704,-1.248 -2.304,-1.248 -1.536,0 -2.336,1.248 -0.768,1.216 -0.768,3.232 z"
         style="font-style:normal;font-variant:normal;font-weight:bold;font-stretch:normal;font-size:32px;font-family:'Ubuntu Mono';-inkscape-font-specification:'Ubuntu Mono Bold'"
         id="path4635"
         inkscape:connector-curvature="0" />
      <path
         d="m 159.20987,235.18342 q 0,1.152 -0.736,1.824 -0.736,0.672 -1.76,0.672 -1.024,0 -1.76,-0.672 -0.704,-0.672 -0.704,-1.824 0,-1.184 0.704,-1.856 0.736,-0.672 1.76,-0.672 1.024,0 1.76,0.672 0.736,0.672 0.736,1.856 z m 5.856,18.72 q -1.216,0.576 -2.304,0.768 -1.056,0.224 -1.952,0.224 -1.536,0 -2.592,-0.448 -1.024,-0.448 -1.664,-1.28 -0.608,-0.864 -0.864,-2.08 -0.256,-1.216 -0.256,-2.784 v -5.536 h -4.16 v -3.264 h 8.096 v 9.312 q 0,1.344 0.48,2.016 0.512,0.64 1.664,0.64 0.544,0 1.312,-0.128 0.768,-0.16 1.728,-0.608 z"
         style="font-style:normal;font-variant:normal;font-weight:bold;font-stretch:normal;font-size:32px;font-family:'Ubuntu Mono';-inkscape-font-specification:'Ubuntu Mono Bold'"
         id="path4637"
         inkscape:connector-curvature="0" />
      <path
         d="m 168.13787,239.98342 q 1.056,-0.288 2.592,-0.544 1.568,-0.256 3.392,-0.256 1.792,0 2.976,0.512 1.184,0.48 1.856,1.408 0.704,0.896 0.992,2.176 0.288,1.248 0.288,2.784 v 8.48 h -3.936 v -7.968 q 0,-2.112 -0.48,-3.04 -0.48,-0.928 -1.952,-0.928 -0.448,0 -0.896,0.032 -0.416,0.032 -0.896,0.096 v 11.808 h -3.936 z"
         style="font-style:normal;font-variant:normal;font-weight:bold;font-stretch:normal;font-size:32px;font-family:'Ubuntu Mono';-inkscape-font-specification:'Ubuntu Mono Bold'"
         id="path4639"
         inkscape:connector-curvature="0" />
    </g>
  </g>
</svg>
