<?xml version="1.0" encoding="utf-8"?>
<!-- Generator: Adobe Illustrator 19.0.0, SVG Export Plug-In . SVG Version: 6.00 Build 0)  -->
<svg version="1.1" id="Layer_1" xmlns="http://www.w3.org/2000/svg" xmlns:xlink="http://www.w3.org/1999/xlink" x="0px" y="0px"
	 width="24px" height="24px" viewBox="0 0 24 24" enable-background="new 0 0 24 24" xml:space="preserve" fill="#000000">
<g id="XMLID_399_">
	<path id="XMLID_290_" fill-rule="evenodd" clip-rule="evenodd" d="M12,2C6.48,2,2,6.59,2,12.25c0,4.53,2.87,8.37,6.84,9.73
		c0.5,0.09,0.68-0.22,0.68-0.49c0-0.24-0.01-0.89-0.01-1.74c-2.78,0.62-3.37-1.37-3.37-1.37c-0.45-1.18-1.11-1.5-1.11-1.5
		c-0.91-0.64,0.07-0.62,0.07-0.62c1,0.07,1.53,1.06,1.53,1.06c0.89,1.57,2.34,1.11,2.91,0.85c0.09-0.66,0.35-1.11,0.63-1.37
		c-2.22-0.26-4.56-1.14-4.56-5.07c0-1.12,0.39-2.03,1.03-2.75c-0.1-0.26-0.45-1.3,0.1-2.71c0,0,0.84-0.28,2.75,1.05
		c0.8-0.23,1.65-0.34,2.5-0.34c0.85,0,1.7,0.12,2.5,0.34c1.91-1.33,2.75-1.05,2.75-1.05c0.55,1.41,0.2,2.45,0.1,2.71
		c0.64,0.72,1.03,1.63,1.03,2.75c0,3.94-2.34,4.81-4.57,5.06c0.36,0.32,0.68,0.94,0.68,1.9c0,1.37-0.01,2.48-0.01,2.81
		c0,0.27,0.18,0.59,0.69,0.49c3.97-1.36,6.83-5.2,6.83-9.73C22,6.59,17.52,2,12,2"/>
	<rect id="XMLID_289_" fill-rule="evenodd" clip-rule="evenodd" fill="none" width="24" height="24"/>
</g>
</svg>
