{"accessors":[{"name":"Mesh_Mesh_head_geo.001_lambert2SG.001_positions","componentType":5126,"count":8146,"min":[-28.17205238342285,-2.8307740688323975,-31.3985595703125],"max":[28.16547393798828,75.8121337890625,26.041017532348633],"type":"VEC3","bufferView":0,"byteOffset":0},{"name":"Mesh_Mesh_head_geo.001_lambert2SG.001_normals","componentType":5126,"count":8146,"min":[-0.9999390244483948,-0.9959719777107239,-0.9999690055847168],"max":[0.9999390244483948,0.9999690055847168,0.9996340274810791],"type":"VEC3","bufferView":0,"byteOffset":97752},{"name":"Mesh_Mesh_head_geo.001_lambert2SG.001_0_indices","componentType":5123,"count":48480,"min":[0],"max":[8145],"type":"SCALAR","bufferView":1,"byteOffset":0}],"asset":{"generator":"obj2gltf","version":"2.0"},"buffers":[{"name":"WaltHead","byteLength":292464,"uri":"data:application/octet-stream;base64,"}],"bufferViews":[{"name":"bufferView_0","buffer":0,"byteLength":195504,"byteOffset":0,"byteStride":12,"target":34962},{"name":"bufferView_1","buffer":0,"byteLength":96960,"byteOffset":195504,"target":34963}],"materials":[{"name":"lambert2SG.001","pbrMetallicRoughness":{"baseColorFactor":[0.64,0.64,0.64,1],"metallicFactor":0,"roughnessFactor":0.907843137},"emissiveFactor":[0,0,0],"alphaMode":"OPAQUE","doubleSided":false}],"meshes":[{"name":"Mesh_Mesh_head_geo.001_lambert2SG.001","primitives":[{"attributes":{"POSITION":0,"NORMAL":1},"indices":2,"material":0,"mode":4}]}],"nodes":[{"name":"Mesh_Mesh_head_geo.001","mesh":0}],"scene":0,"scenes":[{"nodes":[0]}]}